<?xml version="1.0" standalone="no"?>
<!DOCTYPE svg PUBLIC "-//W3C//DTD SVG 1.1//EN" "http://www.w3.org/Graphics/SVG/1.1/DTD/svg11.dtd" >
<svg xmlns="http://www.w3.org/2000/svg" xmlns:xlink="http://www.w3.org/1999/xlink" version="1.1">
<metadata>
Created by FontForge 20190801 at Thu May 17 02:07:41 2012
 By Jimmy Wärting
Copyright (c) 2012 by Fontfabric LLC. All rights reserved.
</metadata>
<defs>
<font id="Intro-Regular" horiz-adv-x="551" >
  <font-face 
    font-family="Intro Regular"
    font-weight="400"
    font-stretch="normal"
    units-per-em="1000"
    panose-1="2 0 0 0 0 0 0 0 0 0"
    ascent="750"
    descent="-250"
    x-height="482"
    cap-height="700"
    bbox="-41 -276 1303 977"
    underline-thickness="50"
    underline-position="-100"
    unicode-range="U+0020-2212"
  />
<missing-glyph horiz-adv-x="219" 
 />
    <glyph glyph-name=".notdef" horiz-adv-x="219" 
 />
    <glyph glyph-name=".null" horiz-adv-x="0" 
 />
    <glyph glyph-name="nonmarkingreturn" horiz-adv-x="333" 
 />
    <glyph glyph-name="space" unicode=" " horiz-adv-x="251" 
 />
    <glyph glyph-name="space" unicode="&#xa0;" horiz-adv-x="251" 
 />
    <glyph glyph-name="exclam" unicode="!" horiz-adv-x="273" 
d="M135 -14q-28 0 -47 17t-19 44q0 28 18.5 44.5t47.5 16.5q28 0 47 -16.5t19 -44.5q0 -27 -19 -44t-47 -17zM85 161l-9 540h119l-6 -540h-104z" />
    <glyph glyph-name="quotedbl" unicode="&#x22;" horiz-adv-x="372" 
d="M70 700h88l-13 -217h-75v217zM220 700h88l-13 -217h-75v217z" />
    <glyph glyph-name="numbersign" unicode="#" horiz-adv-x="698" 
d="M43 189v78h118l22 143h-109v79h121l31 210h97l-30 -210h170l32 210h97l-30 -210h92v-79h-104l-21 -143h93v-78h-104l-27 -189h-101l28 189h-168l-27 -189h-102l28 189h-106zM279 413l-22 -148h175l22 148h-175z" />
    <glyph glyph-name="dollar" unicode="$" horiz-adv-x="643" 
d="M43 199h112q2 -47 43.5 -75t94.5 -32v220q-238 26 -238 189q0 95 69.5 149.5t168.5 61.5v68h59v-70q94 -9 160 -61.5t68 -142.5h-109q-6 86 -119 101v-206q57 -7 96.5 -17.5t77.5 -32t57.5 -59.5t19.5 -93q0 -93 -74 -147.5t-177 -63.5v-68h-59v67q-104 9 -176 63
t-74 149zM352 305v-212q134 17 134 106q0 23 -8 40.5t-18 27.5t-31.5 18t-35 11t-41.5 9zM293 408v199q-50 -4 -86.5 -30t-36.5 -73q0 -32 19.5 -52.5t43 -28.5t60.5 -15z" />
    <glyph glyph-name="percent" unicode="%" horiz-adv-x="878" 
d="M212 0l343 699h104l-344 -699h-103zM843 157q0 -55 -25.5 -95.5t-64 -59t-83 -18.5t-83 18.5t-64 59t-25.5 95.5t25.5 95t64 58.5t83 18.5t83 -18t64 -58.5t25.5 -95.5zM586 157q0 -45 26.5 -70.5t58 -25.5t58 25.5t26.5 70.5t-26.5 70t-58 25t-58 -25.5t-26.5 -69.5z
M380 540q0 -47 -19 -84.5t-49.5 -56.5t-67 -28t-73.5 0t-67.5 28t-49.5 56.5t-19 84.5q0 48 19 85t49.5 56.5t67.5 28.5t73.5 0t67 -28.5t49.5 -56.5t19 -85zM124 540q0 -45 26 -70.5t58 -25.5t58 25.5t26 70.5t-26 70.5t-58 25.5t-58 -25.5t-26 -70.5z" />
    <glyph glyph-name="ampersand" unicode="&#x26;" horiz-adv-x="645" 
d="M522 535h-97q-11 98 -112 98q-56 -1 -85.5 -27.5t-29.5 -69.5q0 -50 36.5 -75t100.5 -25v-94h-35q-61 0 -98.5 -34t-37.5 -93q0 -56 40.5 -92t102.5 -36q66 0 101 37t35 101v210h168v-90h-69v-120q0 -111 -62 -173.5t-173 -62.5q-120 0 -188.5 64t-68.5 158
q0 66 33.5 113.5t93.5 71.5q-40 20 -62 57t-21 83q0 78 59.5 131t158.5 53q200 -1 210 -185z" />
    <glyph glyph-name="quotesingle" unicode="'" horiz-adv-x="223" 
d="M71 700h88l-14 -220h-74v220z" />
    <glyph glyph-name="parenleft" unicode="(" horiz-adv-x="330" 
d="M269 780l37 -66q-77 -51 -117.5 -175.5t-38.5 -258t43 -256.5t113 -173l-37 -67q-72 40 -124.5 120t-77 175.5t-25 203t23 203t76.5 175t127 119.5z" />
    <glyph glyph-name="parenright" unicode=")" horiz-adv-x="330" 
d="M24 714l37 66q74 -39 126.5 -118t76.5 -174.5t23.5 -203.5t-25 -204t-76.5 -176t-125 -120l-37 67q74 52 115 175.5t41.5 256.5t-40 256.5t-116.5 174.5z" />
    <glyph glyph-name="asterisk" unicode="*" horiz-adv-x="419" 
d="M366 572l-101 -29l73 -87l-65 -47l-63 89l-63 -90l-64 49l73 84l-105 30l22 73l102 -38l-6 104h81l-7 -104l99 40z" />
    <glyph glyph-name="plus" unicode="+" horiz-adv-x="478" 
d="M56 322v88h138v137h91v-137h137v-88h-137v-137h-91v137h-138z" />
    <glyph glyph-name="comma" unicode="," horiz-adv-x="258" 
d="M129 108q39 0 56 -28t3 -64l-36 -111h-62l20 83q-21 5 -34 20.5t-13 38.5q0 27 19 44t47 17z" />
    <glyph glyph-name="hyphen" unicode="-" horiz-adv-x="465" 
d="M64 286v94h337v-94h-337z" />
    <glyph glyph-name="period" unicode="." horiz-adv-x="260" 
d="M130 -12q-28 0 -47.5 17.5t-19.5 44.5q0 29 19 46t48 17t48 -17t19 -46q0 -27 -19.5 -44.5t-47.5 -17.5z" />
    <glyph glyph-name="slash" unicode="/" horiz-adv-x="508" 
d="M29 1l338 699h112l-339 -699h-111z" />
    <glyph glyph-name="zero" unicode="0" horiz-adv-x="656" 
d="M329 711q111 0 185 -65.5t74 -175.5v-242q0 -110 -74 -175.5t-185 -65.5q-112 0 -186.5 65.5t-74.5 175.5v242q0 110 74.5 175.5t186.5 65.5zM329 90q55 0 93.5 26.5t49.5 75.5q7 35 7 66v181q0 31 -7 66q-11 50 -49.5 77t-93.5 27t-94 -27t-50 -77q-7 -35 -7 -66v-181
q0 -31 7 -66q11 -49 50 -75.5t94 -26.5z" />
    <glyph glyph-name="one" unicode="1" horiz-adv-x="445" 
d="M175 608h-112v92h224v-610h130v-90h-370v90h128v518z" />
    <glyph glyph-name="two" unicode="2" horiz-adv-x="537" 
d="M263 619q-51 0 -80.5 -30.5t-32.5 -84.5h-94q5 202 211 204q100 0 154.5 -57t48.5 -144t-70 -172q-17 -19 -38 -46t-65.5 -85.5t-82.5 -107.5h270v-96h-441v25l275 359q38 46 49.5 100.5t-15 94.5t-89.5 40z" />
    <glyph glyph-name="three" unicode="3" horiz-adv-x="576" 
d="M46 197h103q5 -52 39.5 -80t89.5 -28q61 0 98 35.5t37 97.5q0 42 -20 72.5t-51.5 44t-69.5 18t-74 -6.5v20l158 235h-282v94h443v-18l-177 -252q83 -4 133 -64.5t50 -141.5q0 -101 -65.5 -168t-177.5 -67q-98 0 -163 56t-71 153z" />
    <glyph glyph-name="four" unicode="4" horiz-adv-x="594" 
d="M477 147v-147h-106v147h-344v52l331 501h119v-458h68v-95h-68zM384 564h-2l-218 -326h214v155z" />
    <glyph glyph-name="five" unicode="5" horiz-adv-x="580" 
d="M174 602v-155q44 10 94 10q121 -2 193.5 -57.5t72.5 -175.5q0 -100 -66 -168t-183 -68q-96 0 -159.5 54.5t-71.5 150.5h107q5 -53 39 -80.5t88 -27.5q57 0 96.5 34.5t41.5 101.5q1 76 -44 110.5t-121 38.5q-81 4 -182 -20v350h413v-98h-318z" />
    <glyph glyph-name="six" unicode="6" horiz-adv-x="598" 
d="M301 704h129l-171 -272q29 16 63 16q106 2 173.5 -58.5t67.5 -166.5q0 -112 -73 -172.5t-187 -60.5t-186.5 60.5t-72.5 172.5q0 77 45 145zM303 89q65 0 105 35t40 99t-40 99.5t-105 35.5t-105 -35.5t-40 -99.5t40 -99t105 -35z" />
    <glyph glyph-name="seven" unicode="7" horiz-adv-x="529" 
d="M519 700v-17l-311 -683h-118l271 597h-326v103h484z" />
    <glyph glyph-name="eight" unicode="8" horiz-adv-x="619" 
d="M444 394q58 -27 91 -74t34 -109q0 -96 -71.5 -159t-187.5 -63t-188 63t-72 157q0 62 33 110t91 75q-79 47 -79 133q-2 77 58 130.5t157 53.5q96 0 156 -52t60 -130q0 -85 -82 -135zM309 429q49 0 81 26t32 69t-32.5 69t-79.5 26q-49 0 -81 -26.5t-32 -69.5
q0 -42 32.5 -68t79.5 -26zM310 87q62 0 104 35.5t42 91.5q0 58 -42.5 93.5t-104.5 35.5q-61 0 -103 -36.5t-42 -94.5q0 -56 42 -90.5t104 -34.5z" />
    <glyph glyph-name="nine" unicode="9" horiz-adv-x="595" 
d="M296 0h-127l176 275q-29 -17 -66 -17q-107 -2 -175.5 58.5t-68.5 166.5q0 112 73 172.5t187 60.5t186.5 -60.5t72.5 -172.5q0 -77 -47 -148zM295 617q-65 0 -105 -35t-40 -99t40 -99.5t105 -35.5t104.5 35.5t39.5 99.5t-39.5 99t-104.5 35z" />
    <glyph glyph-name="colon" unicode=":" horiz-adv-x="262" 
d="M131 -12q-28 0 -47.5 17.5t-19.5 44.5q0 29 19 46t48 17t48 -17t19 -46q0 -27 -19.5 -44.5t-47.5 -17.5zM131 310q-28 0 -47.5 17.5t-19.5 44.5q0 29 19 46t48 17t48 -17t19 -46q0 -27 -19.5 -44.5t-47.5 -17.5z" />
    <glyph glyph-name="semicolon" unicode=";" horiz-adv-x="263" 
d="M131 311q-28 0 -47 17t-19 44t19 44t47 17t47 -17t19 -44t-19 -44t-47 -17zM197 44q-1 -9 -6 -28l-35 -106h-66l23 78q-21 5 -34 20.5t-13 38.5q0 27 19 44t47 17q22 0 39 -11t23 -31q3 -10 3 -22z" />
    <glyph glyph-name="less" unicode="&#x3c;" horiz-adv-x="542" 
d="M46 305v81l413 178v-97l-286 -122l286 -125v-96z" />
    <glyph glyph-name="equal" unicode="=" horiz-adv-x="541" 
d="M71 377v90h399v-90h-399zM71 188v92h399v-92h-399z" />
    <glyph glyph-name="greater" unicode="&#x3e;" horiz-adv-x="542" 
d="M496 386v-81l-413 -181v96l286 126l-286 121v97z" />
    <glyph glyph-name="question" unicode="?" horiz-adv-x="503" 
d="M306 162h-114q-2 53 10.5 94t34 67.5t43.5 48.5t42.5 48.5t27.5 55.5q8 59 -24 92.5t-84 33.5q-39 0 -71 -26t-38 -69h-97q4 97 59.5 147t145.5 50q83 2 145.5 -41t74.5 -113q6 -38 2 -66q-4 -36 -22.5 -67.5t-41 -55.5t-44.5 -50.5t-36 -64t-13 -84.5zM249 -13
q-28 0 -47.5 17t-19.5 44t19.5 44t47.5 17t46.5 -17t18.5 -44t-18.5 -44t-46.5 -17z" />
    <glyph glyph-name="at" unicode="@" horiz-adv-x="908" 
d="M580 77l1 15q-24 -47 -69.5 -74.5t-97.5 -28.5q-104 0 -156 71.5t-42 177.5q12 120 92.5 186.5t194.5 64.5q48 0 104 -21t91 -53l-25 -287q-3 -34 1.5 -50t22.5 -17q42 0 71 57.5t33 123.5q14 156 -68 246.5t-238 90.5q-152 0 -257.5 -95t-119.5 -246q-9 -98 20 -174
t86 -115t136.5 -46.5t171.5 30.5l-6 -64q-104 -39 -195 -26.5t-157 59.5t-99.5 135.5t-22.5 200.5q16 179 142 293.5t307 114.5q183 0 284 -110.5t83 -293.5q-10 -109 -70 -184t-141 -75q-85 0 -77 94zM577 236l12 128q-43 33 -107 35q-61 -2 -106 -45t-51 -116
q-6 -65 22 -109t91 -44q60 0 96 44.5t43 106.5z" />
    <glyph glyph-name="A" unicode="A" horiz-adv-x="703" 
d="M511 145h-320l-68 -145h-122v15l324 690h54l322 -690v-15h-121zM352 523l-123 -280h245z" />
    <glyph glyph-name="B" unicode="B" horiz-adv-x="669" 
d="M591 503q0 -95 -82 -135q113 -39 113 -162q0 -94 -60 -150t-162 -56h-313v700h284q99 0 159.5 -50.5t60.5 -146.5zM363 599h-160v-193h160q113 0 114 94q0 50 -30.5 74.5t-83.5 24.5zM380 311h-177v-209h190q50 0 81 27.5t33 76.5q0 53 -36 83q-30 22 -91 22z" />
    <glyph glyph-name="C" unicode="C" horiz-adv-x="760" 
d="M46 349q0 164 103.5 261.5t252.5 97.5q71 0 134.5 -25t113.5 -79t68 -130h-112q-51 126 -205 128q-107 0 -172.5 -70.5t-65.5 -182.5q0 -106 66.5 -178t171.5 -72q74 0 129.5 36t78.5 104h113q-25 -121 -115.5 -183.5t-205.5 -62.5q-149 0 -252 96.5t-103 259.5z" />
    <glyph glyph-name="D" unicode="D" horiz-adv-x="730" 
d="M88 699h253q157 0 249.5 -101.5t92.5 -246.5q0 -146 -92 -248.5t-250 -102.5h-253v699zM204 106h135q105 0 166.5 70.5t61.5 173.5t-61.5 173.5t-165.5 70.5h-136v-488z" />
    <glyph glyph-name="E" unicode="E" horiz-adv-x="577" 
d="M513 700v-102h-309v-185h292v-103h-292v-204h315v-106h-432v700h426z" />
    <glyph glyph-name="F" unicode="F" horiz-adv-x="548" 
d="M481 375v-103h-278v-272h-116v700h422v-102h-306v-223h278z" />
    <glyph glyph-name="G" unicode="G" horiz-adv-x="774" 
d="M46 351q0 162 103.5 260t250.5 98q112 0 197.5 -54.5t116.5 -164.5h-115q-55 114 -200 114q-107 0 -171 -72.5t-64 -180.5q0 -112 64 -183t171 -71q200 0 226 182h-218v99h328q5 -111 -25 -190q-39 -97 -121.5 -147t-189.5 -50q-149 0 -251 98t-102 262z" />
    <glyph glyph-name="H" unicode="H" horiz-adv-x="727" 
d="M640 0h-117v312h-320v-312h-116v700h116v-281h320v281h117v-700z" />
    <glyph glyph-name="I" unicode="I" horiz-adv-x="418" 
d="M267 94h111v-94h-338v94h111v513h-102v93h320v-93h-102v-513z" />
    <glyph glyph-name="J" unicode="J" horiz-adv-x="635" 
d="M555 700v-467q0 -112 -75.5 -177.5t-189.5 -65.5q-113 0 -186 65.5t-73 177.5v79h109v-77q0 -67 41 -104t109 -37t108.5 37t40.5 104v364h-148v101h264z" />
    <glyph glyph-name="K" unicode="K" horiz-adv-x="685" 
d="M204 700v-310q104 0 137 17q28 15 45 55.5t35 110.5q21 76 72 110.5t151 15.5v-80q-54 4 -77.5 -11.5t-38.5 -68.5q-38 -139 -91 -187l230 -335v-17h-132l-200 306q-30 -11 -131 -11v-295h-117v700h117z" />
    <glyph glyph-name="L" unicode="L" horiz-adv-x="521" 
d="M204 700v-595h301v-105h-418v700h117z" />
    <glyph glyph-name="M" unicode="M" horiz-adv-x="829" 
d="M415 340l284 362h43v-702h-117v438l-202 -259h-16l-203 259v-438h-117v702h43z" />
    <glyph glyph-name="N" unicode="N" horiz-adv-x="749" 
d="M622 -1l-428 477l8 -222v-254h-115v702h42l425 -471l-8 214v255h116v-701h-40z" />
    <glyph glyph-name="O" unicode="O" horiz-adv-x="805" 
d="M759 350q0 -160 -100 -261t-258 -101q-150 0 -252.5 98.5t-102.5 263.5t104 263.5t253 98.5t252.5 -98.5t103.5 -263.5zM164 350q0 -118 68 -185t171 -67t171.5 67t68.5 185q0 116 -68.5 184.5t-170.5 68.5q-103 0 -171.5 -67.5t-68.5 -185.5z" />
    <glyph glyph-name="P" unicode="P" horiz-adv-x="652" 
d="M204 0h-117v700h290q113 0 180 -71.5t67 -175.5q0 -102 -67.5 -172.5t-179.5 -70.5h-173v-210zM202 312h175q59 0 97 41.5t38 102.5q0 62 -37.5 102.5t-97.5 40.5h-175v-287z" />
    <glyph glyph-name="Q" unicode="Q" horiz-adv-x="804" 
d="M758 11v-18h-106l-41 63q-94 -67 -213 -65q-148 0 -250 100t-102 260q0 161 99.5 261.5t257.5 100.5q148 0 252 -98.5t104 -263.5q0 -137 -72 -227zM164 351q0 -118 68 -185t171 -67q104 0 171.5 65.5t67.5 186.5q0 119 -68.5 186t-171.5 67q-101 0 -169.5 -68.5
t-68.5 -184.5z" />
    <glyph glyph-name="R" unicode="R" horiz-adv-x="682" 
d="M472 262l178 -245v-17h-118l-174 244h-154v-244h-117v700h289q111 0 177 -65.5t66 -162.5q0 -72 -40 -129t-107 -81zM202 340h173q57 0 94 37t37 94q0 55 -37 91.5t-94 36.5h-173v-259z" />
    <glyph glyph-name="S" unicode="S" horiz-adv-x="647" 
d="M45 199h114q2 -37 28.5 -62.5t62 -35.5t76.5 -10q67 0 114.5 25t47.5 84q0 26 -11.5 45.5t-26 30t-42.5 18t-45.5 10t-50.5 5.5q-255 22 -255 192q0 102 76.5 157t186.5 55q109 0 184.5 -51t77.5 -152h-110q-2 35 -27 58.5t-56.5 32t-69.5 8.5q-57 0 -102 -25.5
t-45 -79.5q0 -23 10 -40t22 -26t37.5 -16.5t41.5 -10.5t49 -7q50 -6 84 -12t72.5 -20.5t61.5 -35.5t38.5 -55.5t15.5 -81.5q0 -55 -24.5 -97.5t-65 -66.5t-87.5 -36t-99 -12q-71 -2 -133.5 20t-105.5 72t-44 120z" />
    <glyph glyph-name="T" unicode="T" horiz-adv-x="558" 
d="M222 597h-203v103h520v-103h-203v-597h-114v597z" />
    <glyph glyph-name="U" unicode="U" horiz-adv-x="705" 
d="M354 -9q-118 0 -196 65.5t-78 178.5v465h116v-462q0 -67 44.5 -105t113.5 -38q68 0 112 38t44 105v462h115v-465q0 -113 -77.5 -178.5t-193.5 -65.5z" />
    <glyph glyph-name="V" unicode="V" horiz-adv-x="669" 
d="M334 199h3l92 254l101 247h123v-17l-294 -689h-48l-297 689v17h124l100 -242z" />
    <glyph glyph-name="W" unicode="W" horiz-adv-x="976" 
d="M464 688h52l168 -475h2l70 251l74 236h123v-17l-233 -688h-60l-169 449h-2l-169 -449h-64l-232 688v17h121l76 -236l73 -252h2z" />
    <glyph glyph-name="X" unicode="X" horiz-adv-x="648" 
d="M322 441h3l81 134l81 125h124v-17l-217 -313l242 -354v-16h-124l-98 152l-88 143h-4l-86 -140l-101 -155h-124v16l243 354l-218 313v17h125l82 -128z" />
    <glyph glyph-name="Y" unicode="Y" horiz-adv-x="630" 
d="M313 383h4l87 166l91 151h124v-17l-246 -399v-284h-116v284l-247 399v17h125l94 -156z" />
    <glyph glyph-name="Z" unicode="Z" horiz-adv-x="598" 
d="M560 699v-17l-272 -434l-103 -145h377v-103h-541v16l235 374l140 208h-345v102z" />
    <glyph glyph-name="bracketleft" unicode="[" horiz-adv-x="315" 
d="M276 763v-89h-96v-759h96v-98h-198v946h198z" />
    <glyph glyph-name="backslash" unicode="\" horiz-adv-x="509" 
d="M142 700l338 -699h-112l-339 699h113z" />
    <glyph glyph-name="bracketright" unicode="]" horiz-adv-x="315" 
d="M39 674v89h198v-946h-198v98h96v759h-96z" />
    <glyph glyph-name="asciicircum" unicode="^" horiz-adv-x="539" 
d="M229 704h79l180 -295h-97l-123 200l-120 -200h-97z" />
    <glyph glyph-name="underscore" unicode="_" horiz-adv-x="616" 
d="M64 -102v93h488v-93h-488z" />
    <glyph glyph-name="grave" unicode="`" horiz-adv-x="336" 
d="M256 575v-11h-91l-88 110v10l100 38z" />
    <glyph glyph-name="a" unicode="a" horiz-adv-x="549" 
d="M384 81q-23 -45 -72 -67.5t-105 -22.5q-70 0 -121.5 41t-51.5 109q-2 83 50.5 126.5t136.5 43.5q79 0 143 -36v48q0 44 -34.5 66t-82 21t-91.5 -10t-69 -22l-16 78q74 38 178 38q98 0 159.5 -40.5t61.5 -133.5v-190q0 -23 0.5 -31.5t5 -21t15 -15.5t29.5 -1l2 -62
q-39 -6 -69 -6t-49 21.5t-20 66.5zM364 165v40q-59 35 -125 33q-42 -1 -70 -25t-28 -66q0 -34 26 -52t62 -18q48 0 87.5 22.5t47.5 65.5z" />
    <glyph glyph-name="b" unicode="b" horiz-adv-x="587" 
d="M68 25v706h109v-278q69 36 139 36q97 0 163.5 -70t66.5 -183q0 -130 -77.5 -191t-197.5 -60q-104 2 -203 40zM175 359v-269q56 -16 107 -16q70 1 112.5 40t42.5 122q0 72 -39 113t-99 43q-66 2 -124 -33z" />
    <glyph glyph-name="c" unicode="c" horiz-adv-x="565" 
d="M528 322h-101q-15 38 -49.5 57.5t-78.5 19.5q-60 0 -105 -42t-45 -114q0 -74 44.5 -115.5t103.5 -41.5q43 0 78.5 22.5t51.5 65.5h104q-18 -87 -84.5 -134.5t-151.5 -47.5q-103 0 -178.5 66.5t-75.5 184.5q0 79 38 138t94 86.5t121 28.5q84 1 149.5 -44.5t84.5 -129.5z
" />
    <glyph glyph-name="d" unicode="d" horiz-adv-x="602" 
d="M423 74v14q-44 -98 -160 -98q-103 -2 -162.5 71.5t-59.5 180.5q0 109 66.5 178t161.5 69q71 0 134 -37v280h109v-582q0 -51 5 -60q9 -16 45 -16l2 -75q-141 -24 -141 75zM405 221v135q-57 40 -119 38q-59 -1 -98 -41t-39 -111q0 -66 33.5 -110.5t97.5 -44.5q55 0 90 39
t35 95z" />
    <glyph glyph-name="e" unicode="e" 
d="M291 493q125 0 181 -75t32 -197h-356q0 -64 44.5 -102t112.5 -38q96 -5 175 30l14 -81q-92 -41 -182 -41q-121 -2 -198 70t-73 192q2 115 74 178.5t176 63.5zM290 409q-118 0 -140 -111h266q2 52 -34.5 81.5t-91.5 29.5z" />
    <glyph glyph-name="f" unicode="f" horiz-adv-x="394" 
d="M112 0v398h-89v82h91v65q0 69 25 113.5t67.5 61.5t94 15t110.5 -21l-12 -76q-33 14 -64 16.5t-57.5 -6t-42.5 -35.5t-16 -70v-63h163v-82h-163v-398h-107z" />
    <glyph glyph-name="g" unicode="g" horiz-adv-x="579" 
d="M406 -28v51q-71 -40 -146 -40q-95 1 -156.5 69.5t-61.5 184.5q0 125 76 189t194 62q97 -1 199 -45v-473q0 -119 -65.5 -179.5t-166.5 -61.5q-103 -2 -203 54l16 88q106 -51 184 -50q130 2 130 151zM404 115v264q-51 18 -102 18q-71 0 -110.5 -40.5t-40.5 -119.5
q0 -76 37.5 -117.5t96.5 -42.5q58 -2 119 38z" />
    <glyph glyph-name="h" unicode="h" horiz-adv-x="591" 
d="M526 0h-110v285q1 58 -29 89t-83 32q-54 0 -89 -34.5t-35 -92.5v-279h-109v731h109v-308q52 70 155 70q96 0 143.5 -55.5t47.5 -152.5v-285z" />
    <glyph glyph-name="i" unicode="i" horiz-adv-x="253" 
d="M61 631q0 30 19.5 47t46.5 17t46 -17t19 -47t-19 -47t-45 -18q-27 -1 -47 16.5t-20 48.5zM181 477v-477h-109v477h109z" />
    <glyph glyph-name="j" unicode="j" horiz-adv-x="252" 
d="M72 480h108v-537q0 -122 -54.5 -168t-166.5 -26l4 82q66 -9 87.5 17t21.5 96v536zM60 631q0 30 19 46.5t45 17.5q27 1 47 -16t20 -48q0 -29 -19 -45.5t-45 -17.5q-27 -1 -47 16t-20 47z" />
    <glyph glyph-name="k" unicode="k" horiz-adv-x="546" 
d="M179 294h50q164 0 164 189h103q5 -176 -126 -236l150 -236v-11h-109l-133 212q-19 -5 -51 -5h-48v-207h-108v731h108v-437z" />
    <glyph glyph-name="l" unicode="l" horiz-adv-x="288" 
d="M66 732h108v-559q0 -61 21.5 -81.5t82.5 -10.5l4 -84q-115 -19 -165.5 19.5t-50.5 155.5v560z" />
    <glyph glyph-name="m" unicode="m" horiz-adv-x="899" 
d="M834 0h-110v282q1 56 -23 89.5t-70 32.5q-51 -1 -81.5 -34.5t-31.5 -90.5v-279h-107v279q0 58 -25 91.5t-74 32.5q-52 -1 -84.5 -35t-32.5 -90v-278h-109v345q0 45 -8.5 59t-42.5 12l-1 67q28 7 52 8.5t48 -4t38 -27t13 -57.5q19 42 65.5 65.5t98.5 23.5q117 0 146 -91
q19 45 67.5 68t108.5 23q168 0 163 -210v-282z" />
    <glyph glyph-name="n" unicode="n" horiz-adv-x="606" 
d="M542 0h-110v283q1 55 -31 88t-82 34q-52 0 -87 -36.5t-35 -94.5v-274h-110v342q0 46 -8 59t-43 11v71q37 5 70.5 7t57 -18.5t23.5 -63.5q19 43 65 63.5t99 20.5q94 0 142.5 -57.5t48.5 -151.5v-283z" />
    <glyph glyph-name="o" unicode="o" horiz-adv-x="591" 
d="M550 243q0 -119 -76 -185.5t-179 -66.5t-178.5 66.5t-75.5 185.5q0 118 74 183.5t176 67.5q67 1 124.5 -25.5t96 -85.5t38.5 -140zM149 243q0 -74 44 -115.5t104 -40.5q59 1 101.5 42t42.5 114q0 74 -45 115.5t-105 39.5q-59 -2 -100.5 -42.5t-41.5 -112.5z" />
    <glyph glyph-name="p" unicode="p" horiz-adv-x="600" 
d="M176 404q38 91 165 91q102 0 160 -73t58 -178q0 -114 -71 -184t-170 -65q-64 3 -122 38v-281h-109v576q0 54 -6 65q-9 18 -45 18l-1 75q141 28 141 -82zM194 264v-135q60 -42 123 -39q57 2 94.5 42.5t37.5 111.5q0 64 -34 109t-96 45q-55 0 -90 -39t-35 -95z" />
    <glyph glyph-name="q" unicode="q" horiz-adv-x="584" 
d="M516 455v-706h-109v279q-68 -38 -139 -36q-95 2 -158.5 71t-63.5 181q0 128 72.5 189.5t186.5 63.5q101 1 211 -42zM409 126v261q-54 17 -95 17q-71 1 -114.5 -37.5t-43.5 -122.5q0 -74 38.5 -115t96.5 -42q59 -2 118 39z" />
    <glyph glyph-name="r" unicode="r" horiz-adv-x="452" 
d="M189 412q14 40 54.5 63t87.5 23q63 2 111 -34l-27 -94q-44 29 -96 29t-87.5 -32t-35.5 -88v-279h-108v350q0 20 -1 29t-5.5 18.5t-15.5 12.5t-30 2l-1 74q60 14 105.5 -3t48.5 -71z" />
    <glyph glyph-name="s" unicode="s" horiz-adv-x="508" 
d="M37 142h107q2 -35 34.5 -54t75.5 -19q111 0 115 74q0 31 -27 44.5t-81 20.5q-109 14 -148 33q-63 30 -65 100q0 73 60 112t145 39q88 0 147.5 -38t57.5 -107h-96q0 33 -32 48t-77 15q-41 0 -71 -18.5t-28 -48.5q1 -28 26.5 -39t88.5 -19q37 -5 60 -9t52.5 -14.5t46 -24.5
t28.5 -38.5t12 -57.5q0 -75 -61 -114t-149 -39q-92 0 -153.5 35.5t-67.5 118.5z" />
    <glyph glyph-name="t" unicode="t" horiz-adv-x="432" 
d="M226 630v-149h167v-78h-167v-217q0 -158 176 -96l11 -82q-63 -20 -115.5 -20.5t-93 18.5t-63 64t-22.5 114v219l-98 7v71h98l11 149h96z" />
    <glyph glyph-name="u" unicode="u" horiz-adv-x="597" 
d="M401 482h109v-344q0 -46 9 -59.5t42 -9.5l1 -71q-24 -4 -40 -6t-39 -0.5t-36.5 10t-24 27.5t-10.5 49q-44 -86 -167 -86q-94 0 -137 57.5t-43 153.5v279h110v-279q-1 -57 27.5 -90.5t76.5 -33.5q53 0 87.5 35t34.5 92v276z" />
    <glyph glyph-name="v" unicode="v" horiz-adv-x="540" 
d="M292 -5h-43l-235 475v12h118l62 -141l74 -180h2l76 179l63 142h116v-12z" />
    <glyph glyph-name="w" unicode="w" horiz-adv-x="774" 
d="M258 -5h-49l-190 475v12h117l61 -166l45 -132h2l115 287h54l115 -288h3l46 133q11 32 32.5 90.5t27.5 75.5h118v-12l-191 -475h-49l-129 291z" />
    <glyph glyph-name="x" unicode="x" horiz-adv-x="509" 
d="M258 188h-3l-59 -92l-72 -96h-110v12l179 244l-152 214v12h104l55 -76l53 -82h3l52 80l57 78h110v-12l-158 -221l173 -237v-12h-105l-71 98z" />
    <glyph glyph-name="y" unicode="y" 
d="M528 470l-209 -511q-20 -50 -35.5 -81.5t-40 -64.5t-52 -46.5t-67 -13t-88.5 21.5l13 79q41 -21 72 -13t50.5 31t34.5 66l23 59l-217 473v12h117l71 -168l79 -212h3l73 211l64 169h109v-12z" />
    <glyph glyph-name="z" unicode="z" horiz-adv-x="469" 
d="M30 0v22l140 219l105 152h-230v89h387v-14l-149 -231l-98 -143h246v-94h-401z" />
    <glyph glyph-name="braceleft" unicode="{" horiz-adv-x="314" 
d="M271 773v-79q-41 0 -59.5 -14t-18.5 -53v-197q0 -102 -64 -125q64 -25 64 -128v-208q0 -39 19 -52t59 -10v-89q-48 0 -76 4t-54.5 18t-38 44.5t-11.5 80.5v203q0 91 -55 97v81q33 3 44 28.5t11 65.5v191q0 48 12 77.5t39 43t55 17.5t74 4z" />
    <glyph glyph-name="bar" unicode="|" horiz-adv-x="261" 
d="M81 705h99v-788h-99v788z" />
    <glyph glyph-name="braceright" unicode="}" horiz-adv-x="314" 
d="M43 694v79q46 0 74 -4t55 -17.5t39 -43t12 -77.5v-191q0 -40 11 -65.5t44 -28.5v-81q-55 -6 -55 -97v-203q0 -50 -11.5 -80.5t-38 -44.5t-54.5 -18t-76 -4v89q40 -3 59 10t19 52v208q0 101 68 128q-68 25 -68 125v197q0 39 -18.5 53t-59.5 14z" />
    <glyph glyph-name="asciitilde" unicode="~" horiz-adv-x="618" 
d="M122 277l-67 35q19 58 61.5 88t94.5 29t105 -31q28 -18 50 -27.5t48 -13.5t47 10.5t35 47.5l72 -35q-65 -182 -258 -82q-31 16 -53.5 24.5t-49.5 11.5t-48.5 -11.5t-36.5 -45.5z" />
    <glyph glyph-name="exclamdown" unicode="&#xa1;" horiz-adv-x="260" 
d="M130 489q28 0 47 -17t19 -44q0 -28 -18.5 -44.5t-47.5 -16.5q-28 0 -47 16.5t-19 44.5q0 27 19 44t47 17zM185 314l9 -540h-126l6 540h111z" />
    <glyph glyph-name="cent" unicode="&#xa2;" horiz-adv-x="599" 
d="M544 320l-101 -3q-19 45 -62 64l-100 -292q52 -13 100.5 11t65.5 78l103 -2q-21 -105 -110.5 -153.5t-189.5 -25.5l-26 -76h-51l30 90q-64 28 -104.5 87.5t-40.5 143.5q0 91 49 154.5t119.5 86t142.5 7.5l26 74h49l-30 -88q108 -45 130 -156zM238 109l99 287
q-65 9 -118 -33t-53 -121q0 -89 72 -133z" />
    <glyph glyph-name="sterling" unicode="&#xa3;" horiz-adv-x="665" 
d="M48 314v14h-1v61h84q-32 152 41 235.5t209 83.5q108 2 207 -54l-37 -87q-33 23 -79 35t-91 9q-104 -6 -134 -62.5t-9 -159.5h226v-75h-217q13 -70 5 -116q-9 -58 -35 -94q26 13 59.5 12.5t61 -7.5t62 -15t57.5 -8q37 0 54 21.5t14 77.5h92q21 -194 -138 -194
q-26 0 -73 10t-84 18.5t-77 5t-63 -25.5h-133v11q47 44 68 88t23 103q2 62 -7 113h-85z" />
    <glyph glyph-name="currency" unicode="&#xa4;" horiz-adv-x="524" 
d="M120 536l45 -45q44 26 97 26t97 -26l45 45l58 -56l-47 -47q24 -40 24 -93q0 -51 -24 -94l47 -46l-58 -56l-45 45q-44 -26 -97 -26t-97 26l-45 -45l-58 56l47 47q-23 38 -23 93q0 52 23 93l-47 47zM173 340q0 -44 28 -69t61.5 -25t61.5 25t28 69t-28 69.5t-61.5 25.5
t-61.5 -25.5t-28 -69.5z" />
    <glyph glyph-name="yen" unicode="&#xa5;" horiz-adv-x="591" 
d="M352 0h-112v126h-135v74h135v53h-135v73h110l-181 358v16h125l72 -163l63 -160l66 163l72 160h125v-16l-182 -358h110v-73h-133v-53h133v-74h-133v-126z" />
    <glyph glyph-name="brokenbar" unicode="&#xa6;" horiz-adv-x="263" 
d="M82 705h99v-314h-99v314zM82 301h99v-318h-99v318z" />
    <glyph glyph-name="section" unicode="&#xa7;" horiz-adv-x="645" 
d="M409 192q32 13 53 37t22 55q0 46 -45 67t-132 28q-7 1 -25.5 3t-28.5 4q-84 -30 -80 -91q2 -42 34.5 -62t94.5 -27q89 -10 107 -14zM157 417q-91 39 -91 122q0 87 71.5 133.5t175.5 46.5t177.5 -44t75.5 -130q-20 0 -53 -0.5t-53 -0.5q-2 45 -45.5 65.5t-99.5 20.5
q-52 0 -95 -22t-43 -67q0 -22 10.5 -36.5t33.5 -23t45.5 -12t59.5 -7.5q50 -5 81.5 -10t70 -17t60 -29.5t36.5 -47t15 -70.5q-1 -84 -82 -130q83 -41 82 -131q0 -88 -75.5 -134.5t-188.5 -46.5q-110 0 -190 46.5t-82 136.5h107q1 -32 28.5 -54.5t63 -31t72.5 -6.5
q56 0 105 23.5t49 66.5q0 24 -13 42t-29 27t-46 15.5t-46.5 8t-47.5 3.5q-9 1 -14 1q-212 16 -216 160q-4 87 91 133z" />
    <glyph glyph-name="dieresis" unicode="&#xa8;" horiz-adv-x="509" 
d="M375 593q-27 0 -45.5 16t-18.5 42q0 27 18 43t46 16t46 -16t18 -43q0 -26 -18.5 -42t-45.5 -16zM131 593q-27 0 -45.5 16t-18.5 42q0 27 18 43t46 16q27 0 45.5 -16.5t18.5 -42.5t-18.5 -42t-45.5 -16z" />
    <glyph glyph-name="copyright" unicode="&#xa9;" horiz-adv-x="791" 
d="M737 347q0 -83 -29.5 -150t-77.5 -108.5t-109 -64t-125.5 -22.5t-125.5 22.5t-109 64t-77.5 108.5t-29.5 150t29.5 150t77.5 108t109 63.5t125.5 22.5t125.5 -22.5t109 -63.5t77.5 -108t29.5 -150zM550 395l-65 -2q-14 42 -57.5 53t-81.5 -17t-38 -83q0 -48 28 -74.5
t70 -26.5q27 0 49.5 15.5t31.5 44.5l66 -1q-13 -63 -64.5 -95t-107 -27.5t-100 48.5t-44.5 116q0 58 29 99.5t71.5 55t86.5 10t80 -35t46 -80.5zM135 347q0 -66 22.5 -119.5t59 -86t83.5 -50t95.5 -17.5t95.5 17.5t83.5 50.5t59 86t22.5 119t-22.5 119.5t-59 86t-83.5 50.5
t-95.5 18t-95.5 -18t-83.5 -50.5t-59 -86t-22.5 -119.5z" />
    <glyph glyph-name="ordfeminine" unicode="&#xaa;" horiz-adv-x="504" 
d="M325 403q-15 -30 -51 -45t-76 -15q-54 0 -89.5 26.5t-39.5 81.5q-4 59 38 92t103 33q60 -2 101 -26v24q0 37 -28 53t-68 16q-61 0 -100 -23l-13 57q53 29 125 29q75 0 121.5 -32t46.5 -102v-146q0 -19 6.5 -27t28.5 -6l1 -47q-101 -18 -105 42q0 12 -1 15zM92 203v71h327
v-71h-327zM310 466v31q-41 23 -87 23q-31 -2 -51.5 -18.5t-19.5 -42.5q0 -26 17 -39.5t45 -13.5q33 0 61.5 15.5t34.5 44.5z" />
    <glyph glyph-name="guillemotleft" unicode="&#xab;" horiz-adv-x="507" 
d="M256 554l-101 -208l101 -206l-65 -26l-143 232l143 234zM448 554l-101 -208l101 -206l-65 -26l-143 232l143 234z" />
    <glyph glyph-name="logicalnot" unicode="&#xac;" horiz-adv-x="570" 
d="M71 292v94h422v-256h-88v162h-334z" />
    <glyph glyph-name="registered" unicode="&#xae;" horiz-adv-x="788" 
d="M735 350q0 -83 -29.5 -150t-77 -108.5t-109 -64t-125 -22.5t-125 22.5t-109 64t-77 108.5t-29.5 150t29.5 150t77 108t109 63.5t125 22.5t125 -22.5t109 -63.5t77 -108t29.5 -150zM469 307l78 -108v-11h-69l-74 110h-57v-110h-66v326h139q53 0 85.5 -29t32.5 -82
q0 -35 -18 -61t-51 -35zM347 455v-102h67q25 0 41.5 14t16.5 37q0 22 -16 36.5t-42 14.5h-67zM134 350q0 -66 22.5 -119.5t59 -86t83.5 -50t95.5 -17.5t95.5 17.5t83.5 50.5t59 86t22.5 119t-22.5 119.5t-59 86t-83.5 50.5t-95.5 18t-95.5 -18t-83.5 -50.5t-59 -86
t-22.5 -119.5z" />
    <glyph glyph-name="macron" unicode="&#xaf;" horiz-adv-x="499" 
d="M90 610v88h309v-88h-309z" />
    <glyph glyph-name="degree" unicode="&#xb0;" horiz-adv-x="439" 
d="M391 549q0 -44 -19 -79t-49 -53t-66.5 -26t-73.5 0t-67 26t-49 53t-19 79t19 78.5t49 52.5t67 26.5t73.5 0t66.5 -26.5t49 -52.5t19 -78.5zM128 549q0 -56 45 -79t90 0t45 79t-45 79t-90 0t-45 -79z" />
    <glyph glyph-name="plusminus" unicode="&#xb1;" horiz-adv-x="522" 
d="M79 320v90h139v137h87v-137h140v-90h-140v-119h-87v119h-139zM72 28v94h377v-94h-377z" />
    <glyph glyph-name="twosuperior" unicode="&#xb2;" horiz-adv-x="414" 
d="M351 413v-73h-289v18l167 211q36 41 27.5 80.5t-57.5 39.5q-57 0 -61 -55h-71q0 60 36.5 94t101.5 34q64 0 99 -34.5t33 -85t-38 -95.5l-105 -134h157z" />
    <glyph glyph-name="threesuperior" unicode="&#xb3;" horiz-adv-x="397" 
d="M49 461h74q2 -26 22.5 -41t50.5 -15q33 0 53 19t20 49q0 46 -38 60.5t-89 7.5v12l90 134h-166v68h279v-12l-101 -146q50 -6 78.5 -41.5t28.5 -81.5q0 -59 -41.5 -100t-112.5 -41q-63 0 -104.5 34.5t-43.5 93.5z" />
    <glyph glyph-name="acute" unicode="&#xb4;" horiz-adv-x="303" 
d="M62 558v11l79 147l100 -38v-10l-88 -110h-91z" />
    <glyph glyph-name="mu" unicode="&#xb5;" horiz-adv-x="578" 
d="M522 0h-105v81q-11 -40 -43 -63.5t-76 -23.5q-82 0 -117 69v-313h-105v733h105v-285q0 -57 30 -89t84 -32q53 -1 87.5 34t34.5 92v280h105v-483z" />
    <glyph glyph-name="mu" unicode="&#x3bc;" horiz-adv-x="578" 
d="M522 0h-105v81q-11 -40 -43 -63.5t-76 -23.5q-82 0 -117 69v-313h-105v733h105v-285q0 -57 30 -89t84 -32q53 -1 87.5 34t34.5 92v280h105v-483z" />
    <glyph glyph-name="paragraph" unicode="&#xb6;" horiz-adv-x="762" 
d="M672 -207h-109v807h-183v-807h-108v385q-73 2 -128.5 41.5t-81.5 97t-26.5 125t24.5 124.5t83.5 95t139.5 38h389v-906z" />
    <glyph glyph-name="periodcentered" unicode="&#xb7;" horiz-adv-x="263" 
d="M131 296q-28 0 -47.5 17.5t-19.5 44.5q0 29 19 46t48 17q30 0 49 -17t19 -46q0 -27 -19.5 -44.5t-48.5 -17.5z" />
    <glyph glyph-name="cedilla" unicode="&#xb8;" horiz-adv-x="392" 
d="M145 -76l23 89h82l-15 -61q48 -4 68 -37t7 -77q-13 -41 -54 -58t-87.5 -10.5t-80.5 30.5l5 60q28 -23 71.5 -26.5t57.5 26.5q9 29 -19.5 48t-57.5 16z" />
    <glyph glyph-name="onesuperior" unicode="&#xb9;" horiz-adv-x="346" 
d="M58 340v67h77v282h-67v67h150v-349h78v-67h-238z" />
    <glyph glyph-name="ordmasculine" unicode="&#xba;" horiz-adv-x="535" 
d="M471 533q0 -47 -17.5 -85t-46.5 -61t-66 -35.5t-75.5 -12.5t-75.5 12.5t-66 36t-46.5 61t-17.5 84.5q0 53 22.5 94.5t59 63t80.5 31.5t87.5 0t80 -31.5t59 -63t22.5 -94.5zM152 533q0 -55 35.5 -86t78.5 -31t78.5 31t35.5 86q0 44 -23.5 74t-57 37t-67 0t-57 -37
t-23.5 -74zM69 178v90h400v-90h-400z" />
    <glyph glyph-name="guillemotright" unicode="&#xbb;" horiz-adv-x="507" 
d="M352 346l-101 208l65 26l143 -234l-143 -232l-65 26zM160 346l-101 208l65 26l143 -234l-143 -232l-65 26z" />
    <glyph glyph-name="onequarter" unicode="&#xbc;" horiz-adv-x="924" 
d="M772 150v81q3 29 5 87h-1l-121 -168h117zM845 83v-83h-78v83h-209v38l198 295h89v-263h42v-70h-42zM249 1l338 699h98l-339 -699h-97zM48 292v67h76v281h-67v67h150v-348h78v-67h-237z" />
    <glyph glyph-name="onehalf" unicode="&#xbd;" horiz-adv-x="940" 
d="M234 0l352 700h98l-352 -700h-98zM48 292v67h76v281h-67v67h150v-348h78v-67h-237zM900 73v-73h-289v18l167 211q36 41 27.5 80.5t-57.5 39.5q-57 0 -61 -55h-71q0 60 36.5 94t101.5 34q64 0 99 -34.5t33 -85t-38 -95.5l-105 -134h157z" />
    <glyph glyph-name="threequarters" unicode="&#xbe;" horiz-adv-x="947" 
d="M795 150v81q3 29 5 87h-1l-121 -168h117zM868 83v-83h-78v83h-209v38l198 295h89v-263h42v-70h-42zM272 1l338 699h98l-339 -699h-97zM40 410h74q2 -26 22.5 -41t50.5 -15q33 0 53 19t20 49q0 46 -38 60.5t-89 7.5v12l90 134h-166v68h279v-12l-101 -146q50 -6 78.5 -41.5
t28.5 -81.5q0 -59 -41.5 -100t-112.5 -41q-63 0 -104.5 34.5t-43.5 93.5z" />
    <glyph glyph-name="questiondown" unicode="&#xbf;" horiz-adv-x="495" 
d="M193 331h114q2 -54 -11 -95t-34.5 -67t-44 -47.5t-42.5 -48t-26 -56.5q-8 -59 24 -92.5t84 -33.5q39 0 71 26t38 69h97q-4 -97 -59.5 -147t-145.5 -50q-84 -2 -146 41t-74 113q-6 38 -2 66q4 36 22.5 67.5t41 55.5t44.5 50.5t36 64t13 84.5zM250 506q28 0 47.5 -17
t19.5 -44t-19.5 -44t-47.5 -17t-46.5 17t-18.5 44t18.5 44t46.5 17z" />
    <glyph glyph-name="Agrave" unicode="&#xc0;" horiz-adv-x="703" 
d="M511 145h-320l-68 -145h-122v15l324 690h54l322 -690v-15h-121zM352 523l-123 -280h245zM396 774v-11h-91l-88 110v10l100 38z" />
    <glyph glyph-name="Aacute" unicode="&#xc1;" horiz-adv-x="703" 
d="M511 145h-320l-68 -145h-122v15l324 690h54l322 -690v-15h-121zM352 523l-123 -280h245zM305 769v11l79 147l100 -38v-10l-88 -110h-91z" />
    <glyph glyph-name="Acircumflex" unicode="&#xc2;" horiz-adv-x="703" 
d="M511 145h-320l-68 -145h-122v15l324 690h54l322 -690v-15h-121zM352 523l-123 -280h245zM547 746h-108l-87 85l-87 -85h-109v11l141 140h110l140 -141v-10z" />
    <glyph glyph-name="Atilde" unicode="&#xc3;" horiz-adv-x="703" 
d="M511 145h-320l-68 -145h-122v15l324 690h54l322 -690v-15h-121zM352 523l-123 -280h245zM242 758l-58 29q61 138 183 73q17 -10 29.5 -15t27 -6.5t26 7t20.5 27.5q32 -15 58 -28q-24 -65 -68 -85.5t-104 10.5q-84 50 -114 -12z" />
    <glyph glyph-name="Adieresis" unicode="&#xc4;" horiz-adv-x="703" 
d="M511 145h-320l-68 -145h-122v15l324 690h54l322 -690v-15h-121zM352 523l-123 -280h245zM473 738q-27 0 -45.5 16t-18.5 42q0 27 18 43t46 16t46 -16t18 -43q0 -26 -18.5 -42t-45.5 -16zM229 738q-27 0 -45.5 16t-18.5 42q0 27 18 43t46 16q27 0 45.5 -16.5t18.5 -42.5
t-18.5 -42t-45.5 -16z" />
    <glyph glyph-name="Aring" unicode="&#xc5;" horiz-adv-x="703" 
d="M288 804q0 -35 30.5 -50t61 0t30.5 50t-30.5 50t-61 0t-30.5 -50zM352 512l-123 -269h245zM511 145h-320l-68 -145h-122v15l318 676q-42 9 -69 38t-27 75q0 32 14 57.5t36 38.5t49 19t54 0t49 -19t36 -38.5t14 -57.5q0 -45 -25.5 -73.5t-65.5 -37.5l317 -678v-15h-121z
" />
    <glyph glyph-name="AE" unicode="&#xc6;" horiz-adv-x="824" 
d="M204 185l-89 -185h-113v17l341 681h415v-100h-261v-190h248v-94h-248v-217h272v-97h-372v185h-193zM400 605l-159 -325h156l4 325h-1z" />
    <glyph glyph-name="Ccedilla" unicode="&#xc7;" horiz-adv-x="761" 
d="M46 349q0 164 103.5 261.5t252.5 97.5q110 0 200.5 -61t116.5 -173h-114q-51 126 -204 128q-107 0 -172.5 -70.5t-65.5 -182.5q0 -106 66.5 -178t171.5 -72q74 0 129.5 36t78.5 104h113q-23 -106 -97.5 -167.5t-174.5 -74.5l-14 -56q48 -4 69 -34.5t8 -74.5
q-12 -40 -53.5 -57t-88 -10.5t-80.5 29.5l6 63q26 -22 69 -22.5t56 29.5q9 29 -17 43t-57 11l19 77q-137 10 -229 105.5t-92 248.5z" />
    <glyph glyph-name="Egrave" unicode="&#xc8;" horiz-adv-x="577" 
d="M513 700v-102h-309v-185h292v-103h-292v-204h315v-106h-432v700h426zM366 770v-11h-91l-88 110v10l100 38z" />
    <glyph glyph-name="Eacute" unicode="&#xc9;" horiz-adv-x="577" 
d="M513 700v-102h-309v-185h292v-103h-292v-204h315v-106h-432v700h426zM251 760v11l79 147l100 -38v-10l-88 -110h-91z" />
    <glyph glyph-name="Ecircumflex" unicode="&#xca;" horiz-adv-x="577" 
d="M513 700v-102h-309v-185h292v-103h-292v-204h315v-106h-432v700h426zM495 758h-104l-83 84l-83 -84h-104v11l135 138h105l134 -139v-10z" />
    <glyph glyph-name="Edieresis" unicode="&#xcb;" horiz-adv-x="577" 
d="M513 700v-102h-309v-185h292v-103h-292v-204h315v-106h-432v700h426zM424 765q-27 0 -45.5 16t-18.5 42q0 27 18 43t46 16t46 -16t18 -43q0 -26 -18.5 -42t-45.5 -16zM180 765q-27 0 -45.5 16t-18.5 42q0 27 18 43t46 16q27 0 45.5 -16.5t18.5 -42.5t-18.5 -42t-45.5 -16
z" />
    <glyph glyph-name="Igrave" unicode="&#xcc;" horiz-adv-x="418" 
d="M267 94h111v-94h-338v94h111v513h-102v93h320v-93h-102v-513zM252 768v-11h-91l-88 110v10l100 38z" />
    <glyph glyph-name="Iacute" unicode="&#xcd;" horiz-adv-x="418" 
d="M267 94h111v-94h-338v94h111v513h-102v93h320v-93h-102v-513zM155 765v11l79 147l100 -38v-10l-88 -110h-91z" />
    <glyph glyph-name="Icircumflex" unicode="&#xce;" horiz-adv-x="418" 
d="M267 94h111v-94h-338v94h111v513h-102v93h320v-93h-102v-513zM398 761h-103l-83 83l-83 -83h-105v11l135 136h106l133 -137v-10z" />
    <glyph glyph-name="Idieresis" unicode="&#xcf;" horiz-adv-x="418" 
d="M317 761q-27 0 -45.5 16t-18.5 42q0 27 18 43t46 16t46 -16t18 -43q0 -26 -18.5 -42t-45.5 -16zM104 761q-27 0 -45.5 16t-18.5 42q0 27 18 43t46 16q27 0 45.5 -16.5t18.5 -42.5t-18.5 -42t-45.5 -16zM267 94h111v-94h-338v94h111v513h-102v93h320v-93h-102v-513z" />
    <glyph glyph-name="Eth" unicode="&#xd0;" horiz-adv-x="738" 
d="M17 298v92h79v309h253q157 0 249.5 -101.5t92.5 -246.5q0 -146 -92 -248.5t-250 -102.5h-253v298h-79zM212 106h135q105 0 166.5 70.5t61.5 173.5t-61.5 173.5t-165.5 70.5h-136v-204h119v-92h-119v-192z" />
    <glyph glyph-name="Ntilde" unicode="&#xd1;" horiz-adv-x="749" 
d="M622 -1l-428 477l8 -222v-254h-115v702h42l425 -471l-8 214v255h116v-701h-40zM242 750l-58 29q61 138 183 73q17 -10 29.5 -15t27 -6.5t26 7t20.5 27.5q32 -15 58 -28q-24 -65 -68 -85.5t-104 10.5q-84 50 -114 -12z" />
    <glyph glyph-name="Ograve" unicode="&#xd2;" horiz-adv-x="805" 
d="M759 350q0 -160 -100 -261t-258 -101q-150 0 -252.5 98.5t-102.5 263.5t104 263.5t253 98.5t252.5 -98.5t103.5 -263.5zM164 350q0 -118 68 -185t171 -67t171.5 67t68.5 185q0 116 -68.5 184.5t-170.5 68.5q-103 0 -171.5 -67.5t-68.5 -185.5zM449 782v-11h-91l-88 110
v10l100 38z" />
    <glyph glyph-name="Oacute" unicode="&#xd3;" horiz-adv-x="805" 
d="M759 350q0 -160 -100 -261t-258 -101q-150 0 -252.5 98.5t-102.5 263.5t104 263.5t253 98.5t252.5 -98.5t103.5 -263.5zM164 350q0 -118 68 -185t171 -67t171.5 67t68.5 185q0 116 -68.5 184.5t-170.5 68.5q-103 0 -171.5 -67.5t-68.5 -185.5zM360 772v11l79 147l100 -38
v-10l-88 -110h-91z" />
    <glyph glyph-name="Ocircumflex" unicode="&#xd4;" horiz-adv-x="805" 
d="M759 350q0 -160 -100 -261t-258 -101q-150 0 -252.5 98.5t-102.5 263.5t104 263.5t253 98.5t252.5 -98.5t103.5 -263.5zM164 350q0 -118 68 -185t171 -67t171.5 67t68.5 185q0 116 -68.5 184.5t-170.5 68.5q-103 0 -171.5 -67.5t-68.5 -185.5zM604 766h-108l-87 85
l-87 -85h-109v11l141 140h110l140 -141v-10z" />
    <glyph glyph-name="Otilde" unicode="&#xd5;" horiz-adv-x="805" 
d="M759 350q0 -160 -100 -261t-258 -101q-150 0 -252.5 98.5t-102.5 263.5t104 263.5t253 98.5t252.5 -98.5t103.5 -263.5zM164 350q0 -118 68 -185t171 -67t171.5 67t68.5 185q0 116 -68.5 184.5t-170.5 68.5q-103 0 -171.5 -67.5t-68.5 -185.5zM297 771l-58 29
q61 138 183 73q17 -10 29.5 -15t27 -6.5t26 7t20.5 27.5q32 -15 58 -28q-24 -65 -68 -85.5t-104 10.5q-84 50 -114 -12z" />
    <glyph glyph-name="Odieresis" unicode="&#xd6;" horiz-adv-x="805" 
d="M759 350q0 -160 -100 -261t-258 -101q-150 0 -252.5 98.5t-102.5 263.5t104 263.5t253 98.5t252.5 -98.5t103.5 -263.5zM164 350q0 -118 68 -185t171 -67t171.5 67t68.5 185q0 116 -68.5 184.5t-170.5 68.5q-103 0 -171.5 -67.5t-68.5 -185.5zM517 762q-27 0 -45.5 16
t-18.5 42q0 27 18 43t46 16t46 -16t18 -43q0 -26 -18.5 -42t-45.5 -16zM273 762q-27 0 -45.5 16t-18.5 42q0 27 18 43t46 16q27 0 45.5 -16.5t18.5 -42.5t-18.5 -42t-45.5 -16z" />
    <glyph glyph-name="multiply" unicode="&#xd7;" horiz-adv-x="461" 
d="M61 451l66 66l104 -104l103 103l66 -66l-103 -103l102 -103l-66 -66l-102 103l-102 -102l-67 66l103 102z" />
    <glyph glyph-name="Oslash" unicode="&#xd8;" horiz-adv-x="802" 
d="M697 742l-66 -112q125 -100 125 -281q0 -165 -103 -262.5t-253 -97.5q-74 0 -135 27l-43 -72h-34.5h-41h-34.5v12l66 109q-132 99 -132 284q0 165 104 263t252 98q76 0 144 -29l41 71h110v-10zM564 529l-244 -412q41 -18 82 -18q100 0 169 68.5t69 181.5t-76 180z
M243 164l248 417q-42 18 -89 18q-102 0 -170.5 -68t-68.5 -182q0 -117 80 -185z" />
    <glyph glyph-name="Ugrave" unicode="&#xd9;" horiz-adv-x="705" 
d="M354 -9q-118 0 -196 65.5t-78 178.5v465h116v-462q0 -67 44.5 -105t113.5 -38q68 0 112 38t44 105v462h115v-465q0 -113 -77.5 -178.5t-193.5 -65.5zM414 769v-11h-91l-88 110v10l100 38z" />
    <glyph glyph-name="Uacute" unicode="&#xda;" horiz-adv-x="705" 
d="M354 -9q-118 0 -196 65.5t-78 178.5v465h116v-462q0 -67 44.5 -105t113.5 -38q68 0 112 38t44 105v462h115v-465q0 -113 -77.5 -178.5t-193.5 -65.5zM289 764v11l79 147l100 -38v-10l-88 -110h-91z" />
    <glyph glyph-name="Ucircumflex" unicode="&#xdb;" horiz-adv-x="705" 
d="M354 -9q-118 0 -196 65.5t-78 178.5v465h116v-462q0 -67 44.5 -105t113.5 -38q68 0 112 38t44 105v462h115v-465q0 -113 -77.5 -178.5t-193.5 -65.5zM547 761h-108l-87 85l-87 -85h-109v11l141 140h110l140 -141v-10z" />
    <glyph glyph-name="Udieresis" unicode="&#xdc;" horiz-adv-x="705" 
d="M354 -9q-118 0 -196 65.5t-78 178.5v465h116v-462q0 -67 44.5 -105t113.5 -38q68 0 112 38t44 105v462h115v-465q0 -113 -77.5 -178.5t-193.5 -65.5zM471 759q-27 0 -45.5 16t-18.5 42q0 27 18 43t46 16t46 -16t18 -43q0 -26 -18.5 -42t-45.5 -16zM227 759
q-27 0 -45.5 16t-18.5 42q0 27 18 43t46 16q27 0 45.5 -16.5t18.5 -42.5t-18.5 -42t-45.5 -16z" />
    <glyph glyph-name="Yacute" unicode="&#xdd;" horiz-adv-x="630" 
d="M313 383h4l87 166l91 151h124v-17l-246 -399v-284h-116v284l-247 399v17h125l94 -156zM254 765v11l79 147l100 -38v-10l-88 -110h-91z" />
    <glyph glyph-name="Thorn" unicode="&#xde;" horiz-adv-x="654" 
d="M202 212h175q57 0 95.5 41.5t38.5 102.5q0 62 -37 102.5t-97 40.5h-175v-287zM87 0v700h116v-101h174q113 0 180 -71t67 -175q-2 -103 -68.5 -173t-178.5 -70h-174v-110h-116z" />
    <glyph glyph-name="germandbls" unicode="&#xdf;" horiz-adv-x="600" 
d="M71 0v497q0 59 19.5 101.5t49.5 64.5t73 32.5t83 10.5t88 -7t79 -14.5t63 -17.5v-22l-134 -235q71 0 119 -55.5t48 -134.5q0 -133 -82 -192.5t-209 -21.5v88q79 -21 127.5 14t48.5 108q0 71 -51 104.5t-122 19.5v26l123 237q-62 18 -109.5 15t-76.5 -37.5t-29 -97.5v-483
h-108z" />
    <glyph glyph-name="agrave" unicode="&#xe0;" horiz-adv-x="549" 
d="M384 81q-23 -45 -72 -67.5t-105 -22.5q-70 0 -121.5 41t-51.5 109q-2 83 50.5 126.5t136.5 43.5q79 0 143 -36v48q0 81 -117 87q-85 4 -160 -32l-16 78q74 38 178 38q98 0 159.5 -40.5t61.5 -133.5v-190q0 -23 0.5 -31.5t5 -21t15 -15.5t29.5 -1l2 -62q-39 -6 -69 -6
t-49 21.5t-20 66.5zM364 165v40q-59 35 -125 33q-42 -1 -70 -25t-28 -66q0 -34 26 -52t62 -18q48 0 87.5 22.5t47.5 65.5zM318 590v-10h-84l-80 101v9l91 35z" />
    <glyph glyph-name="aacute" unicode="&#xe1;" horiz-adv-x="549" 
d="M384 81q-23 -45 -72 -67.5t-105 -22.5q-70 0 -121.5 41t-51.5 109q-2 83 50.5 126.5t136.5 43.5q79 0 143 -36v48q0 81 -117 87q-85 4 -160 -32l-16 78q74 38 178 38q98 0 159.5 -40.5t61.5 -133.5v-190q0 -23 0.5 -31.5t5 -21t15 -15.5t29.5 -1l2 -62q-39 -6 -69 -6
t-49 21.5t-20 66.5zM364 165v40q-59 35 -125 33q-42 -1 -70 -25t-28 -66q0 -34 26 -52t62 -18q48 0 87.5 22.5t47.5 65.5zM209 585v9l71 133l90 -35v-9l-79 -98h-82z" />
    <glyph glyph-name="acircumflex" unicode="&#xe2;" horiz-adv-x="549" 
d="M384 81q-23 -45 -72 -67.5t-105 -22.5q-70 0 -121.5 41t-51.5 109q-2 83 50.5 126.5t136.5 43.5q79 0 143 -36v48q0 81 -117 87q-85 4 -160 -32l-16 78q74 38 178 38q98 0 159.5 -40.5t61.5 -133.5v-190q0 -23 0.5 -31.5t5 -21t15 -15.5t29.5 -1l2 -62q-39 -6 -69 -6
t-49 21.5t-20 66.5zM364 165v40q-59 35 -125 33q-42 -1 -70 -25t-28 -66q0 -34 26 -52t62 -18q48 0 87.5 22.5t47.5 65.5zM434 576h-95l-77 81l-77 -81h-96v10l125 134h97l123 -135v-9z" />
    <glyph glyph-name="atilde" unicode="&#xe3;" horiz-adv-x="549" 
d="M384 81q-23 -45 -72 -67.5t-105 -22.5q-70 0 -121.5 41t-51.5 109q-2 83 50.5 126.5t136.5 43.5q79 0 143 -36v48q0 81 -117 87q-85 4 -160 -32l-16 78q74 38 178 38q98 0 159.5 -40.5t61.5 -133.5v-190q0 -23 0.5 -31.5t5 -21t15 -15.5t29.5 -1l2 -62q-39 -6 -69 -6
t-49 21.5t-20 66.5zM364 165v40q-59 35 -125 33q-42 -1 -70 -25t-28 -66q0 -34 26 -52t62 -18q48 0 87.5 22.5t47.5 65.5zM150 601l-54 27q59 129 171 68q16 -9 27.5 -13.5t25.5 -6.5t25 6.5t18 26.5q6 -3 24.5 -12t29.5 -14q-21 -60 -63 -79.5t-97 9.5q-77 45 -107 -12z
" />
    <glyph glyph-name="adieresis" unicode="&#xe4;" horiz-adv-x="549" 
d="M366 589q-27 0 -45.5 16t-18.5 42q0 27 18 43t46 16t46 -16t18 -43q0 -26 -18.5 -42t-45.5 -16zM157 589q-27 0 -45.5 16t-18.5 42q0 27 18 43t46 16q27 0 45.5 -16.5t18.5 -42.5t-18.5 -42t-45.5 -16zM384 81q-23 -45 -72 -67.5t-105 -22.5q-70 0 -121.5 41t-51.5 109
q-2 83 50.5 126.5t136.5 43.5q79 0 143 -36v48q0 81 -117 87q-85 4 -160 -32l-16 78q74 38 178 38q98 0 159.5 -40.5t61.5 -133.5v-190q0 -23 0.5 -31.5t5 -21t15 -15.5t29.5 -1l2 -62q-39 -6 -69 -6t-49 21.5t-20 66.5zM364 165v40q-59 35 -125 33q-42 -1 -70 -25t-28 -66
q0 -34 26 -52t62 -18q48 0 87.5 22.5t47.5 65.5z" />
    <glyph glyph-name="aring" unicode="&#xe5;" horiz-adv-x="549" 
d="M384 81q-23 -45 -72 -67.5t-105 -22.5q-70 0 -121.5 41t-51.5 109q-2 83 50.5 126.5t136.5 43.5q79 0 143 -36v48q0 81 -117 87q-85 4 -160 -32l-16 78q74 38 178 38q98 0 159.5 -40.5t61.5 -133.5v-190q0 -23 0.5 -31.5t5 -21t15 -15.5t29.5 -1l2 -62q-39 -6 -69 -6
t-49 21.5t-20 66.5zM364 165v40q-59 35 -125 33q-42 -1 -70 -25t-28 -66q0 -34 26 -52t62 -18q48 0 87.5 22.5t47.5 65.5zM386 651q0 -46 -36 -72.5t-80 -26.5t-80 26.5t-36 72.5t36 72t80 26t80 -26t36 -72zM213 651q0 -30 28.5 -42t57 0t28.5 42q0 22 -18 34t-39 12
t-39 -12t-18 -34z" />
    <glyph glyph-name="ae" unicode="&#xe6;" horiz-adv-x="820" 
d="M203 -10q-68 0 -117.5 40.5t-51.5 107.5q-4 75 40 121t112 52q32 5 58 1q63 -5 114 -34v38q0 50 -39.5 73.5t-96.5 21.5q-78 -5 -135 -35l-15 76q77 40 170 40q147 0 172 -101q21 50 65 75.5t102 25.5q118 0 166.5 -77.5t25.5 -193.5h-324q2 -141 138 -143q82 -4 159 33
l17 -82q-94 -41 -174 -41q-129 2 -186 101q-73 -99 -200 -99zM357 203q-64 38 -121 34q-42 -1 -71 -25.5t-29 -65.5q0 -35 26.5 -53.5t63.5 -18.5q45 0 85.5 24t51.5 63q-5 19 -6 42zM575 407q-50 1 -82.5 -28t-41.5 -80h236q2 48 -29.5 78t-82.5 30z" />
    <glyph glyph-name="ccedilla" unicode="&#xe7;" horiz-adv-x="566" 
d="M246 -74l17 68q-93 9 -157.5 74.5t-64.5 174.5q0 63 24 114t63 80.5t87 46t98 11.5t94 -23t76.5 -57.5t44.5 -92.5h-104q-25 61 -92 75t-125 -29t-58 -125q0 -52 23.5 -90t59.5 -52.5t74 -14t71.5 24t48.5 63.5h105q-16 -74 -66 -119t-119 -58l-10 -43q48 -4 68 -37
t7 -77q-13 -41 -54 -58t-87.5 -10.5t-80.5 30.5l5 60q28 -23 71.5 -26.5t57.5 26.5q9 29 -19.5 48t-57.5 16z" />
    <glyph glyph-name="egrave" unicode="&#xe8;" 
d="M291 493q125 0 181 -75t32 -197h-356q0 -64 44.5 -102t112.5 -38q96 -5 175 30l14 -81q-92 -41 -182 -41q-121 -2 -198 70t-73 192q2 115 74 178.5t176 63.5zM290 409q-118 0 -140 -111h266q2 52 -34.5 81.5t-91.5 29.5zM338 593v-10h-85l-83 103v9l94 36z" />
    <glyph glyph-name="eacute" unicode="&#xe9;" 
d="M291 493q125 0 181 -75t32 -197h-356q0 -64 44.5 -102t112.5 -38q96 -5 175 30l14 -81q-92 -41 -182 -41q-121 -2 -198 70t-73 192q2 115 74 178.5t176 63.5zM290 409q-118 0 -140 -111h266q2 52 -34.5 81.5t-91.5 29.5zM235 588v11l73 136l93 -35v-9l-82 -103h-84z" />
    <glyph glyph-name="ecircumflex" unicode="&#xea;" 
d="M291 493q125 0 181 -75t32 -197h-356q0 -64 44.5 -102t112.5 -38q96 -5 175 30l14 -81q-92 -41 -182 -41q-121 -2 -198 70t-73 192q2 115 74 178.5t176 63.5zM290 409q-118 0 -140 -111h266q2 52 -34.5 81.5t-91.5 29.5zM469 571h-100l-81 79l-80 -79h-101v11l130 129
h102l130 -130v-10z" />
    <glyph glyph-name="edieresis" unicode="&#xeb;" 
d="M291 493q125 0 181 -75t32 -197h-356q0 -64 44.5 -102t112.5 -38q96 -5 175 30l14 -81q-92 -41 -182 -41q-121 -2 -198 70t-73 192q2 115 74 178.5t176 63.5zM290 409q-118 0 -140 -111h266q2 52 -34.5 81.5t-91.5 29.5zM395 592q-25 0 -42 14.5t-17 38.5t17 39.5
t42 15.5t42 -15.5t17 -39.5t-17 -38.5t-42 -14.5zM169 592q-25 0 -42 14.5t-17 38.5t17 39.5t42 15.5t42.5 -15.5t17.5 -39.5q0 -23 -17.5 -38t-42.5 -15z" />
    <glyph glyph-name="igrave" unicode="&#xec;" horiz-adv-x="252" 
d="M180 481v-481h-108v481h108zM170 581v-11h-88l-85 106v10l97 36z" />
    <glyph glyph-name="iacute" unicode="&#xed;" horiz-adv-x="252" 
d="M180 481v-481h-108v481h108zM71 573v11l76 141l96 -37v-9l-84 -106h-88z" />
    <glyph glyph-name="icircumflex" unicode="&#xee;" horiz-adv-x="252" 
d="M180 481v-481h-108v481h108zM282 563h-88l-70 88l-71 -88h-88v12l114 144h90l113 -145v-11z" />
    <glyph glyph-name="idieresis" unicode="&#xef;" horiz-adv-x="252" 
d="M223 588q-27 0 -45.5 16t-18.5 42q0 27 18 43t46 16t46 -16t18 -43q0 -26 -18.5 -42t-45.5 -16zM29 588q-27 0 -45.5 16t-18.5 42q0 27 18 43t46 16q27 0 45.5 -16.5t18.5 -42.5t-18.5 -42t-45.5 -16zM180 481v-481h-108v481h108z" />
    <glyph glyph-name="eth" unicode="&#xf0;" horiz-adv-x="592" 
d="M42 237q0 103 67 169.5t162 66.5q70 0 126 -41q-23 53 -83 123l-58 -41l-30 42l57 40q-47 56 -99 96v5h91q36 -24 70 -58l60 41l29 -41l-52 -37q75 -81 121 -176.5t46 -188.5q0 -58 -22 -105.5t-57.5 -77.5t-81 -47t-93 -18t-93 14.5t-81 45t-57.5 78.5t-22 110zM439 237
q0 40 -16 71.5t-41.5 48t-56 24t-61 0t-56 -24t-41.5 -48t-16 -71.5q0 -42 16 -74.5t41.5 -49.5t56 -25t61 0t56 25t41.5 49.5t16 74.5z" />
    <glyph glyph-name="ntilde" unicode="&#xf1;" horiz-adv-x="606" 
d="M542 0h-110v283q1 55 -31 88t-82 34q-52 0 -87 -36.5t-35 -94.5v-274h-110v342q0 46 -8 59t-43 11v71q37 5 70.5 7t57 -18.5t23.5 -63.5q19 43 65 63.5t99 20.5q94 0 142.5 -57.5t48.5 -151.5v-283zM182 590q-19 10 -55 27q59 132 173 69q16 -9 27.5 -13.5t26 -6.5
t25.5 6.5t18 26.5q43 -20 55 -27q-22 -61 -64.5 -80.5t-97.5 9.5q-80 48 -108 -11z" />
    <glyph glyph-name="ograve" unicode="&#xf2;" horiz-adv-x="591" 
d="M550 243q0 -80 -37.5 -139t-94.5 -85.5t-122.5 -26.5t-122.5 26.5t-94.5 85.5t-37.5 139q0 69 28 123t73 82t99.5 41t108.5 0t99 -41t73 -82t28 -123zM149 243q0 -43 16 -76.5t42 -51t57 -25.5t62 0t57 25.5t42 51t16 76.5t-16 76t-42 50.5t-57 25.5t-62 0t-57 -25.5
t-42 -50.5t-16 -76zM340 593v-10h-84l-82 102v9l93 35z" />
    <glyph glyph-name="oacute" unicode="&#xf3;" horiz-adv-x="591" 
d="M550 243q0 -80 -37.5 -139t-94.5 -85.5t-122.5 -26.5t-122.5 26.5t-94.5 85.5t-37.5 139q0 69 28 123t73 82t99.5 41t108.5 0t99 -41t73 -82t28 -123zM149 243q0 -43 16 -76.5t42 -51t57 -25.5t62 0t57 25.5t42 51t16 76.5t-16 76t-42 50.5t-57 25.5t-62 0t-57 -25.5
t-42 -50.5t-16 -76zM241 576v11l73 136l93 -35v-9l-82 -103h-84z" />
    <glyph glyph-name="ocircumflex" unicode="&#xf4;" horiz-adv-x="591" 
d="M550 243q0 -80 -37.5 -139t-94.5 -85.5t-122.5 -26.5t-122.5 26.5t-94.5 85.5t-37.5 139q0 69 28 123t73 82t99.5 41t108.5 0t99 -41t73 -82t28 -123zM149 243q0 -43 16 -76.5t42 -51t57 -25.5t62 0t57 25.5t42 51t16 76.5t-16 76t-42 50.5t-57 25.5t-62 0t-57 -25.5
t-42 -50.5t-16 -76zM472 568h-99l-80 81l-79 -81h-100v10l129 134h101l128 -135v-9z" />
    <glyph glyph-name="otilde" unicode="&#xf5;" horiz-adv-x="591" 
d="M550 243q0 -80 -37.5 -139t-94.5 -85.5t-122.5 -26.5t-122.5 26.5t-94.5 85.5t-37.5 139q0 69 28 123t73 82t99.5 41t108.5 0t99 -41t73 -82t28 -123zM149 243q0 -43 16 -76.5t42 -51t57 -25.5t62 0t57 25.5t42 51t16 76.5t-16 76t-42 50.5t-57 25.5t-62 0t-57 -25.5
t-42 -50.5t-16 -76zM186 602q-19 10 -55 27q59 132 173 69q16 -9 27.5 -13.5t26 -6.5t25.5 6.5t18 26.5q43 -20 55 -27q-22 -61 -64.5 -80.5t-97.5 9.5q-80 48 -108 -11z" />
    <glyph glyph-name="odieresis" unicode="&#xf6;" horiz-adv-x="591" 
d="M550 243q0 -80 -37.5 -139t-94.5 -85.5t-122.5 -26.5t-122.5 26.5t-94.5 85.5t-37.5 139q0 69 28 123t73 82t99.5 41t108.5 0t99 -41t73 -82t28 -123zM149 243q0 -43 16 -76.5t42 -51t57 -25.5t62 0t57 25.5t42 51t16 76.5t-16 76t-42 50.5t-57 25.5t-62 0t-57 -25.5
t-42 -50.5t-16 -76zM401 591q-25 0 -42 14.5t-17 38.5t17 39.5t42 15.5t42 -15.5t17 -39.5t-17 -38.5t-42 -14.5zM175 591q-25 0 -42 14.5t-17 38.5t17 39.5t42 15.5t42.5 -15.5t17.5 -39.5q0 -23 -17.5 -38t-42.5 -15z" />
    <glyph glyph-name="divide" unicode="&#xf7;" horiz-adv-x="538" 
d="M269 120q-28 0 -47 17t-19 44q0 28 19 45t47 17q29 0 47.5 -16.5t18.5 -45.5q0 -27 -19 -44t-47 -17zM269 474q-28 0 -47 17t-19 44q0 28 19 45t47 17q29 0 47.5 -16.5t18.5 -45.5q0 -27 -19 -44t-47 -17zM62 311v92h414v-92h-414z" />
    <glyph glyph-name="oslash" unicode="&#xf8;" horiz-adv-x="591" 
d="M550 243q0 -58 -20 -106t-53.5 -77t-76.5 -48t-89 -19.5t-91 9.5l-29 -58h-86l45 89q-109 68 -109 210q0 59 21 107.5t55.5 77.5t78.5 47.5t90 17.5t91 -12l32 63h87l-48 -96q102 -68 102 -205zM146 243q0 -77 56 -116l135 267q-69 20 -130 -21t-61 -130zM446 243
q0 72 -51 112l-136 -265q68 -18 127.5 24.5t59.5 128.5z" />
    <glyph glyph-name="ugrave" unicode="&#xf9;" horiz-adv-x="597" 
d="M401 482h109v-344q0 -46 9 -59.5t42 -9.5l1 -71q-24 -4 -40 -6t-39 -0.5t-36.5 10t-24 27.5t-10.5 49q-44 -86 -167 -86q-94 0 -137 57.5t-43 153.5v279h110v-279q-1 -57 27.5 -90.5t76.5 -33.5q53 0 87.5 35t34.5 92v276zM344 589v-11h-86l-84 105v9l95 36z" />
    <glyph glyph-name="uacute" unicode="&#xfa;" horiz-adv-x="597" 
d="M401 482h109v-344q0 -46 9 -59.5t42 -9.5l1 -71q-24 -4 -40 -6t-39 -0.5t-36.5 10t-24 27.5t-10.5 49q-44 -86 -167 -86q-94 0 -137 57.5t-43 153.5v279h110v-279q-1 -57 27.5 -90.5t76.5 -33.5q53 0 87.5 35t34.5 92v276zM235 578v10l75 138l94 -35v-10l-83 -103h-86z
" />
    <glyph glyph-name="ucircumflex" unicode="&#xfb;" horiz-adv-x="597" 
d="M401 482h109v-344q0 -46 9 -59.5t42 -9.5l1 -71q-24 -4 -40 -6t-39 -0.5t-36.5 10t-24 27.5t-10.5 49q-44 -86 -167 -86q-94 0 -137 57.5t-43 153.5v279h110v-279q-1 -57 27.5 -90.5t76.5 -33.5q53 0 87.5 35t34.5 92v276zM470 574h-104l-83 81l-83 -81h-104v11l135 133
h105l134 -134v-10z" />
    <glyph glyph-name="udieresis" unicode="&#xfc;" horiz-adv-x="597" 
d="M401 482h109v-344q0 -46 9 -59.5t42 -9.5l1 -71q-24 -4 -40 -6t-39 -0.5t-36.5 10t-24 27.5t-10.5 49q-44 -86 -167 -86q-94 0 -137 57.5t-43 153.5v279h110v-279q-1 -57 27.5 -90.5t76.5 -33.5q53 0 87.5 35t34.5 92v276zM403 589q-27 0 -44.5 15.5t-17.5 41.5
t17.5 41.5t44.5 15.5t44.5 -15.5t17.5 -41.5t-17.5 -41.5t-44.5 -15.5zM165 589q-27 0 -45 15.5t-18 41.5t18 41.5t45 15.5q26 0 44 -16t18 -41t-18 -41t-44 -16z" />
    <glyph glyph-name="yacute" unicode="&#xfd;" 
d="M528 470l-209 -511q-20 -50 -35.5 -81.5t-40 -64.5t-52 -46.5t-67 -13t-88.5 21.5l13 79q41 -21 72 -13t50.5 31t34.5 66l23 59l-217 473v12h117l71 -168l79 -212h3l73 211l64 169h109v-12zM211 569v11l78 146l99 -37v-10l-87 -110h-90z" />
    <glyph glyph-name="thorn" unicode="&#xfe;" horiz-adv-x="585" 
d="M543 245q0 -74 -31 -131.5t-81 -87t-117 -29t-134 36.5v-281h-109v966h109v-263q54 29 108 35.5t99.5 -9t80.5 -47t55 -81t20 -109.5zM432 245q0 54 -24 92t-60.5 52.5t-82.5 8t-88 -36.5v-232q42 -30 88 -36.5t82.5 8t60.5 52.5t24 92z" />
    <glyph glyph-name="ydieresis" unicode="&#xff;" 
d="M528 470l-209 -511q-20 -50 -35.5 -81.5t-40 -64.5t-52 -46.5t-67 -13t-88.5 21.5l13 79q41 -21 72 -13t50.5 31t34.5 66l23 59l-217 473v12h117l71 -168l79 -212h3l73 211l64 169h109v-12zM396 586q-27 0 -45.5 16t-18.5 42q0 27 18 43t46 16t46 -16t18 -43
q0 -26 -18.5 -42t-45.5 -16zM152 586q-27 0 -45.5 16t-18.5 42q0 27 18 43t46 16q27 0 45.5 -16.5t18.5 -42.5t-18.5 -42t-45.5 -16z" />
    <glyph glyph-name="Amacron" unicode="&#x100;" horiz-adv-x="703" 
d="M511 145h-320l-68 -145h-122v15l324 690h54l322 -690v-15h-121zM352 523l-123 -280h245zM197 763v88h309v-88h-309z" />
    <glyph glyph-name="amacron" unicode="&#x101;" horiz-adv-x="549" 
d="M384 81q-23 -45 -72 -67.5t-105 -22.5q-70 0 -121.5 41t-51.5 109q-2 83 50.5 126.5t136.5 43.5q79 0 143 -36v48q0 81 -117 87q-85 4 -160 -32l-16 78q74 38 178 38q98 0 159.5 -40.5t61.5 -133.5v-190q0 -23 0.5 -31.5t5 -21t15 -15.5t29.5 -1l2 -62q-39 -6 -69 -6
t-49 21.5t-20 66.5zM364 165v40q-59 35 -125 33q-42 -1 -70 -25t-28 -66q0 -34 26 -52t62 -18q48 0 87.5 22.5t47.5 65.5zM112 602v81h296v-81h-296z" />
    <glyph glyph-name="Abreve" unicode="&#x102;" horiz-adv-x="703" 
d="M511 145h-320l-68 -145h-122v15l324 690h54l322 -690v-15h-121zM352 523l-123 -280h245zM165 894h94q6 -32 33.5 -50t59 -18t59 18t33.5 50h93q-3 -49 -31 -85t-68 -52t-86.5 -16t-86.5 16.5t-68 52t-32 84.5z" />
    <glyph glyph-name="abreve" unicode="&#x103;" horiz-adv-x="549" 
d="M384 81q-23 -45 -72 -67.5t-105 -22.5q-70 0 -121.5 41t-51.5 109q-2 83 50.5 126.5t136.5 43.5q79 0 143 -36v48q0 81 -117 87q-85 4 -160 -32l-16 78q74 38 178 38q98 0 159.5 -40.5t61.5 -133.5v-190q0 -23 0.5 -31.5t5 -21t15 -15.5t29.5 -1l2 -62q-39 -6 -69 -6
t-49 21.5t-20 66.5zM364 165v40q-59 35 -125 33q-42 -1 -70 -25t-28 -66q0 -34 26 -52t62 -18q48 0 87.5 22.5t47.5 65.5zM96 705h83q6 -38 44 -53t76 0t44 53h83q-3 -44 -28 -76t-60.5 -46.5t-76.5 -14.5t-76.5 14.5t-60.5 46.5t-28 76z" />
    <glyph glyph-name="Aogonek" unicode="&#x104;" horiz-adv-x="703" 
d="M352 512l-123 -269h245zM511 145h-320l-68 -145h-122v15l324 690h54l322 -690v-15q-28 -5 -50 -12q-29 -12 -41.5 -41t0.5 -54q12 -22 35 -26t43.5 3t40.5 19l15 -70q-34 -21 -77 -29.5t-84.5 6t-57.5 55.5q-33 82 54 151z" />
    <glyph glyph-name="aogonek" unicode="&#x105;" horiz-adv-x="548" 
d="M363 165v40q-59 35 -125 33q-42 0 -72 -25t-26 -66q2 -34 27 -52t61 -18q48 0 87.5 22.5t47.5 65.5zM385 81q-22 -45 -72.5 -67.5t-106.5 -22.5q-68 0 -119.5 41.5t-53.5 107.5q-2 83 50.5 127t136.5 44q78 0 143 -36v46q0 34 -22 54.5t-49.5 27t-61.5 6.5
q-89 0 -144 -31l-16 78q74 38 178 38q98 0 159.5 -42t61.5 -134v-188q0 -23 0.5 -31.5t5 -21t15 -15.5t29.5 -1l2 -62q-14 -3 -36 -5q-28 -12 -40.5 -38.5t0.5 -49.5q27 -43 108 0l13 -63q-34 -19 -72 -26t-74.5 7.5t-49.5 55.5q-13 33 4 67t51 53q-22 8 -29.5 26.5
t-10.5 54.5z" />
    <glyph glyph-name="Cacute" unicode="&#x106;" horiz-adv-x="761" 
d="M46 349q0 164 103.5 261.5t252.5 97.5q71 0 134.5 -25t113.5 -79t68 -130h-112q-51 126 -205 128q-107 0 -172.5 -70.5t-65.5 -182.5q0 -106 66.5 -178t171.5 -72q74 0 129.5 36t78.5 104h113q-25 -121 -115.5 -183.5t-205.5 -62.5q-149 0 -252 96.5t-103 259.5zM340 774
v11l79 147l100 -38v-10l-88 -110h-91z" />
    <glyph glyph-name="cacute" unicode="&#x107;" horiz-adv-x="565" 
d="M528 322h-104q-25 61 -92 75t-125 -29t-58 -125q0 -52 23.5 -90t59.5 -52.5t74 -14t71.5 24t48.5 63.5h105q-13 -64 -55 -108t-96 -61.5t-114 -11t-110 35t-82.5 84.5t-32.5 130q0 63 24 114t63 80.5t87 46t98 11.5t94 -23t76.5 -57.5t44.5 -92.5zM238 579v10l76 134
l97 -35v-9l-85 -100h-88z" />
    <glyph glyph-name="Ccircumflex" unicode="&#x108;" horiz-adv-x="761" 
d="M46 349q0 164 103.5 261.5t252.5 97.5q71 0 134.5 -25t113.5 -79t68 -130h-112q-51 126 -205 128q-107 0 -172.5 -70.5t-65.5 -182.5q0 -106 66.5 -178t171.5 -72q74 0 129.5 36t78.5 104h113q-25 -121 -115.5 -183.5t-205.5 -62.5q-149 0 -252 96.5t-103 259.5zM594 764
h-108l-87 85l-87 -85h-109v11l141 140h110l140 -141v-10z" />
    <glyph glyph-name="ccircumflex" unicode="&#x109;" horiz-adv-x="565" 
d="M528 322h-104q-25 61 -92 75t-125 -29t-58 -125q0 -52 23.5 -90t59.5 -52.5t74 -14t71.5 24t48.5 63.5h105q-13 -64 -55 -108t-96 -61.5t-114 -11t-110 35t-82.5 84.5t-32.5 130q0 63 24 114t63 80.5t87 46t98 11.5t94 -23t76.5 -57.5t44.5 -92.5zM469 568h-99l-80 81
l-79 -81h-100v11l129 133h101l128 -134v-10z" />
    <glyph glyph-name="Cdotaccent" unicode="&#x10a;" horiz-adv-x="761" 
d="M46 349q0 164 103.5 261.5t252.5 97.5q71 0 134.5 -25t113.5 -79t68 -130h-112q-51 126 -205 128q-107 0 -172.5 -70.5t-65.5 -182.5q0 -106 66.5 -178t171.5 -72q74 0 129.5 36t78.5 104h113q-25 -121 -115.5 -183.5t-205.5 -62.5q-149 0 -252 96.5t-103 259.5zM409 769
q-28 0 -48 17.5t-20 45.5t20 45.5t48 17.5q30 0 49 -17t19 -46t-19 -46t-49 -17z" />
    <glyph glyph-name="cdotaccent" unicode="&#x10b;" horiz-adv-x="565" 
d="M528 322h-104q-25 61 -92 75t-125 -29t-58 -125q0 -52 23.5 -90t59.5 -52.5t74 -14t71.5 24t48.5 63.5h105q-13 -64 -55 -108t-96 -61.5t-114 -11t-110 35t-82.5 84.5t-32.5 130q0 63 24 114t63 80.5t87 46t98 11.5t94 -23t76.5 -57.5t44.5 -92.5zM294 578
q-25 0 -42.5 15t-17.5 39t17.5 39.5t42.5 15.5q27 0 44 -15.5t17 -39.5t-17 -39t-44 -15z" />
    <glyph glyph-name="Ccaron" unicode="&#x10c;" horiz-adv-x="761" 
d="M46 349q0 164 103.5 261.5t252.5 97.5q71 0 134.5 -25t113.5 -79t68 -130h-112q-51 126 -205 128q-107 0 -172.5 -70.5t-65.5 -182.5q0 -106 66.5 -178t171.5 -72q74 0 129.5 36t78.5 104h113q-25 -121 -115.5 -183.5t-205.5 -62.5q-149 0 -252 96.5t-103 259.5zM211 919
h106l85 -83l86 83h107v-10l-139 -138h-108l-137 138v10z" />
    <glyph glyph-name="ccaron" unicode="&#x10d;" horiz-adv-x="565" 
d="M528 322h-104q-25 61 -92 75t-125 -29t-58 -125q0 -52 23.5 -90t59.5 -52.5t74 -14t71.5 24t48.5 63.5h105q-13 -64 -55 -108t-96 -61.5t-114 -11t-110 35t-82.5 84.5t-32.5 130q0 63 24 114t63 80.5t87 46t98 11.5t94 -23t76.5 -57.5t44.5 -92.5zM116 713h99l80 -80
l79 80h100v-10l-129 -132h-101l-128 132v10z" />
    <glyph glyph-name="Dcaron" unicode="&#x10e;" horiz-adv-x="730" 
d="M88 699h253q157 0 249.5 -101.5t92.5 -246.5q0 -146 -92 -248.5t-250 -102.5h-253v699zM204 106h135q105 0 166.5 70.5t61.5 173.5t-61.5 173.5t-165.5 70.5h-136v-488zM140 905h103l83 -80l83 80h104v-9l-135 -134h-104l-134 134v9z" />
    <glyph glyph-name="dcaron" unicode="&#x10f;" horiz-adv-x="603" 
d="M423 74v14q-44 -98 -160 -98q-103 -2 -162.5 71.5t-59.5 180.5q0 74 33 131.5t84 87t116.5 28.5t128.5 -37v280h109v-582v-16v-14.5t0.5 -12.5t1.5 -12t2.5 -9t4 -9t6.5 -6t9 -5.5t11.5 -2.5t14.5 -1l2 -63q-141 -24 -141 75zM405 221v135q-43 29 -89 35.5t-82.5 -7.5
t-60.5 -51.5t-24 -90.5q0 -66 33.5 -110.5t97.5 -44.5q55 0 90 39t35 95zM691 662q-1 -15 -6 -28l-34 -106h-66l22 78q-21 5 -34 20.5t-13 38.5q0 27 19 44t47 17q22 0 39 -11.5t24 -31.5q3 -18 2 -21z" />
    <glyph glyph-name="Dcroat" unicode="&#x110;" horiz-adv-x="738" 
d="M17 299v91h79v309h253q157 0 249.5 -101.5t92.5 -246.5q0 -146 -92 -248.5t-250 -102.5h-253v299h-79zM212 106h135q105 0 166.5 70.5t61.5 173.5t-61.5 173.5t-165.5 70.5h-136v-204h119v-91h-119v-193z" />
    <glyph glyph-name="dcroat" unicode="&#x111;" horiz-adv-x="600" 
d="M405 220v134q-43 29 -89 35.5t-82.5 -7.5t-60.5 -51.5t-24 -90.5q0 -66 33.5 -110.5t97.5 -44.5q55 0 90 39.5t35 95.5zM423 73v20q-21 -49 -63.5 -76.5t-96.5 -28.5q-103 -2 -162.5 71.5t-59.5 180.5q0 74 33 132t84 87t116.5 28.5t128.5 -36.5v116h-100v74h100v89h109
v-89h78v-74h-78v-419q0 -7 -0.5 -20t0 -18.5t1 -15t2.5 -13.5t5.5 -9.5t9 -7.5t13.5 -3t19 0l2 -64q-141 -25 -141 76z" />
    <glyph glyph-name="Emacron" unicode="&#x112;" horiz-adv-x="577" 
d="M513 700v-102h-309v-185h292v-103h-292v-204h315v-106h-432v700h426zM148 772v88h309v-88h-309z" />
    <glyph glyph-name="emacron" unicode="&#x113;" 
d="M291 493q125 0 181 -75t32 -197h-356q0 -64 44.5 -102t112.5 -38q96 -5 175 30l14 -81q-92 -41 -182 -41q-121 -2 -198 70t-73 192q2 115 74 178.5t176 63.5zM290 409q-118 0 -140 -111h266q2 52 -34.5 81.5t-91.5 29.5zM125 588v82h302v-82h-302z" />
    <glyph glyph-name="Ebreve" unicode="&#x114;" horiz-adv-x="577" 
d="M513 700v-102h-309v-185h292v-103h-292v-204h315v-106h-432v700h426zM121 909h92q8 -42 49.5 -58.5t83 0t49.5 58.5h91q-3 -57 -40.5 -96t-89 -48.5t-103.5 0t-90 48.5t-42 96z" />
    <glyph glyph-name="ebreve" unicode="&#x115;" 
d="M291 493q125 0 181 -75t32 -197h-356q0 -64 44.5 -102t112.5 -38q96 -5 175 30l14 -81q-92 -41 -182 -41q-121 -2 -198 70t-73 192q2 115 74 178.5t176 63.5zM290 409q-118 0 -140 -111h266q2 52 -34.5 81.5t-91.5 29.5zM111 706h86q6 -30 31.5 -47t54.5 -17.5t54 16.5
t29 48h85q-3 -56 -38 -93.5t-83 -46.5t-96.5 0t-83.5 47t-39 93z" />
    <glyph glyph-name="Edotaccent" unicode="&#x116;" horiz-adv-x="577" 
d="M513 700v-102h-309v-185h292v-103h-292v-204h315v-106h-432v700h426zM311 761q-28 0 -47 17t-19 44t19 44t47 17t47 -17t19 -44t-19 -44t-47 -17z" />
    <glyph glyph-name="edotaccent" unicode="&#x117;" 
d="M291 493q125 0 181 -75t32 -197h-356q0 -64 44.5 -102t112.5 -38q96 -5 175 30l14 -81q-92 -41 -182 -41q-121 -2 -198 70t-73 192q2 115 74 178.5t176 63.5zM290 409q-118 0 -140 -111h266q2 52 -34.5 81.5t-91.5 29.5zM285 573q-28 0 -46.5 15.5t-18.5 41.5q0 24 19 40
t46 16q28 0 47 -16t19 -40q0 -26 -19 -41.5t-47 -15.5z" />
    <glyph glyph-name="Eogonek" unicode="&#x118;" horiz-adv-x="564" 
d="M500 700v-102h-296v-185h279v-103h-279v-204h302v-106h-94q-31 -18 -45.5 -50.5t-0.5 -59.5q12 -23 37.5 -26.5t49 4t45.5 20.5l15 -71q-26 -16 -60 -25t-68.5 -9t-63 19t-38.5 55q-14 39 1.5 78.5t51.5 64.5h-249v700h413z" />
    <glyph glyph-name="eogonek" unicode="&#x119;" horiz-adv-x="552" 
d="M151 291h262q6 57 -30 87.5t-93 30.5q-55 0 -93 -31.5t-46 -86.5zM291 493q125 0 181 -74t32 -196h-354q2 -71 49 -108t120 -37q86 -2 161 33l14 -81q-25 -12 -68 -25q-28 -17 -43.5 -46t-0.5 -53q11 -20 35 -24t46 3t41 19l13 -65q-34 -21 -76 -27.5t-81.5 10
t-54.5 59.5q-21 55 35 111q-36 -3 -69 0q-106 10 -170 79.5t-60 179.5q2 115 74 178.5t176 63.5z" />
    <glyph glyph-name="Ecaron" unicode="&#x11a;" horiz-adv-x="577" 
d="M513 700v-102h-309v-185h292v-103h-292v-204h315v-106h-432v700h426zM116 903h104l84 -82l84 82h105v-10l-136 -135h-106l-135 135v10z" />
    <glyph glyph-name="ecaron" unicode="&#x11b;" 
d="M291 493q125 0 181 -75t32 -197h-356q0 -64 44.5 -102t112.5 -38q96 -5 175 30l14 -81q-92 -41 -182 -41q-121 -2 -198 70t-73 192q2 115 74 178.5t176 63.5zM290 409q-118 0 -140 -111h266q2 52 -34.5 81.5t-91.5 29.5zM105 701h101l81 -79l81 79h101v-9l-131 -132h-102
l-131 132v9z" />
    <glyph glyph-name="Gcircumflex" unicode="&#x11c;" horiz-adv-x="774" 
d="M46 351q0 162 103.5 260t250.5 98q112 0 197.5 -54.5t116.5 -164.5h-115q-55 114 -200 114q-107 0 -171 -72.5t-64 -180.5q0 -112 64 -183t171 -71q200 0 226 182h-218v99h328q5 -111 -25 -190q-39 -97 -121.5 -147t-189.5 -50q-149 0 -251 98t-102 262zM586 771h-108
l-87 85l-87 -85h-109v11l141 140h110l140 -141v-10z" />
    <glyph glyph-name="gcircumflex" unicode="&#x11d;" horiz-adv-x="579" 
d="M406 -28v51q-68 -37 -134.5 -39.5t-117 26t-81.5 88t-31 139.5q0 125 76 189t194 62q97 -1 199 -45v-473q0 -91 -41.5 -150.5t-105.5 -78t-140.5 -8t-147.5 49.5l16 86q46 -22 88.5 -35t84 -14.5t72.5 12t50 49t19 91.5zM404 115v264q-51 18 -102 18q-71 0 -110.5 -40.5
t-40.5 -119.5q0 -76 39 -119t95 -41t119 38zM490 556h-101l-82 85l-82 -85h-102v11l132 140h104l131 -141v-10z" />
    <glyph glyph-name="Gbreve" unicode="&#x11e;" horiz-adv-x="774" 
d="M46 351q0 162 103.5 260t250.5 98q112 0 197.5 -54.5t116.5 -164.5h-115q-55 114 -200 114q-107 0 -171 -72.5t-64 -180.5q0 -112 64 -183t171 -71q200 0 226 182h-218v99h328q5 -111 -25 -190q-39 -97 -121.5 -147t-189.5 -50q-149 0 -251 98t-102 262zM207 916h93
q6 -32 33.5 -50t58.5 -18t58.5 18t33.5 50h92q-3 -49 -30.5 -85t-67.5 -52t-86 -16t-86 16.5t-68 52t-31 84.5z" />
    <glyph glyph-name="gbreve" unicode="&#x11f;" horiz-adv-x="579" 
d="M406 -28v51q-68 -37 -134.5 -39.5t-117 26t-81.5 88t-31 139.5q0 125 76 189t194 62q97 -1 199 -45v-473q0 -91 -41.5 -150.5t-105.5 -78t-140.5 -8t-147.5 49.5l16 86q46 -22 88.5 -35t84 -14.5t72.5 12t50 49t19 91.5zM404 115v264q-51 18 -102 18q-71 0 -110.5 -40.5
t-40.5 -119.5q0 -76 39 -119t95 -41t119 38zM111 713h88q8 -41 47.5 -57.5t79.5 0t48 57.5h88q-3 -47 -29.5 -82t-64.5 -50.5t-81.5 -15.5t-81.5 16t-64.5 50.5t-29.5 81.5z" />
    <glyph glyph-name="Gdotaccent" unicode="&#x120;" horiz-adv-x="774" 
d="M46 351q0 162 103.5 260t250.5 98q112 0 197.5 -54.5t116.5 -164.5h-115q-55 114 -200 114q-107 0 -171 -72.5t-64 -180.5q0 -112 64 -183t171 -71q200 0 226 182h-218v99h328q5 -111 -25 -190q-39 -97 -121.5 -147t-189.5 -50q-149 0 -251 98t-102 262zM398 773
q-28 0 -48 16.5t-20 42.5t20 42.5t48 16.5q30 0 49 -16t19 -43t-19 -43t-49 -16z" />
    <glyph glyph-name="gdotaccent" unicode="&#x121;" horiz-adv-x="579" 
d="M406 -28v51q-68 -37 -134.5 -39.5t-117 26t-81.5 88t-31 139.5q0 125 76 189t194 62q97 -1 199 -45v-473q0 -91 -41.5 -150.5t-105.5 -78t-140.5 -8t-147.5 49.5l16 86q46 -22 88.5 -35t84 -14.5t72.5 12t50 49t19 91.5zM404 115v264q-51 18 -102 18q-71 0 -110.5 -40.5
t-40.5 -119.5q0 -76 39 -119t95 -41t119 38zM311 576q-26 0 -44 16t-18 42t18 42t44 16q27 0 44.5 -16t17.5 -42t-17.5 -42t-44.5 -16z" />
    <glyph glyph-name="Gcommaaccent" unicode="&#x122;" horiz-adv-x="774" 
d="M405 -73q39 0 56 -28t3 -64l-36 -111h-62l20 83q-21 5 -34 20.5t-13 38.5q0 27 19 44t47 17zM46 351q0 162 103.5 260t250.5 98q112 0 197.5 -54.5t116.5 -164.5h-115q-55 114 -200 114q-107 0 -171 -72.5t-64 -180.5q0 -112 64 -183t171 -71q200 0 226 182h-218v99h328
q5 -111 -25 -190q-39 -97 -121.5 -147t-189.5 -50q-149 0 -251 98t-102 262z" />
    <glyph glyph-name="gcommaaccent" unicode="&#x123;" horiz-adv-x="579" 
d="M406 -28v51q-68 -37 -134.5 -39.5t-117 26t-81.5 88t-31 139.5q0 125 76 189t194 62q97 -1 199 -45v-473q0 -91 -41.5 -150.5t-105.5 -78t-140.5 -8t-147.5 49.5l16 86q46 -22 88.5 -35t84 -14.5t72.5 12t50 49t19 91.5zM404 115v264q-51 18 -102 18q-71 0 -110.5 -40.5
t-40.5 -119.5q0 -76 39 -119t95 -41t119 38zM248 611q2 15 7 27l32 102h64l-21 -74q44 -14 44 -58q0 -26 -17.5 -42t-45.5 -16q-47 0 -60 41q-3 11 -3 20z" />
    <glyph glyph-name="Hcircumflex" unicode="&#x124;" horiz-adv-x="727" 
d="M640 0h-117v312h-320v-312h-116v700h116v-281h320v281h117v-700zM559 767h-108l-87 85l-87 -85h-109v11l141 140h110l140 -141v-10z" />
    <glyph glyph-name="hcircumflex" unicode="&#x125;" horiz-adv-x="591" 
d="M526 0h-110v285q1 58 -29 89t-83 32q-54 0 -89 -34.5t-35 -92.5v-279h-109v731h109v-308q52 70 155 70q96 0 143.5 -55.5t47.5 -152.5v-285zM489 780h-104l-83 84l-84 -84h-105v10l136 139h106l134 -140v-9z" />
    <glyph glyph-name="Hbar" unicode="&#x126;" horiz-adv-x="737" 
d="M29 519v78h63v103h116v-103h320v103h117v-103h65v-78h-65v-519h-117v296h-320v-296h-116v519h-63zM208 403h320v116h-320v-116z" />
    <glyph glyph-name="hbar" unicode="&#x127;" horiz-adv-x="591" 
d="M527 0h-110v282q1 59 -29.5 91t-82.5 33q-55 0 -89.5 -34.5t-34.5 -92.5v-279h-110v575h-62v71h62v85h110v-85h88v-71h-88v-155q28 40 64.5 56.5t89.5 16.5q97 0 144.5 -56.5t47.5 -154.5v-282z" />
    <glyph glyph-name="Itilde" unicode="&#x128;" horiz-adv-x="418" 
d="M267 94h111v-94h-338v94h111v513h-102v93h320v-93h-102v-513zM97 769l-58 29q61 138 183 73q17 -10 29.5 -15t27 -6.5t26 7t20.5 27.5q32 -15 58 -28q-24 -65 -68 -85.5t-104 10.5q-84 50 -114 -12z" />
    <glyph glyph-name="itilde" unicode="&#x129;" horiz-adv-x="252" 
d="M180 481v-481h-108v481h108zM25 590l-51 28q26 65 65 84t95 -12q69 -47 90 13q14 -7 51 -28q-21 -64 -60 -84t-90 11q-72 51 -100 -12z" />
    <glyph glyph-name="Imacron" unicode="&#x12a;" horiz-adv-x="418" 
d="M267 94h111v-94h-338v94h111v513h-102v93h320v-93h-102v-513zM56 763v88h309v-88h-309z" />
    <glyph glyph-name="imacron" unicode="&#x12b;" horiz-adv-x="252" 
d="M180 481v-481h-108v481h108zM-3 587v90h257v-90h-257z" />
    <glyph glyph-name="Ibreve" unicode="&#x12c;" horiz-adv-x="418" 
d="M267 94h111v-94h-338v94h111v513h-102v93h320v-93h-102v-513zM24 913h91q6 -31 33 -49.5t57.5 -19t56.5 17.5t31 51h90q-3 -50 -30 -86t-65.5 -52.5t-83 -16t-83.5 16.5t-66 52.5t-31 85.5z" />
    <glyph glyph-name="ibreve" unicode="&#x12d;" horiz-adv-x="252" 
d="M180 481v-481h-108v481h108zM-30 699h79q6 -40 41.5 -56t71.5 0t42 56h78q-2 -55 -34 -92.5t-76 -46.5t-88.5 0t-77.5 46.5t-36 92.5z" />
    <glyph glyph-name="Iogonek" unicode="&#x12e;" horiz-adv-x="418" 
d="M267 95h111v-95h-123q-28 -19 -43.5 -52.5t0.5 -56.5q12 -21 38.5 -25t50 3t43.5 19l15 -70q-34 -22 -79.5 -30.5t-90 7t-60.5 58.5q-14 35 -1.5 75t49.5 72h-137v95h111v510h-102v95h320v-95h-102v-510z" />
    <glyph glyph-name="iogonek" unicode="&#x12f;" horiz-adv-x="253" 
d="M61 631q0 40 32.5 56.5t65 0t32.5 -56.5t-32.5 -56.5t-65 0t-32.5 56.5zM181 477v-477h-35q-28 -16 -40.5 -48t0.5 -59q12 -23 38 -26.5t47.5 4t44.5 20.5l14 -71q-37 -23 -83.5 -30.5t-89.5 10.5t-57 66q-14 38 1.5 73.5t50.5 62.5v475h109z" />
    <glyph glyph-name="Idotaccent" unicode="&#x130;" horiz-adv-x="418" 
d="M267 94h111v-94h-338v94h111v513h-102v93h320v-93h-102v-513zM209 762q-31 0 -51.5 17.5t-20.5 44.5t20.5 44.5t51.5 17.5q30 0 50.5 -17.5t20.5 -44.5t-20.5 -44.5t-50.5 -17.5z" />
    <glyph glyph-name="dotlessi" unicode="&#x131;" horiz-adv-x="252" 
d="M180 481v-481h-108v481h108z" />
    <glyph glyph-name="IJ" unicode="&#x132;" horiz-adv-x="1053" 
d="M267 94h111v-94h-338v94h111v513h-102v93h320v-93h-102v-513zM973 700v-467q0 -112 -75.5 -177.5t-189.5 -65.5q-113 0 -186 65.5t-73 177.5v79h109v-77q0 -67 41 -104t109 -37t108.5 37t40.5 104v364h-148v101h264z" />
    <glyph glyph-name="ij" unicode="&#x133;" horiz-adv-x="504" 
d="M60 631q0 40 32.5 56.5t65.5 0t33 -56.5q0 -41 -33 -58t-65.5 0t-32.5 58zM180 477v-477h-109v477h109zM324 480h108v-537q0 -122 -54.5 -168t-166.5 -26l4 82q66 -9 87.5 17t21.5 96v536zM312 631q0 40 33 56.5t65.5 0t32.5 -56.5t-32.5 -56t-65.5 0t-33 56z" />
    <glyph glyph-name="Jcircumflex" unicode="&#x134;" horiz-adv-x="635" 
d="M555 700v-467q0 -112 -75.5 -177.5t-189.5 -65.5q-113 0 -186 65.5t-73 177.5v79h109v-77q0 -67 41 -104t109 -37t108.5 37t40.5 104v364h-148v101h264zM592 760h-102l-82 86l-82 -86h-102v12l132 141h104l132 -142v-11z" />
    <glyph glyph-name="jcircumflex" unicode="&#x135;" horiz-adv-x="252" 
d="M72 480h108v-537q0 -122 -54.5 -168t-166.5 -26l4 82q66 -9 87.5 17t21.5 96v536zM292 548h-92l-74 91l-73 -91h-93v12l120 149h93l119 -150v-11z" />
    <glyph glyph-name="Kcommaaccent" unicode="&#x136;" horiz-adv-x="685" 
d="M372 -73q39 0 56 -28t3 -64l-36 -111h-62l20 83q-21 5 -34 20.5t-13 38.5q0 27 19 44t47 17zM204 700v-310q104 0 137 17q28 15 45 55.5t35 110.5q21 76 72 110.5t151 15.5v-80q-54 4 -77.5 -11.5t-38.5 -68.5q-38 -139 -91 -187l230 -335v-17h-132l-200 306
q-30 -11 -131 -11v-295h-117v700h117z" />
    <glyph glyph-name="kcommaaccent" unicode="&#x137;" horiz-adv-x="546" 
d="M292 -73q35 0 51.5 -26t2.5 -58l-33 -101h-56l18 76q-43 12 -43 53q0 26 16.5 41t43.5 15zM179 294h50q164 0 164 189h103q5 -176 -126 -236l150 -236v-11h-109l-133 212q-19 -5 -51 -5h-48v-207h-108v731h108v-437z" />
    <glyph glyph-name="kgreenlandic" unicode="&#x138;" horiz-adv-x="543" 
d="M176 283h50q85 0 123.5 50.5t40.5 149.5h100q5 -188 -123 -247l150 -225v-11h-112l-132 201q-19 -5 -50 -5h-47v-196h-108v482h108v-199z" />
    <glyph glyph-name="Lacute" unicode="&#x139;" horiz-adv-x="521" 
d="M204 700v-595h301v-105h-418v700h117zM93 764v11l79 147l100 -38v-10l-88 -110h-91z" />
    <glyph glyph-name="lacute" unicode="&#x13a;" horiz-adv-x="288" 
d="M66 732h108v-559q0 -61 21.5 -81.5t82.5 -10.5l4 -84q-115 -19 -165.5 19.5t-50.5 155.5v560zM70 783v10l73 135l93 -35v-9l-82 -101h-84z" />
    <glyph glyph-name="Lcommaaccent" unicode="&#x13b;" horiz-adv-x="521" 
d="M299 -73q39 0 56 -28t3 -64l-36 -111h-62l20 83q-21 5 -34 20.5t-13 38.5q0 27 19 44t47 17zM204 700v-595h301v-105h-418v700h117z" />
    <glyph glyph-name="lcommaaccent" unicode="&#x13c;" horiz-adv-x="288" 
d="M178 -76q36 0 52.5 -26.5t2.5 -59.5l-33 -103h-58l19 77q-44 12 -44 55q0 26 17 41.5t44 15.5zM66 732h108v-559q0 -61 21.5 -81.5t82.5 -10.5l4 -84q-115 -19 -165.5 19.5t-50.5 155.5v560z" />
    <glyph glyph-name="Lcaron" unicode="&#x13d;" horiz-adv-x="524" 
d="M204 700v-595h301v-105h-418v700h117zM467 638q-1 -14 -6 -27l-32 -101h-63l21 74q-20 5 -32.5 20.5t-12.5 36.5q0 26 18 42t45 16q45 0 60 -41q3 -18 2 -20z" />
    <glyph glyph-name="lcaron" unicode="&#x13e;" horiz-adv-x="288" 
d="M66 732h108v-559q0 -61 21.5 -81.5t82.5 -10.5l4 -84q-115 -19 -165.5 19.5t-50.5 155.5v560zM357 668q-1 -14 -6 -27l-32 -100h-63l21 74q-19 4 -32 19t-13 36q0 26 17.5 42t45.5 16q45 0 60 -41q3 -15 2 -19z" />
    <glyph glyph-name="Ldot" unicode="&#x13f;" horiz-adv-x="521" 
d="M204 700v-595h301v-105h-418v700h117zM366 316q-26 0 -44 17.5t-18 44.5q0 29 17.5 46t44.5 17q28 0 45.5 -17t17.5 -46q0 -27 -18 -44.5t-45 -17.5z" />
    <glyph glyph-name="ldot" unicode="&#x140;" horiz-adv-x="368" 
d="M66 732h108v-559q0 -61 21.5 -81.5t82.5 -10.5l4 -84q-115 -19 -165.5 19.5t-50.5 155.5v560zM308 315q-25 0 -42.5 17t-17.5 44q0 28 17 45t43 17q27 0 43.5 -16.5t16.5 -45.5q0 -27 -17 -44t-43 -17z" />
    <glyph glyph-name="Lslash" unicode="&#x141;" horiz-adv-x="528" 
d="M211 700v-302l106 31v-95l-106 -31v-198h299v-105h-416v271l-71 -20v94l71 21v334h117z" />
    <glyph glyph-name="lslash" unicode="&#x142;" horiz-adv-x="312" 
d="M85 731h108v-334l89 26v-95l-89 -26v-121q0 -65 23.5 -90t84.5 -16l4 -84q-117 -18 -168.5 31t-51.5 179v71l-74 -21v94l74 22v364z" />
    <glyph glyph-name="Nacute" unicode="&#x143;" horiz-adv-x="749" 
d="M622 -1l-428 477l8 -222v-254h-115v702h42l425 -471l-8 214v255h116v-701h-40zM300 760v11l79 147l100 -38v-10l-88 -110h-91z" />
    <glyph glyph-name="nacute" unicode="&#x144;" horiz-adv-x="606" 
d="M542 0h-110v283q1 55 -31 88t-82 34q-52 0 -87 -36.5t-35 -94.5v-274h-110v342q0 46 -8 59t-43 11v71q37 5 70.5 7t57 -18.5t23.5 -63.5q19 43 65 63.5t99 20.5q94 0 142.5 -57.5t48.5 -151.5v-283zM256 586v10l73 135l93 -35v-9l-82 -101h-84z" />
    <glyph glyph-name="Ncommaaccent" unicode="&#x145;" horiz-adv-x="749" 
d="M393 -55q39 0 56 -28t3 -64l-36 -111h-62l20 83q-21 5 -34 20.5t-13 38.5q0 27 19 44t47 17zM622 -1l-428 477l8 -222v-254h-115v702h42l425 -471l-8 214v255h116v-701h-40z" />
    <glyph glyph-name="ncommaaccent" unicode="&#x146;" horiz-adv-x="606" 
d="M320 -64q36 0 52.5 -26t2.5 -59l-34 -103h-57l18 77q-43 12 -43 55q0 26 17 41t44 15zM542 0h-110v283q1 55 -31 88t-82 34q-52 0 -87 -36.5t-35 -94.5v-274h-110v342q0 46 -8 59t-43 11v71q37 5 70.5 7t57 -18.5t23.5 -63.5q19 43 65 63.5t99 20.5q94 0 142.5 -57.5
t48.5 -151.5v-283z" />
    <glyph glyph-name="Ncaron" unicode="&#x147;" horiz-adv-x="749" 
d="M622 -1l-428 477l8 -222v-254h-115v702h42l425 -471l-8 214v255h116v-701h-40zM174 909h108l87 -84l87 84h109v-10l-141 -140h-110l-140 140v10z" />
    <glyph glyph-name="ncaron" unicode="&#x148;" horiz-adv-x="606" 
d="M542 0h-110v283q1 55 -31 88t-82 34q-52 0 -87 -36.5t-35 -94.5v-274h-110v342q0 46 -8 59t-43 11v71q37 5 70.5 7t57 -18.5t23.5 -63.5q19 43 65 63.5t99 20.5q94 0 142.5 -57.5t48.5 -151.5v-283zM107 717h105l84 -83l84 83h106v-10l-137 -139h-106l-136 139v10z" />
    <glyph glyph-name="napostrophe" unicode="&#x149;" horiz-adv-x="606" 
d="M542 0h-110v283q1 55 -31 88t-82 34q-52 0 -87 -36.5t-35 -94.5v-274h-110v342q0 46 -8 59t-43 11v71q37 5 70.5 7t57 -18.5t23.5 -63.5q19 43 65 63.5t99 20.5q94 0 142.5 -57.5t48.5 -151.5v-283z" />
    <glyph glyph-name="Eng" unicode="&#x14a;" horiz-adv-x="749" 
d="M453 -188l3 80q65 -9 86.5 17t21.5 95v57l-360 420v-481h-117v702h38l420 -470v468h117v-697q0 -120 -50 -165.5t-159 -25.5z" />
    <glyph glyph-name="eng" unicode="&#x14b;" horiz-adv-x="601" 
d="M537 283v-291q0 -119 -54.5 -165.5t-164.5 -26.5l3 76q66 -11 88.5 18.5t22.5 98.5v290q1 55 -32.5 88t-83.5 34q-53 0 -87.5 -34t-34.5 -92v-279h-110v341q0 56 -5 66q-9 17 -46 14v62q36 6 70.5 7t60.5 -18t27 -56v-16q20 44 63.5 68.5t93.5 23.5q94 0 142.5 -58
t46.5 -151z" />
    <glyph glyph-name="Omacron" unicode="&#x14c;" horiz-adv-x="805" 
d="M759 350q0 -160 -100 -261t-258 -101q-150 0 -252.5 98.5t-102.5 263.5t104 263.5t253 98.5t252.5 -98.5t103.5 -263.5zM164 350q0 -118 68 -185t171 -67t171.5 67t68.5 185q0 116 -68.5 184.5t-170.5 68.5q-103 0 -171.5 -67.5t-68.5 -185.5zM255 778v88h309v-88h-309z
" />
    <glyph glyph-name="omacron" unicode="&#x14d;" horiz-adv-x="591" 
d="M550 243q0 -80 -37.5 -139t-94.5 -85.5t-122.5 -26.5t-122.5 26.5t-94.5 85.5t-37.5 139q0 69 28 123t73 82t99.5 41t108.5 0t99 -41t73 -82t28 -123zM149 243q0 -43 16 -76.5t42 -51t57 -25.5t62 0t57 25.5t42 51t16 76.5t-16 76t-42 50.5t-57 25.5t-62 0t-57 -25.5
t-42 -50.5t-16 -76zM158 587v85h282v-85h-282z" />
    <glyph glyph-name="Obreve" unicode="&#x14e;" horiz-adv-x="805" 
d="M759 350q0 -160 -100 -261t-258 -101q-150 0 -252.5 98.5t-102.5 263.5t104 263.5t253 98.5t252.5 -98.5t103.5 -263.5zM164 350q0 -118 68 -185t171 -67t171.5 67t68.5 185q0 116 -68.5 184.5t-170.5 68.5q-103 0 -171.5 -67.5t-68.5 -185.5zM211 932h96q8 -43 51 -60.5
t86.5 -0.5t51.5 61h95q-3 -50 -31.5 -87t-69.5 -53.5t-88.5 -16.5t-88.5 17t-69.5 53.5t-32.5 86.5z" />
    <glyph glyph-name="obreve" unicode="&#x14f;" horiz-adv-x="591" 
d="M550 243q0 -80 -37.5 -139t-94.5 -85.5t-122.5 -26.5t-122.5 26.5t-94.5 85.5t-37.5 139q0 69 28 123t73 82t99.5 41t108.5 0t99 -41t73 -82t28 -123zM149 243q0 -43 16 -76.5t42 -51t57 -25.5t62 0t57 25.5t42 51t16 76.5t-16 76t-42 50.5t-57 25.5t-62 0t-57 -25.5
t-42 -50.5t-16 -76zM115 702h88q8 -40 47.5 -56t79 0t47.5 56h87q-3 -46 -29 -80t-63.5 -49t-81.5 -15t-81.5 15.5t-64 49t-29.5 79.5z" />
    <glyph glyph-name="Ohungarumlaut" unicode="&#x150;" horiz-adv-x="805" 
d="M336 764h-87v10l57 138l99 -22v-9zM535 764h-87v10l58 130l97 -28v-9zM759 350q0 -160 -100 -261t-258 -101q-150 0 -252.5 98.5t-102.5 263.5t104 263.5t253 98.5t252.5 -98.5t103.5 -263.5zM164 350q0 -118 68 -185t171 -67t171.5 67t68.5 185q0 116 -68.5 184.5
t-170.5 68.5q-103 0 -171.5 -67.5t-68.5 -185.5z" />
    <glyph glyph-name="ohungarumlaut" unicode="&#x151;" horiz-adv-x="591" 
d="M236 562h-87v10l57 138l99 -22v-9zM426 562h-87v10l58 130l97 -28v-9zM550 243q0 -80 -37.5 -139t-94.5 -85.5t-122.5 -26.5t-122.5 26.5t-94.5 85.5t-37.5 139q0 69 28 123t73 82t99.5 41t108.5 0t99 -41t73 -82t28 -123zM149 243q0 -43 16 -76.5t42 -51t57 -25.5t62 0
t57 25.5t42 51t16 76.5t-16 76t-42 50.5t-57 25.5t-62 0t-57 -25.5t-42 -50.5t-16 -76z" />
    <glyph glyph-name="OE" unicode="&#x152;" horiz-adv-x="927" 
d="M870 0h-367q-55 -12 -106 -12q-154 0 -252 96t-98 264q0 171 100.5 266.5t256.5 95.5q50 0 103 -12h357v-97h-280v-193h262v-92h-262v-219h286v-97zM156 348q0 -128 68 -197t182 -69q45 0 82 11v510q-44 11 -81 11q-114 0 -182.5 -71t-68.5 -195z" />
    <glyph glyph-name="oe" unicode="&#x153;" horiz-adv-x="892" 
d="M41 241q0 66 25 118.5t64.5 82.5t88.5 43t96 6t88 -35.5t64 -75.5q57 112 189 112q114 0 162.5 -78.5t25.5 -192.5h-318q4 -135 139 -141q69 -4 153 33l17 -84q-88 -39 -171 -38q-69 0 -123.5 30.5t-75.5 90.5q-20 -49 -60.5 -80t-87 -39.5t-96 3t-89.5 41.5t-65.5 83.5
t-25.5 120.5zM150 241q0 -43 15 -76t38.5 -50.5t52 -25.5t57 0t52 25.5t38.5 50.5t15 76t-15 76t-38.5 50.5t-52 25.5t-57 0t-52 -25.5t-38.5 -50.5t-15 -76zM651 406q-48 0 -80.5 -28.5t-42.5 -78.5h228q2 48 -27 77.5t-78 29.5z" />
    <glyph glyph-name="Racute" unicode="&#x154;" horiz-adv-x="682" 
d="M472 262l178 -245v-17h-118l-174 244h-154v-244h-117v700h289q111 0 177 -65.5t66 -162.5q0 -72 -40 -129t-107 -81zM202 340h173q57 0 94 37t37 94q0 55 -37 91.5t-94 36.5h-173v-259zM261 769v11l79 147l100 -38v-10l-88 -110h-91z" />
    <glyph glyph-name="racute" unicode="&#x155;" horiz-adv-x="452" 
d="M189 412q14 40 54.5 63t87.5 23q63 2 111 -34l-27 -94q-44 29 -96 29t-87.5 -32t-35.5 -88v-279h-108v350q0 20 -1 29t-5.5 18.5t-15.5 12.5t-30 2l-1 74q60 14 105.5 -3t48.5 -71zM180 577v11l76 141l96 -37v-9l-84 -106h-88z" />
    <glyph glyph-name="Rcommaaccent" unicode="&#x156;" horiz-adv-x="682" 
d="M368 -55q39 0 56 -28t3 -64l-36 -111h-62l20 83q-21 5 -34 20.5t-13 38.5q0 27 19 44t47 17zM472 262l178 -245v-17h-118l-174 244h-154v-244h-117v700h289q111 0 177 -65.5t66 -162.5q0 -72 -40 -129t-107 -81zM202 340h173q57 0 94 37t37 94q0 55 -37 91.5t-94 36.5
h-173v-259z" />
    <glyph glyph-name="rcommaaccent" unicode="&#x157;" horiz-adv-x="452" 
d="M143 -63q37 0 53.5 -27t2.5 -61l-34 -105h-59l19 79q-45 12 -45 56q0 26 18 42t45 16zM189 412q14 40 54.5 63t87.5 23q63 2 111 -34l-27 -94q-44 29 -96 29t-87.5 -32t-35.5 -88v-279h-108v350q0 20 -1 29t-5.5 18.5t-15.5 12.5t-30 2l-1 74q60 14 105.5 -3t48.5 -71z
" />
    <glyph glyph-name="Rcaron" unicode="&#x158;" horiz-adv-x="682" 
d="M472 262l178 -245v-17h-118l-174 244h-154v-244h-117v700h289q111 0 177 -65.5t66 -162.5q0 -72 -40 -129t-107 -81zM202 340h173q57 0 94 37t37 94q0 55 -37 91.5t-94 36.5h-173v-259zM113 914h108l87 -84l87 84h109v-10l-141 -140h-110l-140 140v10z" />
    <glyph glyph-name="rcaron" unicode="&#x159;" horiz-adv-x="452" 
d="M189 412q14 40 54.5 63t87.5 23q63 2 111 -34l-27 -94q-44 29 -96 29t-87.5 -32t-35.5 -88v-279h-108v350q0 20 -1 29t-5.5 18.5t-15.5 12.5t-30 2l-1 74q60 14 105.5 -3t48.5 -71zM47 709h101l81 -79l82 79h102v-9l-132 -133h-103l-131 133v9z" />
    <glyph glyph-name="Sacute" unicode="&#x15a;" horiz-adv-x="647" 
d="M45 199h114q2 -37 28.5 -62.5t62 -35.5t76.5 -10q67 0 114.5 25t47.5 84q0 26 -11.5 45.5t-26 30t-42.5 18t-45.5 10t-50.5 5.5q-255 22 -255 192q0 102 76.5 157t186.5 55q109 0 184.5 -51t77.5 -152h-110q-2 35 -27 58.5t-56.5 32t-69.5 8.5q-57 0 -102 -25.5
t-45 -79.5q0 -23 10 -40t22 -26t37.5 -16.5t41.5 -10.5t49 -7q50 -6 84 -12t72.5 -20.5t61.5 -35.5t38.5 -55.5t15.5 -81.5q0 -55 -24.5 -97.5t-65 -66.5t-87.5 -36t-99 -12q-71 -2 -133.5 20t-105.5 72t-44 120zM271 777v11l79 147l100 -38v-10l-88 -110h-91z" />
    <glyph glyph-name="sacute" unicode="&#x15b;" horiz-adv-x="508" 
d="M37 142h107q2 -35 34.5 -54t75.5 -19q111 0 115 74q0 31 -27 44.5t-81 20.5q-109 14 -148 33q-63 30 -65 100q0 73 60 112t145 39q88 0 147.5 -38t57.5 -107h-96q0 33 -32 48t-77 15q-41 0 -71 -18.5t-28 -48.5q1 -28 26.5 -39t88.5 -19q37 -5 60 -9t52.5 -14.5t46 -24.5
t28.5 -38.5t12 -57.5q0 -75 -61 -114t-149 -39q-92 0 -153.5 35.5t-67.5 118.5zM199 581v9l71 133l90 -35v-9l-79 -98h-82z" />
    <glyph glyph-name="Scircumflex" unicode="&#x15c;" horiz-adv-x="647" 
d="M45 199h114q2 -37 28.5 -62.5t62 -35.5t76.5 -10q67 0 114.5 25t47.5 84q0 26 -11.5 45.5t-26 30t-42.5 18t-45.5 10t-50.5 5.5q-255 22 -255 192q0 102 76.5 157t186.5 55q109 0 184.5 -51t77.5 -152h-110q-2 35 -27 58.5t-56.5 32t-69.5 8.5q-57 0 -102 -25.5
t-45 -79.5q0 -23 10 -40t22 -26t37.5 -16.5t41.5 -10.5t49 -7q50 -6 84 -12t72.5 -20.5t61.5 -35.5t38.5 -55.5t15.5 -81.5q0 -55 -24.5 -97.5t-65 -66.5t-87.5 -36t-99 -12q-71 -2 -133.5 20t-105.5 72t-44 120zM518 775h-108l-87 85l-87 -85h-109v11l141 140h110l140 -141
v-10z" />
    <glyph glyph-name="scircumflex" unicode="&#x15d;" horiz-adv-x="508" 
d="M37 142h107q2 -35 34.5 -54t75.5 -19q111 0 115 74q0 31 -27 44.5t-81 20.5q-109 14 -148 33q-63 30 -65 100q0 73 60 112t145 39q88 0 147.5 -38t57.5 -107h-96q0 33 -32 48t-77 15q-41 0 -71 -18.5t-28 -48.5q1 -28 26.5 -39t88.5 -19q37 -5 60 -9t52.5 -14.5t46 -24.5
t28.5 -38.5t12 -57.5q0 -75 -61 -114t-149 -39q-92 0 -153.5 35.5t-67.5 118.5zM436 569h-97l-78 79l-78 -79h-98v10l127 131h98l126 -132v-9z" />
    <glyph glyph-name="Scedilla" unicode="&#x15e;" horiz-adv-x="647" 
d="M45 199h111q3 -54 54 -82t116 -28q62 0 112 29.5t50 81.5q0 26 -11.5 45.5t-26.5 30t-42 18.5t-45.5 10.5t-50.5 5.5q-53 5 -94.5 15.5t-80 31t-59.5 57t-21 87.5q0 101 76 156t184 57q66 0 124 -21t99 -69.5t42 -116.5h-110q-2 36 -26.5 60t-57 33.5t-69.5 9.5
q-57 0 -102 -26t-45 -80q0 -23 10 -40t22 -26.5t37.5 -17t41.5 -10.5t49 -7q50 -6 83.5 -12t72.5 -20.5t62 -35t38.5 -55t15.5 -81.5q0 -88 -65.5 -141t-160.5 -66l-15 -63q48 -4 69.5 -35t8.5 -74q-14 -40 -55 -57t-87.5 -10.5t-80.5 29.5l6 63q27 -22 70 -23t56 30
q9 28 -18 42.5t-57 11.5l21 83q-103 7 -176 60t-75 150z" />
    <glyph glyph-name="scedilla" unicode="&#x15f;" horiz-adv-x="510" 
d="M38 142h107q2 -35 34.5 -54t75.5 -19q111 0 115 74q0 31 -27 44.5t-81 20.5q-109 14 -148 33q-63 30 -65 100q0 73 60 112t145 39q88 0 147.5 -38t57.5 -107h-96q0 33 -32 48t-77 15q-41 0 -71 -18.5t-28 -48.5q1 -28 26.5 -39t88.5 -19q37 -5 60 -9t52.5 -14.5t46 -24.5
t28.5 -38.5t12 -57.5q0 -64 -45.5 -102t-116.5 -47l-11 -46q44 -3 63.5 -30.5t7.5 -64.5q-11 -35 -48.5 -50.5t-80 -9.5t-73.5 26l5 55q23 -19 64.5 -19t49.5 26q9 25 -15 37.5t-52 9.5l16 63q-82 4 -137 40.5t-58 112.5z" />
    <glyph glyph-name="Scaron" unicode="&#x160;" horiz-adv-x="647" 
d="M45 199h114q2 -37 28.5 -62.5t62 -35.5t76.5 -10q67 0 114.5 25t47.5 84q0 26 -11.5 45.5t-26 30t-42.5 18t-45.5 10t-50.5 5.5q-255 22 -255 192q0 102 76.5 157t186.5 55q109 0 184.5 -51t77.5 -152h-110q-2 35 -27 58.5t-56.5 32t-69.5 8.5q-57 0 -102 -25.5
t-45 -79.5q0 -23 10 -40t22 -26t37.5 -16.5t41.5 -10.5t49 -7q50 -6 84 -12t72.5 -20.5t61.5 -35.5t38.5 -55.5t15.5 -81.5q0 -55 -24.5 -97.5t-65 -66.5t-87.5 -36t-99 -12q-71 -2 -133.5 20t-105.5 72t-44 120zM129 924h108l87 -84l87 84h109v-10l-141 -140h-110l-140 140
v10z" />
    <glyph glyph-name="scaron" unicode="&#x161;" horiz-adv-x="508" 
d="M37 142h107q2 -35 34.5 -54t75.5 -19q111 0 115 74q0 31 -27 44.5t-81 20.5q-109 14 -148 33q-63 30 -65 100q0 73 60 112t145 39q88 0 147.5 -38t57.5 -107h-96q0 33 -32 48t-77 15q-41 0 -71 -18.5t-28 -48.5q1 -28 26.5 -39t88.5 -19q37 -5 60 -9t52.5 -14.5t46 -24.5
t28.5 -38.5t12 -57.5q0 -75 -61 -114t-149 -39q-92 0 -153.5 35.5t-67.5 118.5zM78 698h98l78 -76l79 76h99v-9l-128 -126h-99l-127 126v9z" />
    <glyph glyph-name="Tcommaaccent" unicode="&#x162;" horiz-adv-x="540" 
d="M213 597h-194v103h502v-103h-194v-597h-18l-14 -59q48 -4 69 -34.5t8 -74.5q-12 -40 -53.5 -57t-88 -10.5t-80.5 29.5l6 63q26 -22 69 -22.5t56 29.5q9 29 -17 43t-57 11l20 82h-14v597z" />
    <glyph glyph-name="tcommaaccent" unicode="&#x163;" horiz-adv-x="435" 
d="M227 630v-149h167v-78h-167v-211q0 -82 52.5 -106.5t126.5 5.5l11 -83q-59 -18 -110 -18l-12 -49q48 -4 69 -34.5t8 -74.5q-12 -40 -53.5 -57t-88 -10.5t-80.5 29.5l6 63q26 -22 69 -22.5t56 29.5q9 29 -17 43t-57 11l21 81q-108 32 -108 191v213l-98 7v71h98l11 149h96z
" />
    <glyph glyph-name="Tcaron" unicode="&#x164;" horiz-adv-x="558" 
d="M222 597h-203v103h520v-103h-203v-597h-114v597zM78 912h108l87 -84l87 84h109v-10l-141 -140h-110l-140 140v10z" />
    <glyph glyph-name="tcaron" unicode="&#x165;" horiz-adv-x="437" 
d="M223 630v-149h113v-78h-113v-217q0 -158 176 -96l11 -82q-63 -20 -115.5 -20.5t-93 18.5t-63 64t-22.5 114v219l-95 7v71h95l11 149h96zM466 577q-1 -16 -6 -26l-32 -100h-62l21 73q-44 11 -44 56q0 26 17.5 41.5t44.5 15.5q45 0 59 -41q2 -16 2 -19z" />
    <glyph glyph-name="Tbar" unicode="&#x166;" horiz-adv-x="558" 
d="M117 270v88h105v239h-194v103h502v-103h-194v-239h101v-88h-101v-270h-114v270h-105z" />
    <glyph glyph-name="tbar" unicode="&#x167;" horiz-adv-x="436" 
d="M230 630v-149h167v-78h-167v-120h101v-76h-101v-23q0 -55 24.5 -82.5t64 -27t90.5 16.5l11 -83q-64 -20 -116.5 -21t-93.5 17.5t-64 63.5t-23 114v25h-80v76h80v120q-16 1 -48.5 3t-49.5 4v71h98l11 149h96z" />
    <glyph glyph-name="Utilde" unicode="&#x168;" horiz-adv-x="705" 
d="M354 -9q-118 0 -196 65.5t-78 178.5v465h116v-462q0 -67 44.5 -105t113.5 -38q68 0 112 38t44 105v462h115v-465q0 -113 -77.5 -178.5t-193.5 -65.5zM250 773l-58 29q61 138 183 73q17 -10 29.5 -15t27 -6.5t26 7t20.5 27.5q32 -15 58 -28q-24 -65 -68 -85.5t-104 10.5
q-84 50 -114 -12z" />
    <glyph glyph-name="utilde" unicode="&#x169;" horiz-adv-x="597" 
d="M401 482h109v-344q0 -46 9 -59.5t42 -9.5l1 -71q-24 -4 -40 -6t-39 -0.5t-36.5 10t-24 27.5t-10.5 49q-44 -86 -167 -86q-94 0 -137 57.5t-43 153.5v279h110v-279q-1 -57 27.5 -90.5t76.5 -33.5q53 0 87.5 35t34.5 92v276zM177 590l-26 13t-31 15q60 135 178 71
q73 -47 100 13q6 -3 25.5 -12.5t30.5 -14.5q-22 -62 -66 -82t-101 9q-82 52 -110 -12z" />
    <glyph glyph-name="Umacron" unicode="&#x16a;" horiz-adv-x="705" 
d="M354 -9q-118 0 -196 65.5t-78 178.5v465h116v-462q0 -67 44.5 -105t113.5 -38q68 0 112 38t44 105v462h115v-465q0 -113 -77.5 -178.5t-193.5 -65.5zM200 770v88h309v-88h-309z" />
    <glyph glyph-name="umacron" unicode="&#x16b;" horiz-adv-x="597" 
d="M401 482h109v-344q0 -46 9 -59.5t42 -9.5l1 -71q-24 -4 -40 -6t-39 -0.5t-36.5 10t-24 27.5t-10.5 49q-44 -86 -167 -86q-94 0 -137 57.5t-43 153.5v279h110v-279q-1 -57 27.5 -90.5t76.5 -33.5q53 0 87.5 35t34.5 92v276zM134 580v88h309v-88h-309z" />
    <glyph glyph-name="Ubreve" unicode="&#x16c;" horiz-adv-x="705" 
d="M354 -9q-118 0 -196 65.5t-78 178.5v465h116v-462q0 -67 44.5 -105t113.5 -38q68 0 112 38t44 105v462h115v-465q0 -113 -77.5 -178.5t-193.5 -65.5zM163 908h96q8 -43 51 -60.5t86.5 -0.5t51.5 61h95q-3 -50 -31.5 -87t-69.5 -53.5t-88.5 -16.5t-88.5 17t-69.5 53.5
t-32.5 86.5z" />
    <glyph glyph-name="ubreve" unicode="&#x16d;" horiz-adv-x="597" 
d="M401 482h109v-344q0 -46 9 -59.5t42 -9.5l1 -71q-24 -4 -40 -6t-39 -0.5t-36.5 10t-24 27.5t-10.5 49q-44 -86 -167 -86q-94 0 -137 57.5t-43 153.5v279h110v-279q-1 -57 27.5 -90.5t76.5 -33.5q53 0 87.5 35t34.5 92v276zM111 703h89q6 -30 32.5 -47t57 -17.5t56.5 16.5
t30 48h89q-3 -47 -29.5 -81t-64.5 -49.5t-82 -15.5t-82.5 15.5t-65.5 49.5t-30 81z" />
    <glyph glyph-name="Uring" unicode="&#x16e;" horiz-adv-x="705" 
d="M354 -9q-118 0 -196 65.5t-78 178.5v465h116v-462q0 -67 44.5 -105t113.5 -38q68 0 112 38t44 105v462h115v-465q0 -113 -77.5 -178.5t-193.5 -65.5zM472 840q0 -42 -24.5 -71t-60 -35.5t-70.5 0t-59.5 35.5t-24.5 71t24.5 71t59.5 35.5t70.5 0t60 -35.5t24.5 -71z
M294 840q0 -25 18.5 -39.5t40 -14.5t40 14.5t18.5 39.5q0 33 -29.5 46t-58.5 0t-29 -46z" />
    <glyph glyph-name="uring" unicode="&#x16f;" horiz-adv-x="597" 
d="M401 482h109v-344q0 -46 9 -59.5t42 -9.5l1 -71q-24 -4 -40 -6t-39 -0.5t-36.5 10t-24 27.5t-10.5 49q-44 -86 -167 -86q-94 0 -137 57.5t-43 153.5v279h110v-279q-1 -57 27.5 -90.5t76.5 -33.5q53 0 87.5 35t34.5 92v276zM407 636q0 -49 -36.5 -76.5t-80 -27.5t-80 27.5
t-36.5 76.5q0 39 24 66t58 33.5t68.5 0t58.5 -33.5t24 -66zM234 636q0 -31 28.5 -44t57 0t28.5 44t-28.5 44t-57 0t-28.5 -44z" />
    <glyph glyph-name="Uhungarumlaut" unicode="&#x170;" horiz-adv-x="705" 
d="M354 -9q-118 0 -196 65.5t-78 178.5v465h116v-462q0 -67 44.5 -105t113.5 -38q68 0 112 38t44 105v462h115v-465q0 -113 -77.5 -178.5t-193.5 -65.5zM284 775h-87v10l57 138l99 -22v-9zM483 775h-87v10l58 130l97 -28v-9z" />
    <glyph glyph-name="uhungarumlaut" unicode="&#x171;" horiz-adv-x="597" 
d="M401 482h109v-344q0 -46 9 -59.5t42 -9.5l1 -71q-24 -4 -40 -6t-39 -0.5t-36.5 10t-24 27.5t-10.5 49q-44 -86 -167 -86q-94 0 -137 57.5t-43 153.5v279h110v-279q-1 -57 27.5 -90.5t76.5 -33.5q53 0 87.5 35t34.5 92v276zM221 589h-82v10l54 130l93 -21v-8zM409 589h-82
v10l55 123l91 -27v-8z" />
    <glyph glyph-name="Uogonek" unicode="&#x172;" horiz-adv-x="706" 
d="M354 -9q-118 0 -196 65.5t-78 178.5v465h116v-462q0 -67 44 -105t114 -38q68 0 112 38t44 105v462h115v-465q0 -79 -37.5 -134.5t-102.5 -83.5q-25 -18 -36.5 -47.5t0.5 -56.5q12 -23 38.5 -26.5t49 4t45.5 20.5l14 -71q-27 -17 -60.5 -26t-68 -8.5t-63 19t-39.5 54.5
q-21 59 25 115q-16 -3 -36 -3z" />
    <glyph glyph-name="uogonek" unicode="&#x173;" horiz-adv-x="595" 
d="M400 482h109v-322q0 -8 -0.5 -24.5t0 -23t1.5 -18t4.5 -16t9 -10t14.5 -7t22 -0.5l1 -63q-42 -7 -72 -6q-24 -20 -34.5 -45.5t0.5 -51.5q11 -21 35 -24.5t46 3.5t42 19l13 -66q-25 -16 -56.5 -23.5t-62.5 -6t-57 19.5t-36 52q-13 38 3 73.5t51 60.5q-31 19 -31 67v18
q-20 -47 -62.5 -71.5t-95.5 -24.5q-101 0 -140.5 61.5t-39.5 169.5v259h110v-259q-2 -144 104 -144q53 0 87.5 35t34.5 92v276z" />
    <glyph glyph-name="Wcircumflex" unicode="&#x174;" horiz-adv-x="976" 
d="M464 688h52l168 -475h2l70 251l74 236h123v-17l-233 -688h-60l-169 449h-2l-169 -449h-64l-232 688v17h121l76 -236l73 -252h2zM686 759h-108l-87 85l-87 -85h-109v11l141 140h110l140 -141v-10z" />
    <glyph glyph-name="wcircumflex" unicode="&#x175;" horiz-adv-x="774" 
d="M258 -5h-49l-190 475v12h117l61 -166l45 -132h2l115 287h54l115 -288h3l46 133q11 32 32.5 90.5t27.5 75.5h118v-12l-191 -475h-49l-129 291zM573 572h-103l-82 81l-83 -81h-103v11l134 132h104l133 -133v-10z" />
    <glyph glyph-name="Ycircumflex" unicode="&#x176;" horiz-adv-x="630" 
d="M313 383h4l87 166l91 151h124v-17l-246 -399v-284h-116v284l-247 399v17h125l94 -156zM509 760h-108l-87 85l-87 -85h-109v11l141 140h110l140 -141v-10z" />
    <glyph glyph-name="ycircumflex" unicode="&#x177;" 
d="M528 470l-209 -511q-20 -50 -35.5 -81.5t-40 -64.5t-52 -46.5t-67 -13t-88.5 21.5l13 79q41 -21 72 -13t50.5 31t34.5 66l23 59l-217 473v12h117l71 -168l79 -212h3l73 211l64 169h109v-12zM472 565h-108l-87 85l-87 -85h-109v11l141 140h110l140 -141v-10z" />
    <glyph glyph-name="Ydieresis" unicode="&#x178;" horiz-adv-x="630" 
d="M313 383h4l87 166l91 151h124v-17l-246 -399v-284h-116v284l-247 399v17h125l94 -156zM437 760q-27 0 -45.5 16t-18.5 42q0 27 18 43t46 16t46 -16t18 -43q0 -26 -18.5 -42t-45.5 -16zM193 760q-27 0 -45.5 16t-18.5 42q0 27 18 43t46 16q27 0 45.5 -16.5t18.5 -42.5
t-18.5 -42t-45.5 -16z" />
    <glyph glyph-name="Zacute" unicode="&#x179;" horiz-adv-x="598" 
d="M560 699v-17l-272 -434l-103 -145h377v-103h-541v16l235 374l140 208h-345v102zM253 782v11l79 147l100 -38v-10l-88 -110h-91z" />
    <glyph glyph-name="zacute" unicode="&#x17a;" horiz-adv-x="469" 
d="M30 0v22l140 219l105 152h-230v89h387v-14l-149 -231l-98 -143h246v-94h-401zM182 577v10l75 138l94 -35v-10l-83 -103h-86z" />
    <glyph glyph-name="Zdotaccent" unicode="&#x17b;" horiz-adv-x="598" 
d="M560 699v-17l-272 -434l-103 -145h377v-103h-541v16l235 374l140 208h-345v102zM306 769q-28 0 -47 17t-19 44t19 44t47 17t47 -17t19 -44t-19 -44t-47 -17z" />
    <glyph glyph-name="zdotaccent" unicode="&#x17c;" horiz-adv-x="469" 
d="M30 0v22l140 219l105 152h-230v89h387v-14l-149 -231l-98 -143h246v-94h-401zM242 557q-26 0 -44.5 16.5t-18.5 42.5t18.5 42t44.5 16q28 0 45.5 -16t17.5 -42q0 -27 -18 -43t-45 -16z" />
    <glyph glyph-name="Zcaron" unicode="&#x17d;" horiz-adv-x="598" 
d="M560 699v-17l-272 -434l-103 -145h377v-103h-541v16l235 374l140 208h-345v102zM110 918h108l87 -84l87 84h109v-10l-141 -140h-110l-140 140v10z" />
    <glyph glyph-name="zcaron" unicode="&#x17e;" horiz-adv-x="469" 
d="M30 0v22l140 219l105 152h-230v89h387v-14l-149 -231l-98 -143h246v-94h-401zM73 699h91l73 -76l73 76h91v-9l-118 -128h-93l-117 128v9z" />
    <glyph glyph-name="longs" unicode="&#x17f;" horiz-adv-x="325" 
d="M116 0v404h-96v78h98v63q0 69 23.5 113.5t64.5 61.5t92 15.5t110 -21.5l-12 -82q-44 16 -82 18t-63 -25.5t-25 -81.5v-543h-110z" />
    <glyph glyph-name="florin" unicode="&#x192;" 
d="M326 -35q0 -69 -24 -113t-65.5 -60t-92 -14t-108.5 22l11 82q44 -19 81 -19.5t63.5 25t26.5 79.5v334h-152v78h152v153q0 56 17.5 95.5t47 59.5t68.5 27t80.5 2t84.5 -20l-11 -82q-45 18 -83.5 19.5t-66.5 -23.5t-28 -79v-152h160v-78h-160q0 -56 -0.5 -167.5
t-0.5 -168.5z" />
    <glyph glyph-name="Aringacute" unicode="&#x1fa;" horiz-adv-x="705" 
d="M295 734q0 -22 18.5 -34t40 -12t40 12t18.5 34q0 30 -29 42t-58.5 0t-29.5 -42zM356 507h-7l-119 -264h245zM512 145h-320l-68 -145h-122v15l297 633q-66 23 -66 87q0 46 37.5 72.5t82.5 26t82.5 -26.5t37.5 -72q0 -63 -67 -87l296 -633v-15h-121zM392 858h-88v8l81 111
l97 -20v-7z" />
    <glyph glyph-name="aringacute" unicode="&#x1fb;" horiz-adv-x="549" 
d="M384 81q-23 -45 -72 -67.5t-105 -22.5q-70 0 -121.5 41t-51.5 109q-2 83 50.5 126.5t136.5 43.5q79 0 143 -36v48q0 81 -117 87q-85 4 -160 -32l-16 78q74 38 178 38q98 0 159.5 -40.5t61.5 -133.5v-190q0 -23 0.5 -31.5t5 -21t15 -15.5t29.5 -1l2 -62q-39 -6 -69 -6
t-49 21.5t-20 66.5zM364 165v40q-59 35 -125 33q-42 -1 -70 -25t-28 -66q0 -34 26 -52t62 -18q48 0 87.5 22.5t47.5 65.5zM390 633q0 -47 -38 -74t-83.5 -27t-83.5 27t-38 74t38 74t83.5 27t83.5 -27t38 -74zM209 633q0 -30 29.5 -42.5t59.5 0t30 42.5q0 29 -30 41t-59.5 0
t-29.5 -41zM216 765v8l86 113l108 -29v-8l-95 -84h-99z" />
    <glyph glyph-name="AEacute" unicode="&#x1fc;" horiz-adv-x="824" 
d="M204 185l-89 -185h-113v17l341 681h415v-100h-261v-190h248v-94h-248v-217h272v-97h-372v185h-193zM400 605l-159 -325h156l4 325h-1zM444 762v11l79 147l100 -38v-10l-88 -110h-91z" />
    <glyph glyph-name="aeacute" unicode="&#x1fd;" horiz-adv-x="820" 
d="M203 -10q-68 0 -117.5 40.5t-51.5 107.5q-4 75 40 121t112 52q32 5 58 1q63 -5 114 -34v38q0 50 -39.5 73.5t-96.5 21.5q-78 -5 -135 -35l-15 76q77 40 170 40q147 0 172 -101q21 50 65 75.5t102 25.5q118 0 166.5 -77.5t25.5 -193.5h-324q2 -141 138 -143q82 -4 159 33
l17 -82q-94 -41 -174 -41q-129 2 -186 101q-73 -99 -200 -99zM357 203q-64 38 -121 34q-42 -1 -71 -25.5t-29 -65.5q0 -35 26.5 -53.5t63.5 -18.5q45 0 85.5 24t51.5 63q-5 19 -6 42zM575 407q-50 1 -82.5 -28t-41.5 -80h236q2 48 -29.5 78t-82.5 30zM369 576v10l75 140
l95 -36v-10l-84 -104h-86z" />
    <glyph glyph-name="Oslashacute" unicode="&#x1fe;" horiz-adv-x="802" 
d="M631 630q125 -100 125 -281q0 -165 -103 -262.5t-253 -97.5q-74 0 -135 27l-43 -72h-34.5h-41h-34.5v12l66 109q-132 99 -132 284q0 165 104 263t252 98q76 0 144 -29l41 71h110v-10zM320 117q41 -18 82 -18q100 0 169 68.5t69 181.5t-76 180zM491 581q-42 18 -89 18
q-102 0 -170.5 -68t-68.5 -182q0 -117 80 -185zM353 772v11l79 147l100 -38v-10l-88 -110h-91z" />
    <glyph glyph-name="oslashacute" unicode="&#x1ff;" horiz-adv-x="591" 
d="M550 243q0 -58 -20 -106t-53.5 -77t-76.5 -48t-89 -19.5t-91 9.5l-29 -58h-86l45 89q-109 68 -109 210q0 59 21 107.5t55.5 77.5t78.5 47.5t90 17.5t91 -12l32 63h87l-48 -96q102 -68 102 -205zM146 243q0 -77 56 -116l135 267q-69 20 -130 -21t-61 -130zM446 243
q0 72 -51 112l-136 -265q68 -18 127.5 24.5t59.5 128.5zM239 587v10l75 139l94 -36v-9l-83 -104h-86z" />
    <glyph glyph-name="Scommaaccent" unicode="&#x218;" horiz-adv-x="647" 
d="M340 -73q39 0 56 -28t3 -64l-36 -111h-62l20 83q-21 5 -34 20.5t-13 38.5q0 27 19 44t47 17zM45 199h114q2 -37 28.5 -62.5t62 -35.5t76.5 -10q67 0 114.5 25t47.5 84q0 26 -11.5 45.5t-26 30t-42.5 18t-45.5 10t-50.5 5.5q-255 22 -255 192q0 102 76.5 157t186.5 55
q109 0 184.5 -51t77.5 -152h-110q-2 35 -27 58.5t-56.5 32t-69.5 8.5q-57 0 -102 -25.5t-45 -79.5q0 -23 10 -40t22 -26t37.5 -16.5t41.5 -10.5t49 -7q50 -6 84 -12t72.5 -20.5t61.5 -35.5t38.5 -55.5t15.5 -81.5q0 -55 -24.5 -97.5t-65 -66.5t-87.5 -36t-99 -12
q-71 -2 -133.5 20t-105.5 72t-44 120z" />
    <glyph glyph-name="scommaaccent" unicode="&#x219;" horiz-adv-x="508" 
d="M261 -80q36 0 52.5 -26.5t2.5 -59.5l-34 -104h-58l19 77q-20 5 -32 20t-12 36q0 26 17.5 41.5t44.5 15.5zM37 142h107q2 -35 34.5 -54t75.5 -19q111 0 115 74q0 31 -27 44.5t-81 20.5q-109 14 -148 33q-63 30 -65 100q0 73 60 112t145 39q88 0 147.5 -38t57.5 -107h-96
q0 33 -32 48t-77 15q-41 0 -71 -18.5t-28 -48.5q1 -28 26.5 -39t88.5 -19q37 -5 60 -9t52.5 -14.5t46 -24.5t28.5 -38.5t12 -57.5q0 -75 -61 -114t-149 -39q-92 0 -153.5 35.5t-67.5 118.5z" />
    <glyph glyph-name="uni021A" unicode="&#x21a;" horiz-adv-x="558" 
d="M280 -67q39 0 56 -28t3 -64l-36 -111h-62l20 83q-21 5 -34 20.5t-13 38.5q0 27 19 44t47 17zM222 597h-203v103h520v-103h-203v-597h-114v597z" />
    <glyph glyph-name="uni021B" unicode="&#x21b;" horiz-adv-x="432" 
d="M249 -78q36 0 52.5 -26.5t2.5 -59.5l-34 -104h-58l19 77q-20 5 -32 20t-12 36q0 26 17.5 41.5t44.5 15.5zM226 630v-149h167v-78h-167v-217q0 -158 176 -96l11 -82q-63 -20 -115.5 -20.5t-93 18.5t-63 64t-22.5 114v219l-98 7v71h98l11 149h96z" />
    <glyph glyph-name="circumflex" unicode="&#x2c6;" horiz-adv-x="494" 
d="M449 551h-108l-87 85l-87 -85h-109v11l141 140h110l140 -141v-10z" />
    <glyph glyph-name="caron" unicode="&#x2c7;" horiz-adv-x="531" 
d="M68 701h108l87 -84l87 84h109v-10l-141 -140h-110l-140 140v10z" />
    <glyph glyph-name="breve" unicode="&#x2d8;" horiz-adv-x="529" 
d="M72 702h96q8 -43 51 -60.5t86.5 -0.5t51.5 61h95q-3 -50 -31.5 -87t-69.5 -53.5t-88.5 -16.5t-88.5 17t-69.5 53.5t-32.5 86.5z" />
    <glyph glyph-name="dotaccent" unicode="&#x2d9;" horiz-adv-x="321" 
d="M146 586q-28 0 -47 17t-19 44t19 44t47 17t47 -17t19 -44t-19 -44t-47 -17z" />
    <glyph glyph-name="ring" unicode="&#x2da;" horiz-adv-x="379" 
d="M307 613q0 -42 -24.5 -71t-60 -35.5t-70.5 0t-59.5 35.5t-24.5 71t24.5 71t59.5 35.5t70.5 0t60 -35.5t24.5 -71zM129 613q0 -25 18.5 -39.5t40 -14.5t40 14.5t18.5 39.5q0 33 -29 46t-58.5 0t-29.5 -46z" />
    <glyph glyph-name="ogonek" unicode="&#x2db;" horiz-adv-x="364" 
d="M136 8h80q-33 -17 -52 -52t-4 -64q12 -23 38.5 -27t49.5 3.5t45 20.5l14 -71q-37 -23 -83 -30.5t-89 10.5t-57 66q-15 40 2.5 78t55.5 66z" />
    <glyph glyph-name="tilde" unicode="&#x2dc;" horiz-adv-x="442" 
d="M111 593l-58 29q61 138 183 73q17 -10 29.5 -15t27 -6.5t26 7t20.5 27.5q32 -15 58 -28q-24 -65 -68 -85.5t-104 10.5q-84 50 -114 -12z" />
    <glyph glyph-name="hungarumlaut" unicode="&#x2dd;" horiz-adv-x="518" 
d="M174 568h-87v10l57 138l99 -22v-9zM373 568h-87v10l58 130l97 -28v-9z" />
    <glyph glyph-name="afii10023" unicode="&#x401;" horiz-adv-x="577" 
d="M513 700v-102h-309v-185h292v-103h-292v-204h315v-106h-432v700h426zM424 765q-27 0 -45.5 16t-18.5 42q0 27 18 43t46 16t46 -16t18 -43q0 -26 -18.5 -42t-45.5 -16zM180 765q-27 0 -45.5 16t-18.5 42q0 27 18 43t46 16q27 0 45.5 -16.5t18.5 -42.5t-18.5 -42t-45.5 -16
z" />
    <glyph glyph-name="afii10051" unicode="&#x402;" horiz-adv-x="751" 
d="M707 101q0 -121 -54 -166.5t-166 -24.5l3 82q66 -10 87 14.5t21 95.5v156q0 58 -36.5 90.5t-92.5 33.5t-100 -38.5t-46 -94.5v-249h-113v598h-191v102h533v-102h-229v-208q21 39 71.5 61t106.5 22q99 0 152.5 -59t53.5 -156v-157z" />
    <glyph glyph-name="afii10052" unicode="&#x403;" horiz-adv-x="519" 
d="M504 597h-300v-597h-117v700h417v-103zM331 766h-89v11l93 153l99 -36v-10z" />
    <glyph glyph-name="afii10053" unicode="&#x404;" horiz-adv-x="760" 
d="M398 604q-94 1 -160.5 -56.5t-74.5 -149.5h286v-99h-284q10 -91 76.5 -147t160.5 -55q74 0 130.5 36.5t78.5 104.5h114q-25 -121 -115.5 -183.5t-206.5 -62.5q-97 -1 -177 39t-130 123t-50 196q0 164 102 262t250 97q112 0 202 -60.5t117 -174.5h-113q-26 63 -80.5 96.5
t-125.5 33.5z" />
    <glyph glyph-name="afii10054" unicode="&#x405;" horiz-adv-x="647" 
d="M45 199h114q2 -37 28.5 -62.5t62 -35.5t76.5 -10q67 0 114.5 25t47.5 84q0 26 -11.5 45.5t-26 30t-42.5 18t-45.5 10t-50.5 5.5q-255 22 -255 192q0 102 76.5 157t186.5 55q109 0 184.5 -51t77.5 -152h-110q-2 35 -27 58.5t-56.5 32t-69.5 8.5q-57 0 -102 -25.5
t-45 -79.5q0 -23 10 -40t22 -26t37.5 -16.5t41.5 -10.5t49 -7q50 -6 84 -12t72.5 -20.5t61.5 -35.5t38.5 -55.5t15.5 -81.5q0 -55 -24.5 -97.5t-65 -66.5t-87.5 -36t-99 -12q-71 -2 -133.5 20t-105.5 72t-44 120z" />
    <glyph glyph-name="afii10055" unicode="&#x406;" horiz-adv-x="418" 
d="M267 94h111v-94h-338v94h111v513h-102v93h320v-93h-102v-513z" />
    <glyph glyph-name="afii10056" unicode="&#x407;" horiz-adv-x="418" 
d="M317 761q-27 0 -45.5 16t-18.5 42q0 27 18 43t46 16t46 -16t18 -43q0 -26 -18.5 -42t-45.5 -16zM104 761q-27 0 -45.5 16t-18.5 42q0 27 18 43t46 16q27 0 45.5 -16.5t18.5 -42.5t-18.5 -42t-45.5 -16zM267 94h111v-94h-338v94h111v513h-102v93h320v-93h-102v-513z" />
    <glyph glyph-name="afii10057" unicode="&#x408;" horiz-adv-x="635" 
d="M555 700v-467q0 -112 -75.5 -177.5t-189.5 -65.5q-113 0 -186 65.5t-73 177.5v79h109v-77q0 -67 41 -104t109 -37t108.5 37t40.5 104v364h-148v101h264z" />
    <glyph glyph-name="afii10058" unicode="&#x409;" horiz-adv-x="994" 
d="M584 367v-264q19 0 53.5 -0.5t51.5 -0.5q165 4 165 127q0 77 -42.5 107.5t-122.5 30.5h-105zM584 471h137q122 0 189 -79t54 -186q-9 -89 -75.5 -147.5t-168.5 -58.5h-247v596h-177q-8 -69 -37 -374q-5 -48 -12 -81t-19 -62.5t-29 -44.5t-42 -27t-59 -10.5t-80 5.5l2 86
q15 -2 28 -2.5t23.5 2t18.5 5t14.5 10t11.5 12.5t8.5 17t6 19.5t5 23t4 25t3.5 28.5l50 472h391v-229z" />
    <glyph glyph-name="afii10059" unicode="&#x40a;" horiz-adv-x="994" 
d="M584 700v-254h137q113 0 180 -62.5t66 -158.5q0 -96 -67.5 -160.5t-179.5 -64.5h-249v335h-267v-335h-117v700h117v-258h267v258h113zM720 343h-136v-240q68 -1 136 0q63 1 100 37.5t34 93.5q-4 51 -40 80t-94 29z" />
    <glyph glyph-name="afii10060" unicode="&#x40b;" horiz-adv-x="752" 
d="M707 0h-109v258q0 58 -36.5 90.5t-92.5 33.5t-100 -39t-46 -95v-248h-113v598h-191v102h533v-102h-229v-208q51 84 178 84q98 0 152 -59.5t54 -156.5v-258z" />
    <glyph glyph-name="afii10061" unicode="&#x40c;" horiz-adv-x="685" 
d="M377 766h-88v11l92 153l99 -36v-10zM204 700v-310q104 0 137 17q28 15 45 55.5t35 110.5q21 76 72 110.5t151 15.5v-80q-54 4 -77.5 -11.5t-38.5 -68.5q-38 -139 -91 -187l230 -335v-17h-132l-200 306q-30 -11 -131 -11v-295h-117v700h117z" />
    <glyph glyph-name="afii10062" unicode="&#x40e;" horiz-adv-x="628" 
d="M150 906l81 8q9 -63 87 -65q80 0 91 65q49 -4 75 -8q-6 -70 -48 -110.5t-117 -40.5q-74 0 -119 41t-50 110zM226 158l37 75l-254 453v14h128l185 -349h4l167 349h124v-12l-276 -551q-23 -51 -46.5 -82.5t-56 -52.5t-76 -20.5t-100.5 22.5l16 97q54 -23 89 -9t59 66z" />
    <glyph glyph-name="afii10145" unicode="&#x40f;" horiz-adv-x="726" 
d="M309 -139v139h-222v700h117v-594h318v594h117v-700h-218v-139h-112z" />
    <glyph glyph-name="afii10017" unicode="&#x410;" horiz-adv-x="703" 
d="M511 145h-320l-68 -145h-122v15l324 690h54l322 -690v-15h-121zM352 523l-123 -280h245z" />
    <glyph glyph-name="afii10018" unicode="&#x411;" horiz-adv-x="659" 
d="M376 333h-174v-230h54h65.5h54.5q63 0 97.5 33t34.5 82q0 50 -34.5 82.5t-97.5 32.5zM202 597v-166h174q120 0 183 -59t63 -153q0 -95 -64 -157t-182 -62h-289v700h477v-103h-362z" />
    <glyph glyph-name="afii10019" unicode="&#x412;" horiz-adv-x="669" 
d="M591 503q0 -95 -82 -135q113 -39 113 -162q0 -94 -60 -150t-162 -56h-313v700h284q99 0 159.5 -50.5t60.5 -146.5zM363 599h-160v-193h160q113 0 114 94q0 50 -30.5 74.5t-83.5 24.5zM380 311h-177v-209h190q50 0 81 27.5t33 76.5q0 53 -36 83q-30 22 -91 22z" />
    <glyph glyph-name="afii10020" unicode="&#x413;" horiz-adv-x="519" 
d="M504 597h-300v-597h-117v700h417v-103z" />
    <glyph glyph-name="afii10021" unicode="&#x414;" horiz-adv-x="740" 
d="M293 599l-42 -398q-9 -80 -43 -104h305v502h-220zM24 100h24q46 0 62.5 24t23.5 82l58 494h434v-600h75v-204h-108v104h-460v-104h-109v204z" />
    <glyph glyph-name="afii10022" unicode="&#x415;" horiz-adv-x="577" 
d="M513 700v-102h-309v-185h292v-103h-292v-204h315v-106h-432v700h426z" />
    <glyph glyph-name="afii10024" unicode="&#x416;" horiz-adv-x="1001" 
d="M983 0h-132l-199 305q-39 -14 -94 -14v-291h-115v291q-55 0 -93 14l-200 -305h-132v17l230 335q-22 19 -39.5 52.5t-26.5 60.5t-22 75q-14 48 -42 66.5t-77 11.5v80q184 37 223 -126q10 -39 16.5 -59.5t24 -52.5t39.5 -45q35 -20 99 -20v305h115v-305q64 0 99 20
q22 13 39.5 45t24 52.5t16.5 59.5q37 163 223 126v-80q-48 7 -76.5 -11.5t-43.5 -66.5q-19 -71 -37.5 -115.5t-49.5 -72.5l230 -335v-17z" />
    <glyph glyph-name="afii10025" unicode="&#x417;" horiz-adv-x="590" 
d="M166 534h-108q-2 90 62.5 135.5t160.5 45.5q102 0 165 -53t63 -140q0 -46 -23.5 -84t-64.5 -58q123 -48 123 -181q0 -100 -70.5 -157.5t-192.5 -57.5q-111 0 -178.5 60t-67.5 170h104q0 -61 40 -94.5t102 -33.5q65 0 105.5 31.5t40.5 87.5q0 54 -41.5 88t-103.5 34h-50
v94h49q49 0 83.5 27.5t34.5 70.5q0 48 -34.5 75t-83.5 27q-48 0 -81.5 -22t-33.5 -65z" />
    <glyph glyph-name="afii10026" unicode="&#x418;" horiz-adv-x="749" 
d="M555 476l-428 -477h-40v701h116v-255l-8 -214l425 471h42v-702h-115v254z" />
    <glyph glyph-name="afii10027" unicode="&#x419;" horiz-adv-x="749" 
d="M230 906l81 8q9 -63 87 -65q80 0 91 65q49 -4 75 -8q-6 -70 -48 -110.5t-117 -40.5q-74 0 -119 41t-50 110zM127 -1l428 477l-8 -222v-254h115v702h-42l-425 -471l8 214v255h-116v-701h40z" />
    <glyph glyph-name="afii10028" unicode="&#x41a;" horiz-adv-x="685" 
d="M204 700v-310q104 0 137 17q28 15 45 55.5t35 110.5q21 76 72 110.5t151 15.5v-80q-54 4 -77.5 -11.5t-38.5 -68.5q-38 -139 -91 -187l230 -335v-17h-132l-200 306q-30 -11 -131 -11v-295h-117v700h117z" />
    <glyph glyph-name="afii10029" unicode="&#x41b;" horiz-adv-x="729" 
d="M296 596l-42 -410q-11 -122 -61.5 -162t-174.5 -22l2 86q64 -9 87.5 14.5t30.5 87.5l55 510h449v-700h-117v596h-229z" />
    <glyph glyph-name="afii10030" unicode="&#x41c;" horiz-adv-x="829" 
d="M415 340l284 362h43v-702h-117v438l-202 -259h-16l-203 259v-438h-117v702h43z" />
    <glyph glyph-name="afii10031" unicode="&#x41d;" horiz-adv-x="727" 
d="M640 0h-117v312h-320v-312h-116v700h116v-281h320v281h117v-700z" />
    <glyph glyph-name="afii10032" unicode="&#x41e;" horiz-adv-x="805" 
d="M759 350q0 -160 -100 -261t-258 -101q-150 0 -252.5 98.5t-102.5 263.5t104 263.5t253 98.5t252.5 -98.5t103.5 -263.5zM164 350q0 -118 68 -185t171 -67t171.5 67t68.5 185q0 116 -68.5 184.5t-170.5 68.5q-103 0 -171.5 -67.5t-68.5 -185.5z" />
    <glyph glyph-name="afii10033" unicode="&#x41f;" horiz-adv-x="726" 
d="M87 700h552v-700h-117v594h-319v-594h-116v700z" />
    <glyph glyph-name="afii10034" unicode="&#x420;" horiz-adv-x="652" 
d="M204 0h-117v700h290q113 0 180 -71.5t67 -175.5q0 -102 -67.5 -172.5t-179.5 -70.5h-173v-210zM202 312h175q59 0 97 41.5t38 102.5q0 62 -37.5 102.5t-97.5 40.5h-175v-287z" />
    <glyph glyph-name="afii10035" unicode="&#x421;" horiz-adv-x="760" 
d="M46 349q0 164 103.5 261.5t252.5 97.5q71 0 134.5 -25t113.5 -79t68 -130h-112q-51 126 -205 128q-107 0 -172.5 -70.5t-65.5 -182.5q0 -106 66.5 -178t171.5 -72q74 0 129.5 36t78.5 104h113q-25 -121 -115.5 -183.5t-205.5 -62.5q-149 0 -252 96.5t-103 259.5z" />
    <glyph glyph-name="afii10036" unicode="&#x422;" horiz-adv-x="558" 
d="M222 597h-203v103h520v-103h-203v-597h-114v597z" />
    <glyph glyph-name="afii10037" unicode="&#x423;" horiz-adv-x="628" 
d="M226 158l37 75l-254 453v14h128l185 -349h4l167 349h124v-12l-276 -551q-22 -49 -45.5 -80.5t-56.5 -51.5t-77 -19.5t-100 22.5l16 91q54 -23 89 -8.5t59 67.5z" />
    <glyph glyph-name="afii10038" unicode="&#x424;" horiz-adv-x="897" 
d="M725 351q0 172 -224 178v-356q224 6 224 178zM172 351q0 -172 223 -178v356q-223 -6 -223 -178zM394 -1v74q-70 2 -129 18.5t-107 48.5t-75.5 86t-27.5 125q0 93 48.5 157t122.5 91.5t168 30.5v72h109v-72q71 -2 130 -18t107 -47.5t75 -86t27 -127.5t-27.5 -127
t-76 -85.5t-107 -47.5t-129.5 -18v-74h-108z" />
    <glyph glyph-name="afii10039" unicode="&#x425;" horiz-adv-x="648" 
d="M322 441h3l81 134l81 125h124v-17l-217 -313l242 -354v-16h-124l-98 152l-88 143h-4l-86 -140l-101 -155h-124v16l243 354l-218 313v17h125l82 -128z" />
    <glyph glyph-name="afii10040" unicode="&#x426;" horiz-adv-x="741" 
d="M602 0h-515v700h117v-594h302v594h117v-600h82v-201h-103v101z" />
    <glyph glyph-name="afii10041" unicode="&#x427;" horiz-adv-x="642" 
d="M554 0h-115v256q-205 -35 -302 42.5t-97 290.5v110h118v-110q0 -154 64.5 -204t216.5 -20v334h115v-699z" />
    <glyph glyph-name="afii10042" unicode="&#x428;" horiz-adv-x="1031" 
d="M87 0v700h117v-594h252v594h117v-594h254v594h117v-700h-857z" />
    <glyph glyph-name="afii10043" unicode="&#x429;" horiz-adv-x="1056" 
d="M87 0v700h117v-594h248v594h116v-594h252v594h116v-600h84v-201h-104v101h-829z" />
    <glyph glyph-name="afii10044" unicode="&#x42a;" horiz-adv-x="707" 
d="M428 367h-171v-264h53.5h63.5h54q59 0 97 38t37 96q0 57 -37.5 93.5t-96.5 36.5zM19 601v99h238v-229h171q114 0 182 -65.5t68 -168.5q0 -105 -67.5 -171t-182.5 -66h-286v601h-123z" />
    <glyph glyph-name="afii10045" unicode="&#x42b;" horiz-adv-x="931" 
d="M201 700v-35v-194h172q120 0 187 -76.5t57 -181.5q-8 -92 -74 -152.5t-170 -60.5h-286v700h114zM373 367h-32h-140v-264q25 0 76 -0.5t77 -0.5q68 0 108 32t44 92t-33.5 100.5t-99.5 40.5zM844 700v-700h-116v700h116z" />
    <glyph glyph-name="afii10046" unicode="&#x42c;" horiz-adv-x="647" 
d="M201 700v-229h172q112 0 179 -67.5t67 -166.5t-67 -168t-179 -69h-286v700h114zM373 367h-172v-264h54h63.5h54.5q59 0 96.5 38t37.5 96q-1 57 -38 93.5t-96 36.5z" />
    <glyph glyph-name="afii10047" unicode="&#x42d;" horiz-adv-x="760" 
d="M361 604q-71 -1 -125 -34t-80 -96h-113q27 114 116.5 174.5t201.5 60.5q149 1 251 -97t102 -262q0 -109 -50 -192t-130.5 -125t-176.5 -41q-116 0 -206.5 62.5t-115.5 183.5h114q22 -68 78.5 -104.5t130.5 -36.5q93 -1 157.5 55.5t74.5 148.5h-279v97h281
q-9 92 -73 149.5t-158 56.5z" />
    <glyph glyph-name="afii10048" unicode="&#x42e;" horiz-adv-x="1072" 
d="M1026 350q0 -166 -103.5 -264.5t-252.5 -98.5q-138 2 -237.5 87.5t-113.5 230.5h-115v-305h-117v700h117v-288h118q19 139 117.5 219.5t232.5 80.5q149 -1 251.5 -99t102.5 -263zM432 350q0 -114 69 -183t170 -69t169.5 68.5t68.5 183.5q0 114 -68.5 182t-170.5 68
t-170 -68.5t-68 -181.5z" />
    <glyph glyph-name="afii10049" unicode="&#x42f;" horiz-adv-x="682" 
d="M32 17l177 245q-67 23 -106 78t-40 128q0 98 66 165t177 67h289v-700h-117v244h-154l-167 -244h-125v17zM307 340h173v258h-173q-58 0 -94.5 -35.5t-36.5 -91.5q0 -57 36.5 -94t94.5 -37z" />
    <glyph glyph-name="afii10065" unicode="&#x430;" horiz-adv-x="549" 
d="M384 81q-23 -45 -72 -67.5t-105 -22.5q-70 0 -121.5 41t-51.5 109q-2 83 50.5 126.5t136.5 43.5q79 0 143 -36v48q0 44 -34.5 66t-82 21t-91.5 -10t-69 -22l-16 78q74 38 178 38q98 0 159.5 -40.5t61.5 -133.5v-190q0 -23 0.5 -31.5t5 -21t15 -15.5t29.5 -1l2 -62
q-39 -6 -69 -6t-49 21.5t-20 66.5zM364 165v40q-59 35 -125 33q-42 -1 -70 -25t-28 -66q0 -34 26 -52t62 -18q48 0 87.5 22.5t47.5 65.5z" />
    <glyph glyph-name="afii10066" unicode="&#x431;" horiz-adv-x="601" 
d="M323 477q73 2 127.5 -31.5t81.5 -89t27 -122.5q0 -106 -66 -175t-185 -69q-112 0 -175 60.5t-76 158.5q-45 342 227 438q12 4 21.5 7.5t23.5 10t21.5 13t17 16t8.5 19t-3 22.5h100q19 -54 -16 -97t-93 -66q-107 -41 -140 -65q-59 -41 -73 -121q22 38 70.5 64t101.5 27z
M160 235q0 -69 42 -109.5t105 -40.5q66 0 106 42.5t39 107.5q-1 63 -41.5 105.5t-105.5 42.5t-105.5 -43t-39.5 -105z" />
    <glyph glyph-name="afii10067" unicode="&#x432;" horiz-adv-x="532" 
d="M465 356q0 -74 -66 -97q44 -12 68 -45t24 -77q0 -36 -13 -62t-32.5 -40.5t-49 -23t-55 -10.5t-58.5 -2h-212v484h185q33 0 56.5 -1.5t55 -8.5t50.5 -20t33 -37.5t14 -59.5zM177 83h95q25 0 39 1t34 6.5t30 20t10 37.5q0 22 -10.5 36.5t-30.5 20t-36.5 7.5t-40.5 2h-90
v-131zM177 288h85q96 0 96 57q0 58 -96 58h-85v-115z" />
    <glyph glyph-name="afii10068" unicode="&#x433;" horiz-adv-x="432" 
d="M177 0h-106v482h339v-96h-233v-386z" />
    <glyph glyph-name="afii10069" unicode="&#x434;" horiz-adv-x="600" 
d="M126 -111h-98l-3 196h2h10q32 0 50.5 22.5t24 44t12.5 75.5q1 8 2 12l35 243h340v-397h65l-3 -196h-94v111h-343v-111zM396 85v306h-147l-23 -183q-9 -58 -17.5 -83.5t-27.5 -39.5h215z" />
    <glyph glyph-name="afii10070" unicode="&#x435;" 
d="M291 493q125 0 181 -75t32 -197h-356q0 -64 44.5 -102t112.5 -38q96 -5 175 30l14 -81q-92 -41 -182 -41q-121 -2 -198 70t-73 192q2 115 74 178.5t176 63.5zM290 409q-118 0 -140 -111h266q2 52 -34.5 81.5t-91.5 29.5z" />
    <glyph glyph-name="afii10072" unicode="&#x436;" horiz-adv-x="770" 
d="M437 292q187 0 178 190h99q9 -179 -118 -235l148 -235v-12h-110l-128 213q-28 -7 -69 -7v-206h-104v206q-41 0 -69 7l-129 -213h-109v12l147 235q-125 55 -116 235h102q-9 -190 174 -190v191h104v-191z" />
    <glyph glyph-name="afii10073" unicode="&#x437;" horiz-adv-x="489" 
d="M58 375l-6 79q70 38 177 38q52 0 93 -11.5t70.5 -42t29.5 -78.5q0 -38 -19.5 -64.5t-56.5 -36.5q48 -12 76 -44t28 -80q0 -75 -61 -111t-150 -36q-122 0 -203 49l6 92q25 -19 79.5 -34t101.5 -16q112 0 112 68q0 23 -10.5 37.5t-30.5 20.5t-37 7.5t-42 1.5h-71v75h66
q29 0 47 3t34 16.5t16 39.5q0 61 -97 61q-37 0 -81 -9t-71 -25z" />
    <glyph glyph-name="afii10074" unicode="&#x438;" horiz-adv-x="584" 
d="M408 291l-307 -292h-30v483h106v-290l302 291h34v-483h-105v291z" />
    <glyph glyph-name="afii10075" unicode="&#x439;" horiz-adv-x="584" 
d="M156 681l68 8q9 -61 84 -63q77 0 88 63q39 -3 70 -8q-5 -64 -48 -102.5t-109 -38.5q-63 0 -105.5 38t-47.5 103zM101 -1l307 292v-291h105v483h-34l-302 -291v290h-106v-483h30z" />
    <glyph glyph-name="afii10076" unicode="&#x43a;" horiz-adv-x="549" 
d="M179 290h50q164 0 164 193h104q2 -185 -126 -244l155 -228v-11h-114l-134 204q-19 -5 -51 -5h-48v-199h-108v482h108v-192z" />
    <glyph glyph-name="afii10077" unicode="&#x43b;" horiz-adv-x="596" 
d="M418 386h-166l-23 -215q-11 -115 -53 -151t-156 -20l2 80q58 -8 75.5 13t24.5 82l36 307h367v-482h-107v386z" />
    <glyph glyph-name="afii10078" unicode="&#x43c;" horiz-adv-x="648" 
d="M328 110h-10l-143 159v-269h-104v482h34l218 -242l220 242h34v-482h-105v269z" />
    <glyph glyph-name="afii10079" unicode="&#x43d;" horiz-adv-x="586" 
d="M409 482h106v-482h-106v202h-233v-202h-105v482h105v-185h233v185z" />
    <glyph glyph-name="afii10080" unicode="&#x43e;" horiz-adv-x="591" 
d="M550 243q0 -119 -76 -185.5t-179 -66.5t-178.5 66.5t-75.5 185.5q0 118 74 183.5t176 67.5q67 1 124.5 -25.5t96 -85.5t38.5 -140zM149 243q0 -74 44 -115.5t104 -40.5q59 1 101.5 42t42.5 114q0 74 -45 115.5t-105 39.5q-59 -2 -100.5 -42.5t-41.5 -112.5z" />
    <glyph glyph-name="afii10081" unicode="&#x43f;" horiz-adv-x="584" 
d="M71 482h442v-482h-108v386h-224v-386h-110v482z" />
    <glyph glyph-name="afii10082" unicode="&#x440;" horiz-adv-x="604" 
d="M180 404q38 91 165 91q102 0 160 -73t58 -178q0 -114 -71 -184t-170 -65q-64 3 -122 38v-281h-109v576q0 54 -6 65q-9 18 -45 18l-1 75q141 28 141 -82zM198 264v-135q60 -42 123 -39q57 2 94.5 42.5t37.5 111.5q0 64 -34 109t-96 45q-55 0 -90 -39t-35 -95z" />
    <glyph glyph-name="afii10083" unicode="&#x441;" horiz-adv-x="565" 
d="M528 322h-101q-15 38 -49.5 57.5t-78.5 19.5q-60 0 -105 -42t-45 -114q0 -74 44.5 -115.5t103.5 -41.5q43 0 78.5 22.5t51.5 65.5h104q-18 -87 -84.5 -134.5t-151.5 -47.5q-103 0 -178.5 66.5t-75.5 184.5q0 79 38 138t94 86.5t121 28.5q84 1 149.5 -44.5t84.5 -129.5z
" />
    <glyph glyph-name="afii10084" unicode="&#x442;" horiz-adv-x="463" 
d="M284 1h-106v386h-155v95h417v-95h-156v-386z" />
    <glyph glyph-name="afii10085" unicode="&#x443;" horiz-adv-x="552" 
d="M529 470l-209 -511q-20 -49 -36.5 -82t-42 -65.5t-52.5 -46t-66 -13t-85 21.5l12 79q41 -21 72 -12.5t49 31.5t34 66l23 59l-215 473v12h117l150 -358h3l137 358h109v-12z" />
    <glyph glyph-name="afii10086" unicode="&#x444;" horiz-adv-x="846" 
d="M477 -245h-107v278q-90 -45 -162.5 -35t-118.5 75.5t-46 168.5q0 157 98 219.5t229 -9.5v276h107v-276q131 72 228.5 9.5t97.5 -219.5q0 -103 -46 -168.5t-118.5 -75.5t-161.5 35v-278zM694 242q0 105 -67 140t-152 -24v-231q85 -60 152 -25t67 140zM153 242
q0 -105 67.5 -139.5t152.5 24.5v231q-85 59 -152.5 24t-67.5 -140z" />
    <glyph glyph-name="afii10087" unicode="&#x445;" horiz-adv-x="509" 
d="M258 188h-3l-59 -92l-72 -96h-110v12l179 244l-152 214v12h104l55 -76l53 -82h3l52 80l57 78h110v-12l-158 -221l173 -237v-12h-105l-71 98z" />
    <glyph glyph-name="afii10088" unicode="&#x446;" horiz-adv-x="582" 
d="M452 0h-381v482h104v-385h206v385h104v-396h63l-5 -195h-91v109z" />
    <glyph glyph-name="afii10089" unicode="&#x447;" horiz-adv-x="543" 
d="M146 370q0 -63 38.5 -95t89.5 -29t92 35v201h106v-482h-108v177q-60 -27 -119 -28t-105 22t-75 74.5t-29 124.5v112h110v-112z" />
    <glyph glyph-name="afii10090" unicode="&#x448;" horiz-adv-x="812" 
d="M176 96h178v386h105v-386h178v386h104v-482h-670v482h105v-386z" />
    <glyph glyph-name="afii10091" unicode="&#x449;" horiz-adv-x="839" 
d="M176 96h178v386h105v-386h177v386h106v-397h63l-5 -196h-92v111h-637v482h105v-386z" />
    <glyph glyph-name="afii10092" unicode="&#x44a;" horiz-adv-x="574" 
d="M334 0h-201v392h-110v90h215v-150h97q92 0 151.5 -40t59.5 -126q0 -85 -60.5 -125.5t-151.5 -40.5zM333 249h-95v-166h95q47 0 77 21t30 62t-30 62t-77 21z" />
    <glyph glyph-name="afii10093" unicode="&#x44b;" horiz-adv-x="747" 
d="M272 0q91 0 152 40.5t61 125.5q0 86 -60 126t-152 40h-97v150h-105v-482h201zM176 249h95q47 0 77.5 -21t30.5 -62t-30.5 -62t-77.5 -21h-95v166zM574 0v483h102v-483h-102z" />
    <glyph glyph-name="afii10094" unicode="&#x44c;" horiz-adv-x="513" 
d="M272 0h-201v482h105v-150h97q92 0 152 -40t60 -126q0 -85 -61 -125.5t-152 -40.5zM271 249h-95v-166h95q47 0 77.5 21t30.5 62t-30.5 62t-77.5 21z" />
    <glyph glyph-name="afii10095" unicode="&#x44d;" horiz-adv-x="571" 
d="M422 280q-7 60 -47 89t-97 29q-44 -1 -82 -21.5t-54 -58.5l-103 1q18 84 86.5 129.5t152.5 44.5q105 0 178.5 -64t73.5 -188q0 -125 -76 -188.5t-182 -63.5q-86 0 -154 48.5t-85 137.5h105q15 -44 52.5 -67.5t82.5 -23.5q59 1 101 28t48 84h-196v84h196z" />
    <glyph glyph-name="afii10096" unicode="&#x44e;" horiz-adv-x="814" 
d="M773 241q0 -120 -75.5 -186t-178.5 -66q-95 0 -167 55.5t-85 157.5h-90v-202h-106v482h106v-185h93q17 94 88.5 145.5t162.5 51.5q103 -1 177.5 -68t74.5 -185zM372 241q0 -73 44 -114.5t103 -40.5q58 0 101 41t43 114t-42.5 114t-101.5 42q-59 0 -103 -41t-44 -115z" />
    <glyph glyph-name="afii10097" unicode="&#x44f;" horiz-adv-x="537" 
d="M32 12l126 163q-46 16 -75 56t-29 89q0 68 47 114.5t123 47.5h242v-482h-110v155h-91l-116 -155h-117v12zM255 242h101v156h-101q-41 0 -66.5 -22.5t-25.5 -57.5q0 -34 25.5 -55t66.5 -21z" />
    <glyph glyph-name="afii10071" unicode="&#x451;" 
d="M291 493q125 0 181 -75t32 -197h-356q0 -64 44.5 -102t112.5 -38q96 -5 175 30l14 -81q-92 -41 -182 -41q-121 -2 -198 70t-73 192q2 115 74 178.5t176 63.5zM290 409q-118 0 -140 -111h266q2 52 -34.5 81.5t-91.5 29.5zM395 592q-25 0 -42 14.5t-17 38.5t17 39.5
t42 15.5t42 -15.5t17 -39.5t-17 -38.5t-42 -14.5zM169 592q-25 0 -42 14.5t-17 38.5t17 39.5t42 15.5t42.5 -15.5t17.5 -39.5q0 -23 -17.5 -38t-42.5 -15z" />
    <glyph glyph-name="afii10099" unicode="&#x452;" horiz-adv-x="589" 
d="M314 -9q64 -9 84 17t20 96v178q-2 59 -32 91.5t-82 32.5t-88 -41t-36 -100v-265h-109v589h-77v74h77v68h109v-68h147v-74h-147v-171q50 78 155 78q98 0 144.5 -60t46.5 -154v-179q0 -117 -52.5 -165.5t-160.5 -29.5q0 14 0.5 42t0.5 41z" />
    <glyph glyph-name="afii10100" unicode="&#x453;" horiz-adv-x="444" 
d="M177 0h-106v482h351v-96h-245v-386zM276 566h-84v10l82 151l94 -34v-9z" />
    <glyph glyph-name="afii10101" unicode="&#x454;" horiz-adv-x="571" 
d="M152 280h193v-79h-193q6 -56 47.5 -86t98.5 -31q45 0 82.5 23.5t52.5 67.5h105q-17 -89 -85 -137.5t-154 -48.5q-103 0 -180.5 67t-77.5 185q0 80 39 139t96.5 86t123.5 27q84 1 149 -44t83 -130l-103 -1q-16 38 -51 58.5t-78 21.5q-56 0 -98.5 -31t-49.5 -87z" />
    <glyph glyph-name="afii10102" unicode="&#x455;" horiz-adv-x="508" 
d="M37 142h107q2 -35 34.5 -54t75.5 -19q111 0 115 74q0 31 -27 44.5t-81 20.5q-109 14 -148 33q-63 30 -65 100q0 73 60 112t145 39q88 0 147.5 -38t57.5 -107h-96q0 33 -32 48t-77 15q-41 0 -71 -18.5t-28 -48.5q1 -28 26.5 -39t88.5 -19q37 -5 60 -9t52.5 -14.5t46 -24.5
t28.5 -38.5t12 -57.5q0 -75 -61 -114t-149 -39q-92 0 -153.5 35.5t-67.5 118.5z" />
    <glyph glyph-name="afii10103" unicode="&#x456;" horiz-adv-x="253" 
d="M61 631q0 30 19.5 47t46.5 17t46 -17t19 -47t-19 -47t-45 -18q-27 -1 -47 16.5t-20 48.5zM181 477v-477h-109v477h109z" />
    <glyph glyph-name="afii10104" unicode="&#x457;" horiz-adv-x="252" 
d="M223 588q-27 0 -45.5 16t-18.5 42q0 27 18 43t46 16t46 -16t18 -43q0 -26 -18.5 -42t-45.5 -16zM29 588q-27 0 -45.5 16t-18.5 42q0 27 18 43t46 16q27 0 45.5 -16.5t18.5 -42.5t-18.5 -42t-45.5 -16zM180 481v-481h-108v481h108z" />
    <glyph glyph-name="afii10105" unicode="&#x458;" horiz-adv-x="252" 
d="M72 480h108v-537q0 -122 -54.5 -168t-166.5 -26l4 82q66 -9 87.5 17t21.5 96v536zM60 631q0 30 19 46.5t45 17.5q27 1 47 -16t20 -48q0 -29 -19 -45.5t-45 -17.5q-27 -1 -47 16t-20 47z" />
    <glyph glyph-name="afii10106" unicode="&#x459;" horiz-adv-x="784" 
d="M378 0v386h-127l-23 -215q-10 -114 -52.5 -150.5t-156.5 -20.5l3 80q58 -8 75.5 13t24.5 82l35 307h326v-150h69q91 0 147.5 -39.5t56.5 -126.5q0 -85 -57.5 -125.5t-147.5 -40.5h-173zM550 249h-67v-166h67q47 0 74.5 21t27.5 62t-27.5 62t-74.5 21z" />
    <glyph glyph-name="afii10107" unicode="&#x45a;" horiz-adv-x="770" 
d="M537 0h-173v221h-187v-221h-106v482h106v-166h187v166h105v-162h69q204 0 204 -160q0 -85 -57 -122.5t-148 -37.5zM536 237h-67v-154h67q102 0 102 77t-102 77z" />
    <glyph glyph-name="afii10108" unicode="&#x45b;" horiz-adv-x="590" 
d="M418 0v282q-2 58 -32 89t-82 31q-53 0 -88.5 -39.5t-35.5 -97.5v-265h-109v589h-76v74h76v68h109v-68h147v-74h-147v-172q52 74 149 76q95 0 146 -55.5t51 -155.5v-282h-108z" />
    <glyph glyph-name="afii10109" unicode="&#x45c;" horiz-adv-x="547" 
d="M179 290h50q164 0 164 193h104q2 -182 -126 -241l149 -230v-11h-111l-131 207q-19 -5 -51 -5h-48v-202h-108v481h108v-192zM306 566h-84v10l82 151l94 -34v-9z" />
    <glyph glyph-name="afii10110" unicode="&#x45e;" horiz-adv-x="552" 
d="M529 470l-209 -511q-20 -49 -36.5 -82t-42 -66t-52.5 -47t-66 -13.5t-85 21.5l12 81q41 -21 72 -12.5t49 31.5t34 66l23 59l-215 473v12h117l150 -357h3l137 357h109v-12zM123 697l68 8q9 -61 84 -63q77 0 88 63q39 -3 70 -8q-5 -64 -48 -102.5t-109 -38.5
q-63 0 -105.5 38t-47.5 103z" />
    <glyph glyph-name="afii10193" unicode="&#x45f;" horiz-adv-x="585" 
d="M242 0h-171v482h109v-386h224v386h110v-482h-171v-102h-101v102z" />
    <glyph glyph-name="afii10050" unicode="&#x490;" horiz-adv-x="519" 
d="M504 597h-301v-597h-116v700h324v104h93v-207z" />
    <glyph glyph-name="afii10098" unicode="&#x491;" horiz-adv-x="444" 
d="M178 0h-107v482h259v96h92v-192h-244v-386z" />
    <glyph glyph-name="Wgrave" unicode="&#x1e80;" horiz-adv-x="976" 
d="M464 688h52l168 -475h2l70 251l74 236h123v-17l-233 -688h-60l-169 449h-2l-169 -449h-64l-232 688v17h121l76 -236l73 -252h2zM533 775v-11h-91l-88 110v10l100 38z" />
    <glyph glyph-name="wgrave" unicode="&#x1e81;" horiz-adv-x="774" 
d="M258 -5h-49l-190 475v12h117l61 -166l45 -132h2l115 287h54l115 -288h3l46 133q11 32 32.5 90.5t27.5 75.5h118v-12l-191 -475h-49l-129 291zM439 574v-11h-87l-84 106v9l96 37z" />
    <glyph glyph-name="Wacute" unicode="&#x1e82;" horiz-adv-x="976" 
d="M464 688h52l168 -475h2l70 251l74 236h123v-17l-233 -688h-60l-169 449h-2l-169 -449h-64l-232 688v17h121l76 -236l73 -252h2zM433 765v11l79 147l100 -38v-10l-88 -110h-91z" />
    <glyph glyph-name="wacute" unicode="&#x1e83;" horiz-adv-x="774" 
d="M258 -5h-49l-190 475v12h117l61 -166l45 -132h2l115 287h54l115 -288h3l46 133q11 32 32.5 90.5t27.5 75.5h118v-12l-191 -475h-49l-129 291zM335 574v11l77 142l97 -37v-9l-85 -107h-89z" />
    <glyph glyph-name="Wdieresis" unicode="&#x1e84;" horiz-adv-x="976" 
d="M464 688h52l168 -475h2l70 251l74 236h123v-17l-233 -688h-60l-169 449h-2l-169 -449h-64l-232 688v17h121l76 -236l73 -252h2zM613 759q-27 0 -45.5 16t-18.5 42q0 27 18 43t46 16t46 -16t18 -43q0 -26 -18.5 -42t-45.5 -16zM369 759q-27 0 -45.5 16t-18.5 42
q0 27 18 43t46 16q27 0 45.5 -16.5t18.5 -42.5t-18.5 -42t-45.5 -16z" />
    <glyph glyph-name="wdieresis" unicode="&#x1e85;" horiz-adv-x="774" 
d="M258 -5h-49l-190 475v12h117l61 -166l45 -132h2l115 287h54l115 -288h3l46 133q11 32 32.5 90.5t27.5 75.5h118v-12l-191 -475h-49l-129 291zM512 571q-27 0 -45.5 16t-18.5 42q0 27 18 43t46 16t46 -16t18 -43q0 -26 -18.5 -42t-45.5 -16zM268 571q-27 0 -45.5 16
t-18.5 42q0 27 18 43t46 16q27 0 45.5 -16.5t18.5 -42.5t-18.5 -42t-45.5 -16z" />
    <glyph glyph-name="Ygrave" unicode="&#x1ef2;" horiz-adv-x="630" 
d="M313 383h4l87 166l91 151h124v-17l-246 -399v-284h-116v284l-247 399v17h125l94 -156zM373 769v-11h-91l-88 110v10l100 38z" />
    <glyph glyph-name="ygrave" unicode="&#x1ef3;" 
d="M528 470l-209 -511q-20 -50 -35.5 -81.5t-40 -64.5t-52 -46.5t-67 -13t-88.5 21.5l13 79q41 -21 72 -13t50.5 31t34.5 66l23 59l-217 473v12h117l71 -168l79 -212h3l73 211l64 169h109v-12zM327 583v-11h-87l-84 106v9l96 37z" />
    <glyph glyph-name="endash" unicode="&#x2013;" horiz-adv-x="543" 
d="M64 286v94h415v-94h-415z" />
    <glyph glyph-name="emdash" unicode="&#x2014;" horiz-adv-x="631" 
d="M64 286v94h503v-94h-503z" />
    <glyph glyph-name="quoteleft" unicode="&#x2018;" horiz-adv-x="239" 
d="M54 568q2 16 7 28l34 106h66l-22 -77q46 -14 46 -60q0 -27 -18.5 -44t-46.5 -17q-50 0 -63 43q-3 11 -3 21z" />
    <glyph glyph-name="quoteright" unicode="&#x2019;" horiz-adv-x="241" 
d="M187 641q-1 -15 -6 -28l-34 -106h-66l22 78q-21 5 -34 20.5t-13 38.5q0 27 19 44t47 17q22 0 39 -11.5t24 -31.5q3 -18 2 -21z" />
    <glyph glyph-name="quotesinglbase" unicode="&#x201a;" horiz-adv-x="257" 
d="M194 44q-1 -9 -6 -28q-13 -36 -35 -108h-66l23 80q-21 5 -34 20.5t-13 38.5q0 27 19 44t47 17q22 0 39 -11t23 -31q3 -10 3 -22z" />
    <glyph glyph-name="quotedblleft" unicode="&#x201c;" horiz-adv-x="430" 
d="M55 567q0 15 6 28l34 107h66l-22 -78q47 -14 47 -59q0 -29 -18.5 -45.5t-47.5 -16.5q-50 0 -63 43q-3 13 -2 21zM245 567q2 18 6 28l34 107h67l-23 -78q47 -14 47 -59q0 -29 -18.5 -45.5t-47.5 -16.5q-51 0 -62 43q-3 10 -3 21z" />
    <glyph glyph-name="quotedblright" unicode="&#x201d;" horiz-adv-x="434" 
d="M187 641q-1 -15 -6 -28l-34 -106h-66l22 78q-21 5 -34 20.5t-13 38.5q0 27 19 44t47 17q22 0 39 -11.5t24 -31.5q3 -18 2 -21zM380 641q-1 -15 -6 -28l-34 -106h-67l23 78q-21 5 -34 20.5t-13 38.5q0 27 19 44t47 17q49 0 62 -43q3 -10 3 -21z" />
    <glyph glyph-name="quotedblbase" unicode="&#x201e;" horiz-adv-x="446" 
d="M194 44q0 -6 -6 -28l-35 -107h-66l23 79q-21 5 -34 20.5t-13 38.5q0 27 19 44t47 17q49 0 63 -42q3 -13 2 -22zM383 44q-2 -16 -7 -28l-35 -107h-66l23 79q-46 12 -46 59q0 27 18.5 44t46.5 17q51 0 63 -42q3 -10 3 -22z" />
    <glyph glyph-name="dagger" unicode="&#x2020;" horiz-adv-x="467" 
d="M35 374v92h149v239h99v-239h149v-92h-149v-457h-99v457h-149z" />
    <glyph glyph-name="daggerdbl" unicode="&#x2021;" horiz-adv-x="521" 
d="M54 138v90h155v177h-155v91h155v209h99v-209h158v-91h-158v-177h158v-90h-158v-221h-99v221h-155z" />
    <glyph glyph-name="bullet" unicode="&#x2022;" horiz-adv-x="415" 
d="M208 240q-53 0 -90.5 33.5t-37.5 84.5q0 53 37 86t91 33q53 0 90 -33t37 -86q0 -51 -37 -84.5t-90 -33.5z" />
    <glyph glyph-name="ellipsis" unicode="&#x2026;" horiz-adv-x="732" 
d="M130 -12q-28 0 -47.5 17.5t-19.5 44.5q0 29 19 46t48 17t48 -17t19 -46q0 -27 -19.5 -44.5t-47.5 -17.5zM364 -12q-28 0 -47.5 17.5t-19.5 44.5q0 29 19 46t48 17t48 -17t19 -46q0 -27 -19.5 -44.5t-47.5 -17.5zM601 -12q-28 0 -47.5 17.5t-19.5 44.5q0 28 19.5 45.5
t47.5 17.5q30 0 49 -17t19 -46q0 -27 -19 -44.5t-49 -17.5z" />
    <glyph glyph-name="perthousand" unicode="&#x2030;" horiz-adv-x="1268" 
d="M213 0l344 699h107l-344 -699h-107zM841 157q0 -55 -25.5 -95.5t-63.5 -59t-83 -18.5t-83 18.5t-63.5 59t-25.5 95.5t25.5 95t63.5 58.5t83 18.5t83 -18t63.5 -58.5t25.5 -95.5zM584 157q0 -45 26.5 -70.5t58 -25.5t58 25.5t26.5 70.5t-26.5 70t-58 25t-58 -25.5
t-26.5 -69.5zM381 540q0 -47 -19 -84.5t-49.5 -56.5t-67 -28t-73.5 0t-67.5 28t-49.5 56.5t-19 84.5q0 48 19 85t49.5 56.5t67.5 28.5t73.5 0t67 -28.5t49.5 -56.5t19 -85zM124 540q0 -45 26.5 -70.5t58 -25.5t58 25.5t26.5 70.5t-26.5 70.5t-58 25.5t-58 -25.5t-26.5 -70.5
zM1233 157q0 -48 -19 -85t-49.5 -56.5t-67 -28.5t-73 0t-67 28.5t-49.5 56.5t-19 85q0 47 19 84t49.5 56.5t67 28.5t73 0t67 -28t49.5 -56.5t19 -84.5zM976 157q0 -45 26.5 -70.5t58 -25.5t58 25.5t26.5 70.5t-26.5 70t-58 25t-58 -25.5t-26.5 -69.5z" />
    <glyph glyph-name="guilsinglleft" unicode="&#x2039;" horiz-adv-x="320" 
d="M261 554l-101 -208l101 -206l-70 -26l-143 232l143 234z" />
    <glyph glyph-name="guilsinglright" unicode="&#x203a;" horiz-adv-x="320" 
d="M160 346l-101 208l70 26l143 -234l-143 -232l-70 26z" />
    <glyph glyph-name="fraction" unicode="&#x2044;" horiz-adv-x="493" 
d="M0 -60l382 789h113l-383 -789h-112z" />
    <glyph glyph-name="Euro" unicode="&#x20ac;" horiz-adv-x="653" 
d="M44 386v69h82q32 118 124 185t214 67q68 0 130 -23l-35 -92q-43 17 -91 17q-79 1 -137 -41t-83 -113h236l-23 -69h-232q-5 -37 -1 -67h211l-23 -69h-173q22 -72 80.5 -114.5t142.5 -42.5q62 0 112 26l38 -95q-65 -32 -153 -32q-132 0 -222.5 68t-116.5 190h-80v69h70
q-2 39 2 67h-72z" />
    <glyph glyph-name="afii61352" unicode="&#x2116;" horiz-adv-x="1340" 
d="M626 -1l-428 477l8 -222v-254h-115v702h42l425 -471l-8 214v255h116v-701h-40zM1303 243q0 -119 -76 -185.5t-179 -66.5t-178.5 66.5t-75.5 185.5q0 118 74 183.5t176 67.5q67 1 124.5 -25.5t96 -85.5t38.5 -140zM902 243q0 -74 44 -115.5t104 -40.5q59 1 101.5 42
t42.5 114q0 74 -45 115.5t-105 39.5q-59 -2 -100.5 -42.5t-41.5 -112.5z" />
    <glyph glyph-name="trademark" unicode="&#x2122;" horiz-adv-x="760" 
d="M160 635h-91v66h254v-66h-89v-213h-74v213zM407 701l118 -131l117 131h38v-279h-74v150l-79 -92h-5l-79 92v-150h-74v279h38z" />
    <glyph glyph-name="arrowleft" unicode="&#x2190;" horiz-adv-x="764" 
d="M357 73l-290 264v15l290 264l70 -67l-179 -151l438 4v-115l-436 4l176 -151z" />
    <glyph glyph-name="arrowup" unicode="&#x2191;" horiz-adv-x="723" 
d="M366 646l264 -290l-67 -69l-151 176l4 -436h-115l4 438l-151 -179l-67 70l264 290h15z" />
    <glyph glyph-name="arrowright" unicode="&#x2192;" horiz-adv-x="771" 
d="M691 337l-290 -264l-69 67l176 151l-436 -4v115l438 -4l-179 151l70 67l290 -264v-15z" />
    <glyph glyph-name="arrowdown" unicode="&#x2193;" horiz-adv-x="706" 
d="M345 42l-264 290l67 69l151 -176l-4 436h115l-4 -438l151 179l67 -70l-264 -290h-15z" />
    <glyph glyph-name="arrowboth" unicode="&#x2194;" horiz-adv-x="989" 
d="M923 337l-280 -255l-67 65l170 146h-507l170 -146l-67 -65l-280 255v15l280 255l68 -65l-172 -146h509l-172 146l68 65l280 -255v-15z" />
    <glyph glyph-name="arrowupdn" unicode="&#x2195;" horiz-adv-x="694" 
d="M344 -33l-253 269l64 65l146 -164v455l-146 -164l-64 65l253 269h15l253 -269l-64 -66l-145 166v-457l145 166l64 -66l-253 -269h-15z" />
    <glyph glyph-name="uni2196" unicode="&#x2196;" horiz-adv-x="735" 
d="M140 173l-19 392l11 10l392 -19l2 -96l-233 19l312 -306l-81 -81l-306 311l18 -232z" />
    <glyph glyph-name="uni2197" unicode="&#x2197;" horiz-adv-x="708" 
d="M577 565l-19 -392l-96 -2l18 232l-306 -311l-81 81l312 306l-233 -19l2 96l392 19z" />
    <glyph glyph-name="uni2198" unicode="&#x2198;" horiz-adv-x="735" 
d="M568 528l19 -392l-11 -10l-392 19l-2 96l233 -19l-312 306l81 81l306 -311l-18 232z" />
    <glyph glyph-name="uni2199" unicode="&#x2199;" horiz-adv-x="735" 
d="M148 136l19 392l96 2l-18 -232l306 311l81 -81l-312 -306l233 19l-2 -96l-392 -19z" />
    <glyph glyph-name="minus" unicode="&#x2212;" horiz-adv-x="541" 
d="M71 306v94h399v-94h-399z" />
    <glyph glyph-name="CR" horiz-adv-x="219" 
 />
    </font>
</defs>
</svg>
